RecursiveSans-CasualExtraBold.ufo
<glyph name="exclam" format="1">
  <advance width="350"/>
  <unicode hex="0021"/>
  <outline>
    <contour>
      <point x="235" y="290" type="line"/>
      <point x="251" y="355"/>
      <point x="265" y="463"/>
      <point x="265" y="529" type="curve"/>
      <point x="265" y="641" type="line" smooth="yes"/>
      <point x="265" y="689"/>
      <point x="209" y="710"/>
      <point x="139" y="710" type="curve" smooth="yes"/>
      <point x="114" y="710"/>
      <point x="95" y="709"/>
      <point x="72" y="703" type="curve"/>
      <point x="81" y="667"/>
      <point x="85" y="630"/>
      <point x="85" y="590" type="curve" smooth="yes"/>
      <point x="85" y="535" type="line"/>
      <point x="85" y="456"/>
      <point x="98" y="343"/>
      <point x="120" y="321" type="curve" smooth="yes"/>
      <point x="139" y="302"/>
      <point x="172" y="290"/>
      <point x="220" y="290" type="curve"/>
    </contour>
    <contour>
      <point x="279" y="-5" type="curve"/>
      <point x="279" y="134" type="line" smooth="yes"/>
      <point x="279" y="197"/>
      <point x="210" y="206"/>
      <point x="149" y="206" type="curve" smooth="yes"/>
      <point x="126" y="206"/>
      <point x="96" y="204"/>
      <point x="71" y="200" type="curve"/>
      <point x="71" y="61" type="line" smooth="yes"/>
      <point x="71" y="-2"/>
      <point x="140" y="-11"/>
      <point x="201" y="-11" type="curve" smooth="yes"/>
      <point x="224" y="-11"/>
      <point x="254" y="-9"/>
    </contour>
  </outline>
</glyph>
<glyph name="numbersign" format="1">
  <advance width="600"/>
  <unicode hex="0023"/>
  <outline>
    <contour>
      <point x="168" y="715" type="curve"/>
      <point x="168" y="513"/>
      <point x="141" y="240"/>
      <point x="33" y="-8" type="curve"/>
      <point x="45" y="-16"/>
      <point x="57" y="-20"/>
      <point x="86" y="-20" type="curve"/>
      <point x="124" y="-20"/>
      <point x="150" y="-12"/>
      <point x="159" y="10" type="curve" smooth="yes"/>
      <point x="261" y="260"/>
      <point x="287" y="487"/>
      <point x="287" y="686" type="curve" smooth="yes"/>
      <point x="287" y="709"/>
      <point x="260" y="720"/>
      <point x="216" y="720" type="curve" smooth="yes"/>
      <point x="200" y="720"/>
      <point x="183" y="719"/>
    </contour>
    <contour>
      <point x="398" y="715" type="curve"/>
      <point x="398" y="513"/>
      <point x="371" y="240"/>
      <point x="263" y="-8" type="curve"/>
      <point x="275" y="-16"/>
      <point x="287" y="-20"/>
      <point x="316" y="-20" type="curve"/>
      <point x="354" y="-20"/>
      <point x="380" y="-12"/>
      <point x="389" y="10" type="curve" smooth="yes"/>
      <point x="491" y="260"/>
      <point x="517" y="487"/>
      <point x="517" y="686" type="curve" smooth="yes"/>
      <point x="517" y="709"/>
      <point x="490" y="720"/>
      <point x="446" y="720" type="curve" smooth="yes"/>
      <point x="430" y="720"/>
      <point x="413" y="719"/>
    </contour>
    <contour>
      <point x="590" y="420" type="line"/>
      <point x="590" y="426"/>
      <point x="590" y="432"/>
      <point x="590" y="439" type="curve" smooth="yes"/>
      <point x="590" y="487"/>
      <point x="580" y="514"/>
      <point x="564" y="530" type="curve" smooth="yes"/>
      <point x="549" y="545"/>
      <point x="529" y="550"/>
      <point x="483" y="550" type="curve"/>
      <point x="47" y="550" type="line"/>
      <point x="43" y="529"/>
      <point x="40" y="506"/>
      <point x="40" y="487" type="curve" smooth="yes"/>
      <point x="40" y="436"/>
      <point x="57" y="420"/>
      <point x="113" y="420" type="curve"/>
    </contour>
    <contour>
      <point x="10" y="280" type="line"/>
      <point x="10" y="274"/>
      <point x="10" y="268"/>
      <point x="10" y="261" type="curve" smooth="yes"/>
      <point x="10" y="213"/>
      <point x="20" y="186"/>
      <point x="36" y="170" type="curve" smooth="yes"/>
      <point x="51" y="155"/>
      <point x="71" y="150"/>
      <point x="117" y="150" type="curve"/>
      <point x="553" y="150" type="line"/>
      <point x="557" y="171"/>
      <point x="560" y="194"/>
      <point x="560" y="213" type="curve" smooth="yes"/>
      <point x="560" y="264"/>
      <point x="543" y="280"/>
      <point x="487" y="280" type="curve"/>
    </contour>
  </outline>
</glyph>
<glyph name="percent" format="1">
  <advance width="600"/>
  <unicode hex="0025"/>
  <outline>
    <contour>
      <point x="117" y="661" type="curve"/>
      <point x="173" y="661"/>
      <point x="201" y="627"/>
      <point x="201" y="557" type="curve" smooth="yes"/>
      <point x="201" y="553" type="line" smooth="yes"/>
      <point x="201" y="501"/>
      <point x="179" y="475"/>
      <point x="135" y="475" type="curve" smooth="yes"/>
      <point x="111" y="475"/>
      <point x="97" y="482"/>
      <point x="79" y="507" type="curve"/>
      <point x="39" y="462"/>
      <point x="95" y="356"/>
      <point x="159" y="356" type="curve" smooth="yes"/>
      <point x="256" y="356"/>
      <point x="318" y="426"/>
      <point x="318" y="536" type="curve" smooth="yes"/>
      <point x="318" y="542" type="line" smooth="yes"/>
      <point x="318" y="640"/>
      <point x="254" y="710"/>
      <point x="166" y="710" type="curve" smooth="yes"/>
      <point x="137" y="710"/>
      <point x="117" y="690"/>
    </contour>
    <contour>
      <point x="196" y="415" type="curve"/>
      <point x="137" y="415"/>
      <point x="101" y="460"/>
      <point x="101" y="524" type="curve" smooth="yes"/>
      <point x="101" y="528" type="line" smooth="yes"/>
      <point x="101" y="583"/>
      <point x="128" y="621"/>
      <point x="167" y="621" type="curve" smooth="yes"/>
      <point x="204" y="621"/>
      <point x="219" y="615"/>
      <point x="249" y="588" type="curve"/>
      <point x="285" y="627"/>
      <point x="229" y="710"/>
      <point x="166" y="710" type="curve" smooth="yes"/>
      <point x="72" y="710"/>
      <point x="9" y="637"/>
      <point x="9" y="529" type="curve" smooth="yes"/>
      <point x="9" y="523" type="line" smooth="yes"/>
      <point x="9" y="420"/>
      <point x="66" y="356"/>
      <point x="159" y="356" type="curve" smooth="yes"/>
      <point x="191" y="356"/>
      <point x="196" y="379"/>
    </contour>
    <contour>
      <point x="390" y="295" type="curve"/>
      <point x="446" y="295"/>
      <point x="474" y="261"/>
      <point x="474" y="191" type="curve" smooth="yes"/>
      <point x="474" y="187" type="line" smooth="yes"/>
      <point x="474" y="135"/>
      <point x="452" y="109"/>
      <point x="408" y="109" type="curve" smooth="yes"/>
      <point x="384" y="109"/>
      <point x="370" y="116"/>
      <point x="352" y="141" type="curve"/>
      <point x="312" y="96"/>
      <point x="368" y="-10"/>
      <point x="432" y="-10" type="curve" smooth="yes"/>
      <point x="529" y="-10"/>
      <point x="591" y="60"/>
      <point x="591" y="170" type="curve" smooth="yes"/>
      <point x="591" y="176" type="line" smooth="yes"/>
      <point x="591" y="274"/>
      <point x="527" y="344"/>
      <point x="439" y="344" type="curve" smooth="yes"/>
      <point x="410" y="344"/>
      <point x="390" y="324"/>
    </contour>
    <contour>
      <point x="469" y="49" type="curve"/>
      <point x="410" y="49"/>
      <point x="374" y="94"/>
      <point x="374" y="158" type="curve" smooth="yes"/>
      <point x="374" y="162" type="line" smooth="yes"/>
      <point x="374" y="217"/>
      <point x="401" y="255"/>
      <point x="440" y="255" type="curve" smooth="yes"/>
      <point x="477" y="255"/>
      <point x="492" y="249"/>
      <point x="522" y="222" type="curve"/>
      <point x="558" y="261"/>
      <point x="502" y="344"/>
      <point x="439" y="344" type="curve" smooth="yes"/>
      <point x="345" y="344"/>
      <point x="282" y="271"/>
      <point x="282" y="163" type="curve" smooth="yes"/>
      <point x="282" y="157" type="line" smooth="yes"/>
      <point x="282" y="54"/>
      <point x="339" y="-10"/>
      <point x="432" y="-10" type="curve" smooth="yes"/>
      <point x="464" y="-10"/>
      <point x="469" y="13"/>
    </contour>
    <contour>
      <point x="346" y="411" type="curve"/>
      <point x="361" y="402"/>
      <point x="383" y="397"/>
      <point x="411" y="397" type="curve" smooth="yes"/>
      <point x="444" y="397"/>
      <point x="458" y="403"/>
      <point x="481" y="426" type="curve" smooth="yes"/>
      <point x="546" y="491"/>
      <point x="575" y="581"/>
      <point x="575" y="650" type="curve" smooth="yes"/>
      <point x="575" y="691"/>
      <point x="546" y="713"/>
      <point x="487" y="713" type="curve" smooth="yes"/>
      <point x="462" y="713"/>
      <point x="450" y="712"/>
      <point x="434" y="707" type="curve"/>
      <point x="423" y="605"/>
      <point x="401" y="500"/>
    </contour>
    <contour>
      <point x="254" y="289" type="curve"/>
      <point x="239" y="298"/>
      <point x="217" y="303"/>
      <point x="189" y="303" type="curve" smooth="yes"/>
      <point x="156" y="303"/>
      <point x="142" y="297"/>
      <point x="119" y="274" type="curve" smooth="yes"/>
      <point x="54" y="209"/>
      <point x="25" y="119"/>
      <point x="25" y="50" type="curve" smooth="yes"/>
      <point x="25" y="9"/>
      <point x="54" y="-13"/>
      <point x="113" y="-13" type="curve" smooth="yes"/>
      <point x="138" y="-13"/>
      <point x="150" y="-12"/>
      <point x="166" y="-7" type="curve"/>
      <point x="177" y="95"/>
      <point x="199" y="200"/>
    </contour>
  </outline>
</glyph>
<glyph name="quotesingle" format="1">
  <advance width="250"/>
  <unicode hex="0027"/>
  <outline>
    <contour>
      <point x="200" y="446" type="curve"/>
      <point x="214" y="637" type="line" smooth="yes"/>
      <point x="220" y="717"/>
      <point x="179" y="754"/>
      <point x="83" y="754" type="curve" smooth="yes"/>
      <point x="67" y="754"/>
      <point x="52" y="753"/>
      <point x="36" y="750" type="curve"/>
      <point x="45" y="725"/>
      <point x="50" y="696"/>
      <point x="54" y="644" type="curve" smooth="yes"/>
      <point x="64" y="502" type="line" smooth="yes"/>
      <point x="67" y="457"/>
      <point x="89" y="440"/>
      <point x="142" y="440" type="curve" smooth="yes"/>
      <point x="165" y="440"/>
      <point x="185" y="442"/>
    </contour>
  </outline>
</glyph>
<glyph name="parenright" format="1">
  <advance width="400"/>
  <unicode hex="0029"/>
  <outline>
    <contour>
      <point x="204" y="-121" type="curve" smooth="yes"/>
      <point x="298" y="-27"/>
      <point x="350" y="129"/>
      <point x="350" y="298" type="curve" smooth="yes"/>
      <point x="350" y="307" type="line" smooth="yes"/>
      <point x="350" y="476"/>
      <point x="297" y="633"/>
      <point x="204" y="726" type="curve" smooth="yes"/>
      <point x="171" y="759"/>
      <point x="141" y="774"/>
      <point x="105" y="774" type="curve" smooth="yes"/>
      <point x="50" y="774"/>
      <point x="9" y="758"/>
      <point x="-20" y="737" type="curve"/>
      <point x="-20" y="733" type="line"/>
      <point x="114" y="632"/>
      <point x="180" y="472"/>
      <point x="180" y="307" type="curve" smooth="yes"/>
      <point x="180" y="298" type="line" smooth="yes"/>
      <point x="180" y="134"/>
      <point x="115" y="-27"/>
      <point x="-20" y="-128" type="curve"/>
      <point x="-20" y="-132" type="line"/>
      <point x="9" y="-153"/>
      <point x="50" y="-169"/>
      <point x="105" y="-169" type="curve" smooth="yes"/>
      <point x="141" y="-169"/>
      <point x="171" y="-154"/>
    </contour>
  </outline>
</glyph>
<glyph name="asterisk" format="1">
  <advance width="500"/>
  <unicode hex="002A"/>
  <outline>
    <contour>
      <point x="185" y="762" type="curve"/>
      <point x="194" y="738"/>
      <point x="201" y="716"/>
      <point x="206" y="682" type="curve" smooth="yes"/>
      <point x="228" y="555" type="line"/>
      <point x="198" y="434" type="line" smooth="yes"/>
      <point x="183" y="376"/>
      <point x="208" y="340"/>
      <point x="268" y="340" type="curve"/>
      <point x="283" y="340"/>
      <point x="300" y="343"/>
      <point x="314" y="348" type="curve"/>
      <point x="306" y="372"/>
      <point x="298" y="394"/>
      <point x="293" y="428" type="curve" smooth="yes"/>
      <point x="272" y="555" type="line"/>
      <point x="302" y="676" type="line" smooth="yes"/>
      <point x="316" y="736"/>
      <point x="291" y="770"/>
      <point x="231" y="770" type="curve" smooth="yes"/>
      <point x="217" y="770"/>
      <point x="200" y="768"/>
    </contour>
    <contour>
      <point x="406" y="705" type="curve"/>
      <point x="234" y="576" type="line"/>
      <point x="82" y="519" type="line" smooth="yes"/>
      <point x="54" y="508"/>
      <point x="50" y="476"/>
      <point x="70" y="441" type="curve"/>
      <point x="77" y="428"/>
      <point x="86" y="418"/>
      <point x="95" y="409" type="curve"/>
      <point x="265" y="539" type="line"/>
      <point x="418" y="596" type="line" smooth="yes"/>
      <point x="447" y="607"/>
      <point x="451" y="637"/>
      <point x="430" y="674" type="curve" smooth="yes"/>
      <point x="424" y="684"/>
      <point x="418" y="692"/>
    </contour>
    <contour>
      <point x="456" y="496" type="curve"/>
      <point x="265" y="576" type="line"/>
      <point x="133" y="683" type="line" smooth="yes"/>
      <point x="108" y="703"/>
      <point x="81" y="690"/>
      <point x="59" y="655" type="curve"/>
      <point x="52" y="643"/>
      <point x="48" y="629"/>
      <point x="44" y="617" type="curve"/>
      <point x="234" y="539" type="line"/>
      <point x="367" y="431" type="line" smooth="yes"/>
      <point x="392" y="411"/>
      <point x="420" y="423"/>
      <point x="441" y="460" type="curve"/>
      <point x="446" y="469"/>
      <point x="451" y="480"/>
    </contour>
  </outline>
</glyph>
<glyph name="comma" format="1">
  <advance width="350"/>
  <unicode hex="002C"/>
  <outline>
    <contour>
      <point x="153" y="-200" type="curve" smooth="yes"/>
      <point x="175" y="-200"/>
      <point x="187" y="-196"/>
      <point x="198" y="-185" type="curve"/>
      <point x="256" y="-127"/>
      <point x="308" y="0"/>
      <point x="308" y="82" type="curve"/>
      <point x="308" y="138"/>
      <point x="273" y="160"/>
      <point x="184" y="160" type="curve" smooth="yes"/>
      <point x="159" y="160"/>
      <point x="142" y="158"/>
      <point x="113" y="153" type="curve"/>
      <point x="113" y="22"/>
      <point x="89" y="-85"/>
      <point x="42" y="-165" type="curve"/>
      <point x="73" y="-190"/>
      <point x="105" y="-200"/>
    </contour>
  </outline>
</glyph>
<glyph name="hyphen" format="1">
  <advance width="600"/>
  <unicode hex="002D"/>
  <outline>
    <contour>
      <point x="100" y="374" type="line"/>
      <point x="100" y="368"/>
      <point x="100" y="362"/>
      <point x="100" y="355" type="curve" smooth="yes"/>
      <point x="100" y="296"/>
      <point x="108" y="262"/>
      <point x="126" y="244" type="curve" smooth="yes"/>
      <point x="141" y="229"/>
      <point x="161" y="224"/>
      <point x="207" y="224" type="curve"/>
      <point x="505" y="224" type="line"/>
      <point x="509" y="245"/>
      <point x="512" y="268"/>
      <point x="512" y="287" type="curve" smooth="yes"/>
      <point x="512" y="353"/>
      <point x="495" y="374"/>
      <point x="439" y="374" type="curve"/>
    </contour>
  </outline>
</glyph>
<glyph name="period" format="1">
  <advance width="300"/>
  <unicode hex="002E"/>
  <outline>
    <contour>
      <point x="254" y="-5" type="curve"/>
      <point x="254" y="134" type="line" smooth="yes"/>
      <point x="254" y="197"/>
      <point x="185" y="206"/>
      <point x="124" y="206" type="curve" smooth="yes"/>
      <point x="101" y="206"/>
      <point x="71" y="204"/>
      <point x="46" y="200" type="curve"/>
      <point x="46" y="61" type="line" smooth="yes"/>
      <point x="46" y="-2"/>
      <point x="115" y="-11"/>
      <point x="176" y="-11" type="curve" smooth="yes"/>
      <point x="199" y="-11"/>
      <point x="229" y="-9"/>
    </contour>
  </outline>
</glyph>
<glyph name="slash" format="1">
  <advance width="600"/>
  <unicode hex="002F"/>
  <outline>
    <contour>
      <point x="556" y="751" type="curve"/>
      <point x="530" y="763"/>
      <point x="511" y="768"/>
      <point x="486" y="768" type="curve" smooth="yes"/>
      <point x="425" y="768"/>
      <point x="387" y="746"/>
      <point x="378" y="706" type="curve" smooth="yes"/>
      <point x="318" y="441"/>
      <point x="224" y="196"/>
      <point x="97" y="-29" type="curve" smooth="yes"/>
      <point x="78" y="-64"/>
      <point x="60" y="-90"/>
      <point x="38" y="-113" type="curve"/>
      <point x="66" y="-129"/>
      <point x="90" y="-135"/>
      <point x="123" y="-135" type="curve" smooth="yes"/>
      <point x="176" y="-135"/>
      <point x="216" y="-109"/>
      <point x="249" y="-54" type="curve"/>
      <point x="387" y="179"/>
      <point x="489" y="447"/>
    </contour>
  </outline>
</glyph>
<glyph name="zero" format="1">
  <advance width="600"/>
  <unicode hex="0030"/>
  <outline>
    <contour>
      <point x="305" y="720" type="curve" smooth="yes"/>
      <point x="154" y="720"/>
      <point x="50" y="571"/>
      <point x="50" y="350" type="curve" smooth="yes"/>
      <point x="50" y="310" type="line" smooth="yes"/>
      <point x="50" y="106"/>
      <point x="156" y="-20"/>
      <point x="295" y="-20" type="curve"/>
      <point x="343" y="-20"/>
      <point x="375" y="18"/>
      <point x="375" y="74" type="curve"/>
      <point x="256" y="74"/>
      <point x="200" y="131"/>
      <point x="200" y="275" type="curve" smooth="yes"/>
      <point x="200" y="320" type="line" smooth="yes"/>
      <point x="200" y="463"/>
      <point x="242" y="571"/>
      <point x="324" y="571" type="curve" smooth="yes"/>
      <point x="378" y="571"/>
      <point x="390" y="567"/>
      <point x="417" y="552" type="curve"/>
      <point x="464" y="599"/>
      <point x="386" y="720"/>
    </contour>
    <contour>
      <point x="295" y="-20" type="curve" smooth="yes"/>
      <point x="446" y="-20"/>
      <point x="550" y="109"/>
      <point x="550" y="300" type="curve" smooth="yes"/>
      <point x="550" y="340" type="line" smooth="yes"/>
      <point x="550" y="575"/>
      <point x="454" y="720"/>
      <point x="305" y="720" type="curve"/>
      <point x="257" y="720"/>
      <point x="225" y="682"/>
      <point x="225" y="626" type="curve"/>
      <point x="344" y="626"/>
      <point x="400" y="555"/>
      <point x="400" y="375" type="curve" smooth="yes"/>
      <point x="400" y="330" type="line" smooth="yes"/>
      <point x="400" y="216"/>
      <point x="358" y="129"/>
      <point x="276" y="129" type="curve" smooth="yes"/>
      <point x="222" y="129"/>
      <point x="210" y="133"/>
      <point x="183" y="148" type="curve"/>
      <point x="136" y="101"/>
      <point x="213" y="-20"/>
    </contour>
  </outline>
</glyph>
<glyph name="five" format="1">
  <advance width="600"/>
  <unicode hex="0035"/>
  <outline>
    <contour>
      <point x="85" y="700" type="line"/>
      <point x="85" y="691"/>
      <point x="85" y="682"/>
      <point x="85" y="671" type="curve" smooth="yes"/>
      <point x="85" y="614"/>
      <point x="92" y="589"/>
      <point x="111" y="570" type="curve" smooth="yes"/>
      <point x="128" y="553"/>
      <point x="148" y="550"/>
      <point x="182" y="550" type="curve" smooth="yes"/>
      <point x="525" y="550" type="line"/>
      <point x="529" y="567"/>
      <point x="532" y="590"/>
      <point x="532" y="613" type="curve" smooth="yes"/>
      <point x="532" y="679"/>
      <point x="515" y="700"/>
      <point x="459" y="700" type="curve" smooth="yes"/>
    </contour>
    <contour>
      <point x="227" y="280" type="line"/>
      <point x="286" y="655" type="line" smooth="yes"/>
      <point x="291" y="684"/>
      <point x="252" y="700"/>
      <point x="179" y="700" type="curve" smooth="yes"/>
      <point x="149" y="700" type="line"/>
      <point x="90" y="320" type="line" smooth="yes"/>
      <point x="86" y="295"/>
      <point x="134" y="280"/>
      <point x="221" y="280" type="curve" smooth="yes"/>
    </contour>
    <contour>
      <point x="181" y="400" type="curve"/>
      <point x="163" y="317"/>
      <point x="191" y="280"/>
      <point x="227" y="280" type="curve"/>
      <point x="229" y="280"/>
      <point x="230" y="280"/>
      <point x="232" y="280" type="curve" smooth="yes"/>
      <point x="375" y="280"/>
      <point x="451" y="224"/>
      <point x="451" y="133" type="curve" smooth="yes"/>
      <point x="451" y="119"/>
      <point x="450" y="110"/>
      <point x="447" y="95" type="curve"/>
      <point x="502" y="95"/>
      <point x="550" y="152"/>
      <point x="550" y="201" type="curve" smooth="yes"/>
      <point x="550" y="310"/>
      <point x="478" y="400"/>
      <point x="205" y="400" type="curve" smooth="yes"/>
      <point x="197" y="400"/>
      <point x="189" y="400"/>
    </contour>
    <contour>
      <point x="300" y="-20" type="curve" smooth="yes"/>
      <point x="465" y="-20"/>
      <point x="550" y="76"/>
      <point x="550" y="186" type="curve" smooth="yes"/>
      <point x="550" y="201" type="line" smooth="yes"/>
      <point x="550" y="237"/>
      <point x="504" y="277"/>
      <point x="458" y="279" type="curve"/>
      <point x="460" y="270"/>
      <point x="461" y="261"/>
      <point x="461" y="250" type="curve" smooth="yes"/>
      <point x="461" y="245" type="line" smooth="yes"/>
      <point x="461" y="180"/>
      <point x="388" y="130"/>
      <point x="279" y="130" type="curve" smooth="yes"/>
      <point x="189" y="130"/>
      <point x="124" y="152"/>
      <point x="59" y="194" type="curve"/>
      <point x="55" y="194" type="line"/>
      <point x="52" y="183"/>
      <point x="50" y="164"/>
      <point x="50" y="142" type="curve" smooth="yes"/>
      <point x="50" y="99"/>
      <point x="66" y="57"/>
      <point x="87" y="36" type="curve" smooth="yes"/>
      <point x="119" y="4"/>
      <point x="188" y="-20"/>
    </contour>
  </outline>
</glyph>
<glyph name="colon" format="1">
  <advance width="300"/>
  <unicode hex="003A"/>
  <outline>
    <contour>
      <point x="254" y="341" type="curve"/>
      <point x="254" y="480" type="line" smooth="yes"/>
      <point x="254" y="543"/>
      <point x="185" y="552"/>
      <point x="124" y="552" type="curve" smooth="yes"/>
      <point x="101" y="552"/>
      <point x="71" y="550"/>
      <point x="46" y="546" type="curve"/>
      <point x="46" y="407" type="line" smooth="yes"/>
      <point x="46" y="344"/>
      <point x="115" y="335"/>
      <point x="176" y="335" type="curve" smooth="yes"/>
      <point x="199" y="335"/>
      <point x="229" y="337"/>
    </contour>
    <contour>
      <point x="254" y="-5" type="curve"/>
      <point x="254" y="134" type="line" smooth="yes"/>
      <point x="254" y="197"/>
      <point x="185" y="206"/>
      <point x="124" y="206" type="curve" smooth="yes"/>
      <point x="101" y="206"/>
      <point x="71" y="204"/>
      <point x="46" y="200" type="curve"/>
      <point x="46" y="61" type="line" smooth="yes"/>
      <point x="46" y="-2"/>
      <point x="115" y="-11"/>
      <point x="176" y="-11" type="curve" smooth="yes"/>
      <point x="199" y="-11"/>
      <point x="229" y="-9"/>
    </contour>
  </outline>
</glyph>
<glyph name="semicolon" format="1">
  <advance width="350"/>
  <unicode hex="003B"/>
  <outline>
    <contour>
      <point x="274" y="339" type="curve"/>
      <point x="274" y="478" type="line" smooth="yes"/>
      <point x="274" y="541"/>
      <point x="205" y="550"/>
      <point x="144" y="550" type="curve" smooth="yes"/>
      <point x="121" y="550"/>
      <point x="91" y="548"/>
      <point x="66" y="544" type="curve"/>
      <point x="66" y="405" type="line" smooth="yes"/>
      <point x="66" y="342"/>
      <point x="135" y="333"/>
      <point x="196" y="333" type="curve" smooth="yes"/>
      <point x="219" y="333"/>
      <point x="249" y="335"/>
    </contour>
    <contour>
      <point x="123" y="-200" type="curve" smooth="yes"/>
      <point x="145" y="-200"/>
      <point x="157" y="-196"/>
      <point x="168" y="-185" type="curve"/>
      <point x="226" y="-127"/>
      <point x="278" y="0"/>
      <point x="278" y="82" type="curve"/>
      <point x="278" y="138"/>
      <point x="243" y="160"/>
      <point x="154" y="160" type="curve" smooth="yes"/>
      <point x="129" y="160"/>
      <point x="112" y="158"/>
      <point x="83" y="153" type="curve"/>
      <point x="83" y="22"/>
      <point x="59" y="-85"/>
      <point x="12" y="-165" type="curve"/>
      <point x="43" y="-190"/>
      <point x="75" y="-200"/>
    </contour>
  </outline>
</glyph>
<glyph name="less" format="1">
  <advance width="600"/>
  <unicode hex="003C"/>
  <outline>
    <contour>
      <point x="533" y="462" type="curve"/>
      <point x="533" y="485" type="line"/>
      <point x="533" y="528"/>
      <point x="507" y="592"/>
      <point x="468" y="592" type="curve" smooth="yes"/>
      <point x="455" y="592"/>
      <point x="427" y="585"/>
      <point x="387" y="568" type="curve" smooth="yes"/>
      <point x="259" y="514"/>
      <point x="131" y="415"/>
      <point x="68" y="329" type="curve"/>
      <point x="68" y="307" type="line"/>
      <point x="68" y="268"/>
      <point x="105" y="260"/>
      <point x="198" y="260" type="curve"/>
      <point x="270" y="350"/>
      <point x="360" y="425"/>
    </contour>
    <contour>
      <point x="522" y="0" type="curve"/>
      <point x="527" y="15"/>
      <point x="529" y="31"/>
      <point x="529" y="55" type="curve" smooth="yes"/>
      <point x="529" y="110"/>
      <point x="517" y="150"/>
      <point x="490" y="159" type="curve" smooth="yes"/>
      <point x="342" y="207"/>
      <point x="253" y="267"/>
      <point x="170" y="362" type="curve" smooth="yes"/>
      <point x="163" y="370"/>
      <point x="161" y="378"/>
      <point x="161" y="382" type="curve" smooth="yes"/>
      <point x="161" y="388"/>
      <point x="161" y="392"/>
      <point x="161" y="398" type="curve"/>
      <point x="94" y="360"/>
      <point x="68" y="328"/>
      <point x="68" y="311" type="curve" smooth="yes"/>
      <point x="68" y="302" type="line" smooth="yes"/>
      <point x="68" y="274"/>
      <point x="72" y="258"/>
      <point x="115" y="217" type="curve" smooth="yes"/>
      <point x="208" y="129"/>
      <point x="330" y="47"/>
    </contour>
  </outline>
</glyph>
<glyph name="greater" format="1">
  <advance width="550"/>
  <unicode hex="003E"/>
  <outline>
    <contour>
      <point x="67" y="139" type="curve"/>
      <point x="67" y="116" type="line"/>
      <point x="67" y="73"/>
      <point x="93" y="9"/>
      <point x="132" y="9" type="curve" smooth="yes"/>
      <point x="145" y="9"/>
      <point x="173" y="16"/>
      <point x="213" y="33" type="curve" smooth="yes"/>
      <point x="341" y="87"/>
      <point x="469" y="186"/>
      <point x="532" y="272" type="curve"/>
      <point x="532" y="294" type="line"/>
      <point x="532" y="333"/>
      <point x="495" y="341"/>
      <point x="402" y="341" type="curve"/>
      <point x="330" y="251"/>
      <point x="240" y="176"/>
    </contour>
    <contour>
      <point x="78" y="601" type="curve"/>
      <point x="73" y="586"/>
      <point x="71" y="570"/>
      <point x="71" y="546" type="curve" smooth="yes"/>
      <point x="71" y="491"/>
      <point x="83" y="451"/>
      <point x="110" y="442" type="curve" smooth="yes"/>
      <point x="258" y="394"/>
      <point x="347" y="334"/>
      <point x="430" y="239" type="curve" smooth="yes"/>
      <point x="437" y="231"/>
      <point x="439" y="223"/>
      <point x="439" y="219" type="curve" smooth="yes"/>
      <point x="439" y="213"/>
      <point x="439" y="209"/>
      <point x="439" y="203" type="curve"/>
      <point x="506" y="241"/>
      <point x="532" y="273"/>
      <point x="532" y="290" type="curve" smooth="yes"/>
      <point x="532" y="299" type="line" smooth="yes"/>
      <point x="532" y="327"/>
      <point x="528" y="343"/>
      <point x="485" y="384" type="curve" smooth="yes"/>
      <point x="392" y="472"/>
      <point x="270" y="554"/>
    </contour>
  </outline>
</glyph>
<glyph name="C" format="1">
  <advance width="600"/>
  <unicode hex="0043"/>
  <outline>
    <contour>
      <point x="363" y="584" type="curve" smooth="yes"/>
      <point x="402" y="584"/>
      <point x="442" y="577"/>
      <point x="467" y="451" type="curve"/>
      <point x="523" y="451"/>
      <point x="535" y="456"/>
      <point x="535" y="472" type="curve" smooth="yes"/>
      <point x="535" y="570"/>
      <point x="517" y="635"/>
      <point x="479" y="673" type="curve" smooth="yes"/>
      <point x="447" y="705"/>
      <point x="405" y="720"/>
      <point x="343" y="720" type="curve" smooth="yes"/>
      <point x="176" y="720"/>
      <point x="56" y="543"/>
      <point x="56" y="294" type="curve" smooth="yes"/>
      <point x="56" y="268" type="line" smooth="yes"/>
      <point x="56" y="203"/>
      <point x="128" y="150"/>
      <point x="218" y="150" type="curve"/>
      <point x="209" y="175"/>
      <point x="202" y="228"/>
      <point x="202" y="278" type="curve" smooth="yes"/>
      <point x="202" y="296" type="line" smooth="yes"/>
      <point x="202" y="456"/>
      <point x="274" y="584"/>
    </contour>
    <contour>
      <point x="332" y="-20" type="curve" smooth="yes"/>
      <point x="410" y="-20"/>
      <point x="480" y="2"/>
      <point x="515" y="37" type="curve" smooth="yes"/>
      <point x="538" y="60"/>
      <point x="550" y="103"/>
      <point x="550" y="162" type="curve" smooth="yes"/>
      <point x="550" y="179"/>
      <point x="548" y="196"/>
      <point x="545" y="218" type="curve"/>
      <point x="541" y="218" type="line"/>
      <point x="487" y="159"/>
      <point x="416" y="130"/>
      <point x="330" y="130" type="curve" smooth="yes"/>
      <point x="232" y="130"/>
      <point x="195" y="188"/>
      <point x="195" y="342" type="curve"/>
      <point x="93" y="343"/>
      <point x="56" y="323"/>
      <point x="56" y="268" type="curve" smooth="yes"/>
      <point x="56" y="90"/>
      <point x="162" y="-20"/>
    </contour>
    <contour>
      <point x="535" y="400" type="curve"/>
      <point x="535" y="472" type="line" smooth="yes"/>
      <point x="535" y="594"/>
      <point x="487" y="645"/>
      <point x="410" y="645" type="curve"/>
      <point x="383" y="567"/>
      <point x="375" y="528"/>
      <point x="375" y="461" type="curve" smooth="yes"/>
      <point x="375" y="456" type="line"/>
      <point x="375" y="438"/>
      <point x="380" y="424"/>
      <point x="389" y="415" type="curve" smooth="yes"/>
      <point x="404" y="400"/>
      <point x="429" y="394"/>
      <point x="477" y="394" type="curve"/>
      <point x="500" y="394"/>
      <point x="520" y="396"/>
    </contour>
    <contour>
      <point x="303" y="711" type="move" name="top"/>
    </contour>
    <contour>
      <point x="328" y="0" type="move" name="bottom"/>
    </contour>
  </outline>
</glyph>
<glyph name="D" format="1">
  <advance width="650"/>
  <unicode hex="0044"/>
  <outline>
    <contour>
      <point x="235" y="40" type="curve"/>
      <point x="235" y="495" type="line" smooth="yes"/>
      <point x="235" y="576"/>
      <point x="183" y="609"/>
      <point x="75" y="609" type="curve"/>
      <point x="75" y="95" type="line" smooth="yes"/>
      <point x="75" y="64"/>
      <point x="146" y="40"/>
    </contour>
    <contour>
      <point x="26" y="700" type="curve"/>
      <point x="22" y="683"/>
      <point x="20" y="666"/>
      <point x="20" y="643" type="curve"/>
      <point x="20" y="600"/>
      <point x="27" y="574"/>
      <point x="41" y="559" type="curve" smooth="yes"/>
      <point x="48" y="552"/>
      <point x="54" y="550"/>
      <point x="64" y="550" type="curve" smooth="yes"/>
      <point x="74" y="550"/>
      <point x="91" y="554"/>
      <point x="129" y="559" type="curve" smooth="yes"/>
      <point x="171" y="565"/>
      <point x="216" y="570"/>
      <point x="282" y="570" type="curve"/>
      <point x="381" y="570"/>
      <point x="424" y="551"/>
      <point x="484" y="492" type="curve"/>
      <point x="584" y="623"/>
      <point x="459" y="720"/>
      <point x="298" y="720" type="curve" smooth="yes"/>
      <point x="207" y="720"/>
      <point x="112" y="714"/>
    </contour>
    <contour>
      <point x="600" y="403" type="curve" smooth="yes"/>
      <point x="600" y="408" type="line" smooth="yes"/>
      <point x="600" y="609"/>
      <point x="488" y="720"/>
      <point x="298" y="720" type="curve" smooth="yes"/>
      <point x="272" y="720"/>
      <point x="224" y="702"/>
      <point x="224" y="645" type="curve"/>
      <point x="399" y="626"/>
      <point x="442" y="570"/>
      <point x="442" y="403" type="curve" smooth="yes"/>
      <point x="442" y="393" type="line" smooth="yes"/>
      <point x="442" y="234"/>
      <point x="354" y="145"/>
      <point x="246" y="145" type="curve" smooth="yes"/>
      <point x="176" y="145"/>
      <point x="158" y="148"/>
      <point x="103" y="173" type="curve"/>
      <point x="83" y="157"/>
      <point x="75" y="135"/>
      <point x="75" y="95" type="curve" smooth="yes"/>
      <point x="75" y="50"/>
      <point x="175" y="-10"/>
      <point x="248" y="-10" type="curve" smooth="yes"/>
      <point x="252" y="-10" type="line" smooth="yes"/>
      <point x="450" y="-10"/>
      <point x="600" y="147"/>
    </contour>
    <contour>
      <point x="310" y="711" type="move" name="top"/>
    </contour>
  </outline>
</glyph>
<glyph name="I" format="1">
  <advance width="500"/>
  <unicode hex="0049"/>
  <outline>
    <contour>
      <point x="330" y="86" type="curve"/>
      <point x="330" y="477" type="line" smooth="yes"/>
      <point x="330" y="558"/>
      <point x="292" y="584"/>
      <point x="170" y="584" type="curve"/>
      <point x="170" y="228" type="line" smooth="yes"/>
      <point x="170" y="130"/>
      <point x="208" y="86"/>
    </contour>
    <contour>
      <point x="46" y="700" type="line"/>
      <point x="43" y="691"/>
      <point x="41" y="679"/>
      <point x="41" y="664" type="curve"/>
      <point x="41" y="626"/>
      <point x="50" y="597"/>
      <point x="70" y="577" type="curve" smooth="yes"/>
      <point x="92" y="555"/>
      <point x="122" y="550"/>
      <point x="195" y="550" type="curve" smooth="yes"/>
      <point x="454" y="550" type="line"/>
      <point x="459" y="570"/>
      <point x="461" y="590"/>
      <point x="461" y="608" type="curve" smooth="yes"/>
      <point x="461" y="659"/>
      <point x="453" y="700"/>
      <point x="399" y="700" type="curve" smooth="yes"/>
    </contour>
    <contour>
      <point x="48" y="150" type="line"/>
      <point x="43" y="134"/>
      <point x="41" y="116"/>
      <point x="41" y="97" type="curve"/>
      <point x="41" y="67"/>
      <point x="45" y="36"/>
      <point x="63" y="18" type="curve" smooth="yes"/>
      <point x="77" y="4"/>
      <point x="89" y="0"/>
      <point x="129" y="0" type="curve" smooth="yes"/>
      <point x="454" y="0" type="line"/>
      <point x="458" y="15"/>
      <point x="461" y="35"/>
      <point x="461" y="58" type="curve" smooth="yes"/>
      <point x="461" y="109"/>
      <point x="453" y="150"/>
      <point x="399" y="150" type="curve" smooth="yes"/>
    </contour>
    <contour>
      <point x="251" y="711" type="move" name="top"/>
    </contour>
    <contour>
      <point x="455" y="0" type="move" name="ogonek"/>
    </contour>
    <contour>
      <point x="251" y="-1" type="move" name="bottom"/>
    </contour>
  </outline>
</glyph>
<glyph name="J" format="1">
  <advance width="500"/>
  <unicode hex="004A"/>
  <outline>
    <contour>
      <point x="76" y="700" type="line"/>
      <point x="73" y="691"/>
      <point x="71" y="679"/>
      <point x="71" y="664" type="curve" smooth="yes"/>
      <point x="71" y="626"/>
      <point x="80" y="597"/>
      <point x="100" y="577" type="curve" smooth="yes"/>
      <point x="121" y="556"/>
      <point x="148" y="550"/>
      <point x="215" y="550" type="curve" smooth="yes"/>
      <point x="383" y="550" type="line"/>
      <point x="383" y="660"/>
      <point x="357" y="700"/>
      <point x="308" y="700" type="curve"/>
    </contour>
    <contour>
      <point x="455" y="220" type="curve" smooth="yes"/>
      <point x="455" y="650" type="line" smooth="yes"/>
      <point x="455" y="679"/>
      <point x="419" y="700"/>
      <point x="330" y="700" type="curve" smooth="yes"/>
      <point x="296" y="700" type="line"/>
      <point x="296" y="230" type="line" smooth="yes"/>
      <point x="296" y="144"/>
      <point x="285" y="105"/>
      <point x="246" y="63" type="curve"/>
      <point x="338" y="20"/>
      <point x="455" y="114"/>
    </contour>
    <contour>
      <point x="225" y="130" type="curve" smooth="yes"/>
      <point x="148" y="130"/>
      <point x="118" y="150"/>
      <point x="48" y="185" type="curve"/>
      <point x="44" y="185" type="line"/>
      <point x="41" y="169"/>
      <point x="40" y="154"/>
      <point x="40" y="138" type="curve"/>
      <point x="40" y="70"/>
      <point x="58" y="36"/>
      <point x="73" y="21" type="curve" smooth="yes"/>
      <point x="99" y="-5"/>
      <point x="153" y="-20"/>
      <point x="200" y="-20" type="curve" smooth="yes"/>
      <point x="210" y="-20" type="line" smooth="yes"/>
      <point x="364" y="-20"/>
      <point x="455" y="115"/>
      <point x="455" y="220" type="curve"/>
      <point x="455" y="252"/>
      <point x="434" y="280"/>
      <point x="351" y="315" type="curve"/>
      <point x="351" y="194"/>
      <point x="325" y="130"/>
    </contour>
    <contour>
      <point x="262" y="711" type="move" name="top"/>
    </contour>
  </outline>
</glyph>
<glyph name="M" format="1">
  <advance width="800"/>
  <unicode hex="004D"/>
  <outline>
    <contour>
      <point x="205" y="-7" type="curve"/>
      <point x="199" y="49"/>
      <point x="197" y="103"/>
      <point x="197" y="158" type="curve" smooth="yes"/>
      <point x="197" y="315"/>
      <point x="218" y="469"/>
      <point x="249" y="629" type="curve" smooth="yes"/>
      <point x="254" y="654"/>
      <point x="247" y="677"/>
      <point x="236" y="688" type="curve" smooth="yes"/>
      <point x="220" y="704"/>
      <point x="195" y="710"/>
      <point x="145" y="710" type="curve" smooth="yes"/>
      <point x="120" y="710"/>
      <point x="101" y="708"/>
      <point x="78" y="703" type="curve"/>
      <point x="87" y="667"/>
      <point x="90" y="633"/>
      <point x="85" y="593" type="curve" smooth="yes"/>
      <point x="65" y="414"/>
      <point x="45" y="234"/>
      <point x="45" y="57" type="curve" smooth="yes"/>
      <point x="45" y="41"/>
      <point x="50" y="28"/>
      <point x="60" y="18" type="curve" smooth="yes"/>
      <point x="79" y="-1"/>
      <point x="115" y="-10"/>
      <point x="168" y="-10" type="curve" smooth="yes"/>
      <point x="185" y="-10"/>
      <point x="197" y="-9"/>
    </contour>
    <contour>
      <point x="769" y="-3" type="curve"/>
      <point x="760" y="33"/>
      <point x="756" y="70"/>
      <point x="756" y="110" type="curve" smooth="yes"/>
      <point x="756" y="287"/>
      <point x="736" y="468"/>
      <point x="710" y="643" type="curve"/>
      <point x="708" y="657"/>
      <point x="703" y="668"/>
      <point x="693" y="678" type="curve" smooth="yes"/>
      <point x="672" y="699"/>
      <point x="620" y="710"/>
      <point x="553" y="710" type="curve" smooth="yes"/>
      <point x="550" y="710" type="line"/>
      <point x="556" y="679"/>
      <point x="559" y="647"/>
      <point x="564" y="614" type="curve"/>
      <point x="586" y="482"/>
      <point x="600" y="330"/>
      <point x="600" y="186" type="curve" smooth="yes"/>
      <point x="600" y="143"/>
      <point x="599" y="101"/>
      <point x="596" y="60" type="curve" smooth="yes"/>
      <point x="595" y="35"/>
      <point x="600" y="23"/>
      <point x="611" y="12" type="curve" smooth="yes"/>
      <point x="627" y="-4"/>
      <point x="652" y="-10"/>
      <point x="702" y="-10" type="curve" smooth="yes"/>
      <point x="727" y="-10"/>
      <point x="746" y="-8"/>
    </contour>
    <contour>
      <point x="321" y="659" type="curve" smooth="yes"/>
      <point x="316" y="688"/>
      <point x="259" y="710"/>
      <point x="156" y="710" type="curve"/>
      <point x="145" y="710" type="line"/>
      <point x="176" y="675"/>
      <point x="204" y="624"/>
      <point x="208" y="598" type="curve" smooth="yes"/>
      <point x="243" y="306"/>
      <point x="327" y="155"/>
      <point x="344" y="138" type="curve"/>
      <point x="365" y="117"/>
      <point x="375" y="112"/>
      <point x="401" y="112" type="curve" smooth="yes"/>
      <point x="435" y="112"/>
      <point x="464" y="134"/>
      <point x="464" y="192" type="curve"/>
      <point x="389" y="339"/>
      <point x="362" y="441"/>
    </contour>
    <contour>
      <point x="495" y="703" type="curve"/>
      <point x="458" y="473"/>
      <point x="409" y="349"/>
      <point x="346" y="226" type="curve"/>
      <point x="327" y="191"/>
      <point x="359" y="112"/>
      <point x="401" y="112" type="curve"/>
      <point x="442" y="112" type="line"/>
      <point x="527" y="263"/>
      <point x="604" y="535"/>
      <point x="604" y="657" type="curve" smooth="yes"/>
      <point x="604" y="690"/>
      <point x="586" y="710"/>
      <point x="550" y="710" type="curve" smooth="yes"/>
      <point x="529" y="710"/>
      <point x="516" y="708"/>
    </contour>
  </outline>
</glyph>
<glyph name="O" format="1">
  <advance width="650"/>
  <unicode hex="004F"/>
  <outline>
    <contour>
      <point x="320" y="720" type="curve" smooth="yes"/>
      <point x="149" y="720"/>
      <point x="50" y="583"/>
      <point x="50" y="342" type="curve" smooth="yes"/>
      <point x="50" y="326" type="line" smooth="yes"/>
      <point x="50" y="103"/>
      <point x="148" y="-20"/>
      <point x="329" y="-20" type="curve" smooth="yes"/>
      <point x="374" y="-20"/>
      <point x="404" y="28"/>
      <point x="404" y="98" type="curve"/>
      <point x="252" y="98"/>
      <point x="200" y="171"/>
      <point x="200" y="309" type="curve" smooth="yes"/>
      <point x="200" y="322" type="line" smooth="yes"/>
      <point x="200" y="502"/>
      <point x="238" y="571"/>
      <point x="323" y="571" type="curve" smooth="yes"/>
      <point x="380" y="571"/>
      <point x="409" y="560"/>
      <point x="447" y="535" type="curve"/>
      <point x="499" y="583"/>
      <point x="405" y="720"/>
    </contour>
    <contour>
      <point x="329" y="-20" type="curve" smooth="yes"/>
      <point x="500" y="-20"/>
      <point x="600" y="117"/>
      <point x="600" y="358" type="curve" smooth="yes"/>
      <point x="600" y="374" type="line" smooth="yes"/>
      <point x="600" y="597"/>
      <point x="501" y="720"/>
      <point x="320" y="720" type="curve" smooth="yes"/>
      <point x="275" y="720"/>
      <point x="245" y="672"/>
      <point x="245" y="602" type="curve"/>
      <point x="398" y="602"/>
      <point x="450" y="529"/>
      <point x="450" y="391" type="curve" smooth="yes"/>
      <point x="450" y="378" type="line" smooth="yes"/>
      <point x="450" y="198"/>
      <point x="411" y="129"/>
      <point x="326" y="129" type="curve" smooth="yes"/>
      <point x="269" y="129"/>
      <point x="240" y="140"/>
      <point x="202" y="165" type="curve"/>
      <point x="150" y="117"/>
      <point x="244" y="-20"/>
    </contour>
    <contour>
      <point x="325" y="711" type="move" name="top"/>
    </contour>
    <contour>
      <point x="428" y="4" type="move" name="ogonek"/>
    </contour>
    <contour>
      <point x="325" y="-1" type="move" name="bottom"/>
    </contour>
  </outline>
</glyph>
<glyph name="Q" format="1">
  <advance width="650"/>
  <unicode hex="0051"/>
  <outline>
    <contour>
      <point x="320" y="720" type="curve" smooth="yes"/>
      <point x="149" y="720"/>
      <point x="50" y="583"/>
      <point x="50" y="342" type="curve" smooth="yes"/>
      <point x="50" y="326" type="line" smooth="yes"/>
      <point x="50" y="103"/>
      <point x="148" y="-20"/>
      <point x="329" y="-20" type="curve" smooth="yes"/>
      <point x="374" y="-20"/>
      <point x="404" y="28"/>
      <point x="404" y="98" type="curve"/>
      <point x="252" y="98"/>
      <point x="200" y="171"/>
      <point x="200" y="309" type="curve" smooth="yes"/>
      <point x="200" y="322" type="line" smooth="yes"/>
      <point x="200" y="502"/>
      <point x="238" y="571"/>
      <point x="323" y="571" type="curve" smooth="yes"/>
      <point x="380" y="571"/>
      <point x="409" y="560"/>
      <point x="447" y="535" type="curve"/>
      <point x="499" y="583"/>
      <point x="405" y="720"/>
    </contour>
    <contour>
      <point x="329" y="-20" type="curve" smooth="yes"/>
      <point x="500" y="-20"/>
      <point x="600" y="117"/>
      <point x="600" y="358" type="curve" smooth="yes"/>
      <point x="600" y="374" type="line" smooth="yes"/>
      <point x="600" y="597"/>
      <point x="501" y="720"/>
      <point x="320" y="720" type="curve" smooth="yes"/>
      <point x="275" y="720"/>
      <point x="245" y="672"/>
      <point x="245" y="602" type="curve"/>
      <point x="398" y="602"/>
      <point x="450" y="529"/>
      <point x="450" y="391" type="curve" smooth="yes"/>
      <point x="450" y="378" type="line" smooth="yes"/>
      <point x="450" y="198"/>
      <point x="411" y="129"/>
      <point x="326" y="129" type="curve" smooth="yes"/>
      <point x="269" y="129"/>
      <point x="240" y="140"/>
      <point x="202" y="165" type="curve"/>
      <point x="150" y="117"/>
      <point x="244" y="-20"/>
    </contour>
    <contour>
      <point x="459" y="147" type="line"/>
      <point x="365" y="97"/>
      <point x="349" y="66"/>
      <point x="365" y="35" type="curve" smooth="yes"/>
      <point x="424" y="-77" type="line" smooth="yes"/>
      <point x="461" y="-147"/>
      <point x="501" y="-186"/>
      <point x="554" y="-186" type="curve" smooth="yes"/>
      <point x="559" y="-186" type="line" smooth="yes"/>
      <point x="608" y="-186"/>
      <point x="639" y="-150"/>
      <point x="639" y="-72" type="curve" smooth="yes"/>
      <point x="639" y="-40"/>
      <point x="636" y="-20"/>
      <point x="631" y="1" type="curve"/>
      <point x="627" y="1" type="line"/>
      <point x="615" y="-6"/>
      <point x="607" y="-8"/>
      <point x="590" y="-8" type="curve" smooth="yes"/>
      <point x="555" y="-8"/>
      <point x="541" y="3"/>
      <point x="525" y="31" type="curve" smooth="yes"/>
    </contour>
  </outline>
</glyph>
<glyph name="T" format="1">
  <advance width="600"/>
  <unicode hex="0054"/>
  <outline>
    <contour>
      <point x="32" y="700" type="line"/>
      <point x="29" y="691"/>
      <point x="28" y="679"/>
      <point x="28" y="668" type="curve" smooth="yes"/>
      <point x="28" y="639"/>
      <point x="36" y="598"/>
      <point x="57" y="577" type="curve" smooth="yes"/>
      <point x="79" y="555"/>
      <point x="113" y="550"/>
      <point x="195" y="550" type="curve" smooth="yes"/>
      <point x="558" y="550" type="line"/>
      <point x="562" y="565"/>
      <point x="564" y="585"/>
      <point x="564" y="608" type="curve" smooth="yes"/>
      <point x="564" y="659"/>
      <point x="556" y="700"/>
      <point x="502" y="700" type="curve" smooth="yes"/>
    </contour>
    <contour>
      <point x="393" y="-3" type="curve"/>
      <point x="384" y="33"/>
      <point x="380" y="70"/>
      <point x="380" y="110" type="curve" smooth="yes"/>
      <point x="380" y="477" type="line" smooth="yes"/>
      <point x="380" y="558"/>
      <point x="341" y="584"/>
      <point x="220" y="584" type="curve"/>
      <point x="220" y="60" type="line" smooth="yes"/>
      <point x="220" y="35"/>
      <point x="224" y="23"/>
      <point x="235" y="12" type="curve" smooth="yes"/>
      <point x="251" y="-4"/>
      <point x="276" y="-10"/>
      <point x="326" y="-10" type="curve" smooth="yes"/>
      <point x="351" y="-10"/>
      <point x="370" y="-8"/>
    </contour>
    <contour>
      <point x="296" y="711" type="move" name="top"/>
    </contour>
    <contour>
      <point x="300" y="-1" type="move" name="bottom"/>
    </contour>
  </outline>
</glyph>
<glyph name="V" format="1">
  <advance width="650"/>
  <unicode hex="0056"/>
  <outline>
    <contour>
      <point x="73" y="710" type="curve"/>
      <point x="49" y="710" type="line"/>
      <point x="60" y="366"/>
      <point x="124" y="154"/>
      <point x="241" y="37" type="curve"/>
      <point x="283" y="-5"/>
      <point x="317" y="-10"/>
      <point x="346" y="-10" type="curve"/>
      <point x="388" y="-10"/>
      <point x="414" y="14"/>
      <point x="432" y="77" type="curve"/>
      <point x="429" y="77"/>
      <point x="427" y="77"/>
      <point x="425" y="77" type="curve" smooth="yes"/>
      <point x="417" y="77"/>
      <point x="411" y="79"/>
      <point x="398" y="88" type="curve"/>
      <point x="281" y="170"/>
      <point x="227" y="279"/>
      <point x="209" y="660" type="curve"/>
      <point x="208" y="688"/>
      <point x="138" y="710"/>
    </contour>
    <contour>
      <point x="470" y="710" type="curve"/>
      <point x="446" y="710" type="line"/>
      <point x="423" y="333"/>
      <point x="393" y="205"/>
      <point x="283" y="114" type="curve"/>
      <point x="256" y="92"/>
      <point x="286" y="-10"/>
      <point x="346" y="-10" type="curve"/>
      <point x="386" y="-10" type="line"/>
      <point x="511" y="95"/>
      <point x="584" y="325"/>
      <point x="600" y="636" type="curve"/>
      <point x="602" y="679"/>
      <point x="535" y="710"/>
    </contour>
  </outline>
</glyph>
<glyph name="bracketleft" format="1">
  <advance width="400"/>
  <unicode hex="005B"/>
  <outline>
    <contour>
      <point x="48" y="640" type="curve" smooth="yes"/>
      <point x="48" y="-14" type="line" smooth="yes"/>
      <point x="48" y="-68"/>
      <point x="138" y="-78"/>
      <point x="208" y="-78" type="curve"/>
      <point x="208" y="690" type="line" smooth="yes"/>
      <point x="208" y="751"/>
      <point x="186" y="760"/>
      <point x="102" y="760" type="curve" smooth="yes"/>
      <point x="78" y="760"/>
      <point x="58" y="758"/>
      <point x="36" y="753" type="curve"/>
      <point x="44" y="717"/>
      <point x="48" y="680"/>
    </contour>
    <contour>
      <point x="356" y="610" type="line"/>
      <point x="362" y="624"/>
      <point x="364" y="643"/>
      <point x="364" y="664" type="curve" smooth="yes"/>
      <point x="364" y="685"/>
      <point x="358" y="729"/>
      <point x="340" y="748" type="curve" smooth="yes"/>
      <point x="330" y="758"/>
      <point x="322" y="760"/>
      <point x="306" y="760" type="curve" smooth="yes"/>
      <point x="102" y="760" type="line"/>
      <point x="102" y="659"/>
      <point x="156" y="610"/>
      <point x="272" y="610" type="curve"/>
    </contour>
    <contour>
      <point x="358" y="-161" type="line"/>
      <point x="362" y="-146"/>
      <point x="364" y="-126"/>
      <point x="364" y="-103" type="curve" smooth="yes"/>
      <point x="364" y="-37"/>
      <point x="346" y="-11"/>
      <point x="302" y="-11" type="curve" smooth="yes"/>
      <point x="48" y="-11" type="line"/>
      <point x="48" y="-29" type="line" smooth="yes"/>
      <point x="48" y="-88"/>
      <point x="108" y="-161"/>
      <point x="156" y="-161" type="curve" smooth="yes"/>
    </contour>
  </outline>
</glyph>
<glyph name="bracketright" format="1">
  <advance width="400"/>
  <unicode hex="005D"/>
  <outline>
    <contour>
      <point x="352" y="-41" type="curve" smooth="yes"/>
      <point x="352" y="613" type="line" smooth="yes"/>
      <point x="352" y="667"/>
      <point x="262" y="677"/>
      <point x="192" y="677" type="curve"/>
      <point x="192" y="-91" type="line" smooth="yes"/>
      <point x="192" y="-152"/>
      <point x="214" y="-161"/>
      <point x="298" y="-161" type="curve" smooth="yes"/>
      <point x="322" y="-161"/>
      <point x="342" y="-159"/>
      <point x="364" y="-154" type="curve"/>
      <point x="356" y="-118"/>
      <point x="352" y="-81"/>
    </contour>
    <contour>
      <point x="44" y="-11" type="line"/>
      <point x="38" y="-25"/>
      <point x="36" y="-44"/>
      <point x="36" y="-65" type="curve" smooth="yes"/>
      <point x="36" y="-86"/>
      <point x="42" y="-130"/>
      <point x="60" y="-149" type="curve" smooth="yes"/>
      <point x="70" y="-159"/>
      <point x="78" y="-161"/>
      <point x="94" y="-161" type="curve" smooth="yes"/>
      <point x="298" y="-161" type="line"/>
      <point x="298" y="-60"/>
      <point x="244" y="-11"/>
      <point x="128" y="-11" type="curve"/>
    </contour>
    <contour>
      <point x="42" y="760" type="line"/>
      <point x="38" y="745"/>
      <point x="36" y="725"/>
      <point x="36" y="702" type="curve" smooth="yes"/>
      <point x="36" y="636"/>
      <point x="54" y="610"/>
      <point x="98" y="610" type="curve" smooth="yes"/>
      <point x="352" y="610" type="line"/>
      <point x="352" y="628" type="line" smooth="yes"/>
      <point x="352" y="687"/>
      <point x="292" y="760"/>
      <point x="244" y="760" type="curve" smooth="yes"/>
    </contour>
  </outline>
</glyph>
<glyph name="asciicircum" format="1">
  <advance width="600"/>
  <unicode hex="005E"/>
  <outline>
    <contour>
      <point x="176" y="355" type="line"/>
      <point x="202" y="489"/>
      <point x="265" y="574"/>
      <point x="348" y="653" type="curve"/>
      <point x="348" y="732"/>
      <point x="328" y="760"/>
      <point x="295" y="760" type="curve"/>
      <point x="265" y="760" type="line"/>
      <point x="192" y="706"/>
      <point x="104" y="588"/>
      <point x="58" y="479" type="curve" smooth="yes"/>
      <point x="43" y="445"/>
      <point x="37" y="421"/>
      <point x="37" y="410" type="curve" smooth="yes"/>
      <point x="37" y="377"/>
      <point x="99" y="355"/>
      <point x="156" y="355" type="curve"/>
    </contour>
    <contour>
      <point x="563" y="368" type="curve"/>
      <point x="518" y="522"/>
      <point x="456" y="630"/>
      <point x="374" y="717" type="curve" smooth="yes"/>
      <point x="336" y="757"/>
      <point x="323" y="760"/>
      <point x="299" y="760" type="curve" smooth="yes"/>
      <point x="291" y="760" type="line" smooth="yes"/>
      <point x="273" y="760"/>
      <point x="228" y="699"/>
      <point x="215" y="658" type="curve"/>
      <point x="220" y="658"/>
      <point x="224" y="658"/>
      <point x="229" y="658" type="curve" smooth="yes"/>
      <point x="232" y="658"/>
      <point x="239" y="656"/>
      <point x="245" y="650" type="curve" smooth="yes"/>
      <point x="319" y="583"/>
      <point x="361" y="517"/>
      <point x="399" y="400" type="curve" smooth="yes"/>
      <point x="407" y="378"/>
      <point x="439" y="358"/>
      <point x="499" y="358" type="curve" smooth="yes"/>
      <point x="524" y="358"/>
      <point x="542" y="360"/>
    </contour>
  </outline>
</glyph>
<glyph name="d" format="1">
  <advance width="600"/>
  <unicode hex="0064"/>
  <outline>
    <contour>
      <point x="250" y="552" type="curve" smooth="yes"/>
      <point x="151" y="552"/>
      <point x="40" y="455"/>
      <point x="40" y="218" type="curve" smooth="yes"/>
      <point x="40" y="196" type="line" smooth="yes"/>
      <point x="40" y="144"/>
      <point x="82" y="66"/>
      <point x="169" y="66" type="curve" smooth="yes"/>
      <point x="196" y="66"/>
      <point x="218" y="82"/>
      <point x="218" y="127" type="curve"/>
      <point x="200" y="145"/>
      <point x="195" y="162"/>
      <point x="195" y="230" type="curve" smooth="yes"/>
      <point x="195" y="241" type="line" smooth="yes"/>
      <point x="195" y="349"/>
      <point x="231" y="408"/>
      <point x="305" y="408" type="curve" smooth="yes"/>
      <point x="348" y="408"/>
      <point x="378" y="394"/>
      <point x="402" y="368" type="curve"/>
      <point x="415" y="398"/>
      <point x="417" y="446"/>
      <point x="395" y="478" type="curve" smooth="yes"/>
      <point x="370" y="514"/>
      <point x="318" y="552"/>
    </contour>
    <contour>
      <point x="195" y="-12" type="curve" smooth="yes"/>
      <point x="288" y="-12"/>
      <point x="384" y="79"/>
      <point x="408" y="177" type="curve" smooth="yes"/>
      <point x="420" y="226"/>
      <point x="414" y="296"/>
      <point x="396" y="334" type="curve"/>
      <point x="355" y="197"/>
      <point x="295" y="149"/>
      <point x="214" y="149" type="curve" smooth="yes"/>
      <point x="190" y="149"/>
      <point x="152" y="163"/>
      <point x="88" y="221" type="curve"/>
      <point x="55" y="217"/>
      <point x="40" y="206"/>
      <point x="40" y="196" type="curve" smooth="yes"/>
      <point x="40" y="84"/>
      <point x="117" y="-12"/>
    </contour>
    <contour>
      <point x="374" y="750" type="curve"/>
      <point x="382" y="714"/>
      <point x="385" y="684"/>
      <point x="385" y="646" type="curve" smooth="yes"/>
      <point x="385" y="213" type="line"/>
      <point x="385" y="119"/>
      <point x="412" y="54"/>
      <point x="441" y="25" type="curve" smooth="yes"/>
      <point x="461" y="5"/>
      <point x="485" y="-4"/>
      <point x="510" y="-4" type="curve" smooth="yes"/>
      <point x="524" y="-4"/>
      <point x="534" y="-3"/>
      <point x="548" y="0" type="curve"/>
      <point x="539" y="36"/>
      <point x="535" y="67"/>
      <point x="535" y="106" type="curve" smooth="yes"/>
      <point x="535" y="694" type="line"/>
      <point x="535" y="711"/>
      <point x="530" y="724"/>
      <point x="521" y="733" type="curve" smooth="yes"/>
      <point x="502" y="752"/>
      <point x="476" y="756"/>
      <point x="437" y="756" type="curve" smooth="yes"/>
      <point x="414" y="756"/>
      <point x="392" y="754"/>
    </contour>
    <contour>
      <point x="444" y="711" type="move" name="caronslovak"/>
    </contour>
  </outline>
</glyph>
<glyph name="f" format="1">
  <advance width="400"/>
  <unicode hex="0066"/>
  <outline>
    <contour>
      <point x="255" y="0" type="curve"/>
      <point x="248" y="33"/>
      <point x="245" y="67"/>
      <point x="245" y="102" type="curve" smooth="yes"/>
      <point x="245" y="540" type="line" smooth="yes"/>
      <point x="232" y="576"/>
      <point x="226" y="615"/>
      <point x="226" y="661" type="curve" smooth="yes"/>
      <point x="226" y="699"/>
      <point x="251" y="726"/>
      <point x="302" y="724" type="curve"/>
      <point x="302" y="748"/>
      <point x="293" y="770"/>
      <point x="265" y="770" type="curve" smooth="yes"/>
      <point x="160" y="770"/>
      <point x="85" y="695"/>
      <point x="85" y="588" type="curve" smooth="yes"/>
      <point x="85" y="56" type="line" smooth="yes"/>
      <point x="85" y="11"/>
      <point x="125" y="-6"/>
      <point x="199" y="-6" type="curve" smooth="yes"/>
      <point x="217" y="-6"/>
      <point x="239" y="-4"/>
    </contour>
    <contour>
      <point x="153" y="607" type="curve"/>
      <point x="184" y="626"/>
      <point x="219" y="635"/>
      <point x="264" y="635" type="curve" smooth="yes"/>
      <point x="305" y="635"/>
      <point x="348" y="626"/>
      <point x="384" y="612" type="curve"/>
      <point x="388" y="612" type="line"/>
      <point x="392" y="627"/>
      <point x="393" y="644"/>
      <point x="393" y="660" type="curve"/>
      <point x="393" y="701"/>
      <point x="388" y="725"/>
      <point x="367" y="746" type="curve" smooth="yes"/>
      <point x="353" y="760"/>
      <point x="321" y="770"/>
      <point x="265" y="770" type="curve" smooth="yes"/>
      <point x="163" y="770"/>
      <point x="108" y="681"/>
    </contour>
    <contour>
      <point x="15" y="540" type="curve"/>
      <point x="15" y="534"/>
      <point x="15" y="528"/>
      <point x="15" y="521" type="curve" smooth="yes"/>
      <point x="15" y="470"/>
      <point x="24" y="440"/>
      <point x="42" y="422" type="curve" smooth="yes"/>
      <point x="64" y="400"/>
      <point x="84" y="390"/>
      <point x="151" y="390" type="curve" smooth="yes"/>
      <point x="245" y="390"/>
      <point x="284" y="390"/>
      <point x="360" y="390" type="curve"/>
      <point x="364" y="407"/>
      <point x="367" y="430"/>
      <point x="367" y="453" type="curve" smooth="yes"/>
      <point x="367" y="519"/>
      <point x="350" y="540"/>
      <point x="294" y="540" type="curve" smooth="yes"/>
      <point x="252" y="540"/>
      <point x="117" y="540"/>
    </contour>
  </outline>
</glyph>
<glyph name="i" format="1">
  <advance width="350"/>
  <unicode hex="0069"/>
  <outline>
    <contour>
      <point x="26" y="546" type="curve"/>
      <point x="22" y="531"/>
      <point x="20" y="511"/>
      <point x="20" y="488" type="curve" smooth="yes"/>
      <point x="20" y="421"/>
      <point x="40" y="396"/>
      <point x="63" y="396" type="curve" smooth="yes"/>
      <point x="86" y="396"/>
      <point x="104" y="408"/>
      <point x="158" y="408" type="curve"/>
      <point x="158" y="483"/>
      <point x="164" y="550"/>
      <point x="115" y="550" type="curve" smooth="yes"/>
      <point x="85" y="550"/>
      <point x="55" y="550"/>
    </contour>
    <contour>
      <point x="275" y="0" type="curve"/>
      <point x="268" y="33"/>
      <point x="265" y="67"/>
      <point x="265" y="102" type="curve" smooth="yes"/>
      <point x="265" y="495" type="line" smooth="yes"/>
      <point x="265" y="538"/>
      <point x="220" y="550"/>
      <point x="125" y="550" type="curve" smooth="yes"/>
      <point x="115" y="550" type="line"/>
      <point x="115" y="56" type="line" smooth="yes"/>
      <point x="115" y="11"/>
      <point x="148" y="-6"/>
      <point x="222" y="-6" type="curve" smooth="yes"/>
      <point x="241" y="-6"/>
      <point x="258" y="-4"/>
    </contour>
    <contour>
      <point x="278" y="625" type="curve"/>
      <point x="278" y="708" type="line" smooth="yes"/>
      <point x="278" y="762"/>
      <point x="233" y="770"/>
      <point x="176" y="770" type="curve" smooth="yes"/>
      <point x="153" y="770"/>
      <point x="123" y="768"/>
      <point x="98" y="764" type="curve"/>
      <point x="98" y="681" type="line" smooth="yes"/>
      <point x="98" y="627"/>
      <point x="143" y="619"/>
      <point x="200" y="619" type="curve" smooth="yes"/>
      <point x="223" y="619"/>
      <point x="253" y="621"/>
    </contour>
    <contour>
      <point x="276" y="0" type="move" name="ogonek"/>
    </contour>
    <contour>
      <point x="196" y="-1" type="move" name="bottom"/>
    </contour>
  </outline>
</glyph>
<glyph name="l" format="1">
  <advance width="300"/>
  <unicode hex="006C"/>
  <outline>
    <contour>
      <point x="55" y="644" type="curve"/>
      <point x="55" y="139" type="line" smooth="yes"/>
      <point x="55" y="70"/>
      <point x="152" y="5"/>
      <point x="210" y="20" type="curve"/>
      <point x="210" y="75"/>
      <point x="210" y="131"/>
      <point x="210" y="186" type="curve" smooth="yes"/>
      <point x="210" y="637" type="line" smooth="yes"/>
      <point x="210" y="687"/>
      <point x="207" y="702"/>
      <point x="185" y="724" type="curve" smooth="yes"/>
      <point x="162" y="747"/>
      <point x="131" y="754"/>
      <point x="84" y="754" type="curve" smooth="yes"/>
      <point x="70" y="754"/>
      <point x="56" y="753"/>
      <point x="42" y="750" type="curve"/>
      <point x="51" y="714"/>
      <point x="55" y="683"/>
    </contour>
    <contour>
      <point x="280" y="151" type="curve"/>
      <point x="276" y="151" type="line"/>
      <point x="261" y="143"/>
      <point x="248" y="140"/>
      <point x="228" y="140" type="curve" smooth="yes"/>
      <point x="193" y="140"/>
      <point x="177" y="150"/>
      <point x="158" y="191" type="curve"/>
      <point x="81" y="191"/>
      <point x="55" y="160"/>
      <point x="55" y="139" type="curve" smooth="yes"/>
      <point x="55" y="52"/>
      <point x="126" y="-10"/>
      <point x="191" y="-10" type="curve" smooth="yes"/>
      <point x="199" y="-10" type="line" smooth="yes"/>
      <point x="230" y="-10"/>
      <point x="247" y="-5"/>
      <point x="261" y="9" type="curve" smooth="yes"/>
      <point x="274" y="22"/>
      <point x="285" y="42"/>
      <point x="285" y="103" type="curve" smooth="yes"/>
      <point x="285" y="118"/>
      <point x="284" y="137"/>
    </contour>
    <contour>
      <point x="313" y="711" type="move" name="caronslovak"/>
    </contour>
    <contour>
      <point x="130" y="745" type="move" name="top"/>
    </contour>
    <contour>
      <point x="313" y="400" type="move" name="dot"/>
    </contour>
    <contour>
      <point x="163" y="-1" type="move" name="bottom"/>
    </contour>
  </outline>
</glyph>
<glyph name="s" format="1">
  <advance width="550"/>
  <unicode hex="0073"/>
  <outline>
    <contour>
      <point x="345" y="552" type="curve" smooth="yes"/>
      <point x="333" y="552" type="line" smooth="yes"/>
      <point x="182" y="552"/>
      <point x="75" y="487"/>
      <point x="75" y="374" type="curve" smooth="yes"/>
      <point x="75" y="330"/>
      <point x="144" y="300"/>
      <point x="240" y="300" type="curve"/>
      <point x="227" y="330"/>
      <point x="225" y="348"/>
      <point x="225" y="369" type="curve" smooth="yes"/>
      <point x="225" y="388"/>
      <point x="256" y="402"/>
      <point x="336" y="402" type="curve" smooth="yes"/>
      <point x="399" y="402"/>
      <point x="432" y="390"/>
      <point x="472" y="372" type="curve"/>
      <point x="476" y="372" type="line"/>
      <point x="479" y="385"/>
      <point x="481" y="398"/>
      <point x="481" y="411" type="curve"/>
      <point x="481" y="469"/>
      <point x="469" y="505"/>
      <point x="448" y="526" type="curve" smooth="yes"/>
      <point x="431" y="543"/>
      <point x="394" y="552"/>
    </contour>
    <contour>
      <point x="356" y="321" type="curve" smooth="yes"/>
      <point x="306" y="333" type="line" smooth="yes"/>
      <point x="240" y="349"/>
      <point x="225" y="351"/>
      <point x="225" y="369" type="curve" smooth="yes"/>
      <point x="225" y="385"/>
      <point x="228" y="409"/>
      <point x="242" y="440" type="curve"/>
      <point x="142" y="429"/>
      <point x="75" y="407"/>
      <point x="75" y="374" type="curve"/>
      <point x="75" y="292"/>
      <point x="118" y="252"/>
      <point x="234" y="225" type="curve" smooth="yes"/>
      <point x="306" y="208" type="line" smooth="yes"/>
      <point x="349" y="198"/>
      <point x="364" y="181"/>
      <point x="364" y="162" type="curve" smooth="yes"/>
      <point x="364" y="141"/>
      <point x="356" y="127"/>
      <point x="343" y="113" type="curve"/>
      <point x="461" y="113"/>
      <point x="506" y="132"/>
      <point x="506" y="164" type="curve" smooth="yes"/>
      <point x="506" y="241"/>
      <point x="465" y="295"/>
    </contour>
    <contour>
      <point x="300" y="138" type="curve" smooth="yes"/>
      <point x="171" y="138"/>
      <point x="132" y="152"/>
      <point x="59" y="193" type="curve"/>
      <point x="55" y="193" type="line"/>
      <point x="52" y="178"/>
      <point x="50" y="162"/>
      <point x="50" y="139" type="curve" smooth="yes"/>
      <point x="50" y="78"/>
      <point x="65" y="48"/>
      <point x="84" y="29" type="curve" smooth="yes"/>
      <point x="112" y="1"/>
      <point x="175" y="-12"/>
      <point x="269" y="-12" type="curve" smooth="yes"/>
      <point x="288" y="-12" type="line" smooth="yes"/>
      <point x="435" y="-12"/>
      <point x="506" y="45"/>
      <point x="506" y="164" type="curve" smooth="yes"/>
      <point x="506" y="221"/>
      <point x="471" y="218"/>
      <point x="419" y="230" type="curve"/>
      <point x="424" y="210"/>
      <point x="424" y="200"/>
      <point x="424" y="190" type="curve" smooth="yes"/>
      <point x="424" y="162"/>
      <point x="378" y="138"/>
    </contour>
    <contour>
      <point x="278" y="551" type="move" name="top"/>
    </contour>
    <contour>
      <point x="278" y="-1" type="move" name="bottom"/>
    </contour>
  </outline>
</glyph>
<glyph name="t" format="1">
  <advance width="500"/>
  <unicode hex="0074"/>
  <outline>
    <contour>
      <point x="125" y="700" type="curve"/>
      <point x="125" y="153" type="line" smooth="yes"/>
      <point x="125" y="93"/>
      <point x="218" y="9"/>
      <point x="311" y="34" type="curve"/>
      <point x="285" y="75"/>
      <point x="275" y="125"/>
      <point x="275" y="175" type="curve" smooth="yes"/>
      <point x="275" y="644" type="line" smooth="yes"/>
      <point x="275" y="698"/>
      <point x="234" y="706"/>
      <point x="183" y="706" type="curve" smooth="yes"/>
      <point x="160" y="706"/>
      <point x="140" y="704"/>
    </contour>
    <contour>
      <point x="446" y="165" type="curve"/>
      <point x="442" y="165" type="line"/>
      <point x="387" y="143"/>
      <point x="356" y="138"/>
      <point x="305" y="138" type="curve" smooth="yes"/>
      <point x="261" y="138"/>
      <point x="216" y="152"/>
      <point x="166" y="195" type="curve"/>
      <point x="140" y="192"/>
      <point x="125" y="175"/>
      <point x="125" y="153" type="curve" smooth="yes"/>
      <point x="125" y="67"/>
      <point x="213" y="-12"/>
      <point x="300" y="-12" type="curve" smooth="yes"/>
      <point x="310" y="-12" type="line" smooth="yes"/>
      <point x="385" y="-12"/>
      <point x="408" y="6"/>
      <point x="418" y="16" type="curve" smooth="yes"/>
      <point x="436" y="34"/>
      <point x="450" y="78"/>
      <point x="450" y="127" type="curve" smooth="yes"/>
      <point x="450" y="139"/>
      <point x="449" y="152"/>
    </contour>
    <contour>
      <point x="36" y="540" type="line"/>
      <point x="36" y="534"/>
      <point x="36" y="528"/>
      <point x="36" y="521" type="curve" smooth="yes"/>
      <point x="36" y="470"/>
      <point x="45" y="440"/>
      <point x="63" y="422" type="curve" smooth="yes"/>
      <point x="88" y="397"/>
      <point x="121" y="390"/>
      <point x="212" y="390" type="curve"/>
      <point x="443" y="390" type="line"/>
      <point x="447" y="407"/>
      <point x="450" y="430"/>
      <point x="450" y="453" type="curve" smooth="yes"/>
      <point x="450" y="519"/>
      <point x="433" y="540"/>
      <point x="377" y="540" type="curve"/>
    </contour>
    <contour>
      <point x="393" y="711" type="move" name="caronslovak"/>
    </contour>
    <contour>
      <point x="278" y="-1" type="move" name="bottom"/>
    </contour>
  </outline>
</glyph>
<glyph name="v" format="1">
  <advance width="600"/>
  <unicode hex="0076"/>
  <outline>
    <contour>
      <point x="417" y="552" type="curve" smooth="yes"/>
      <point x="393" y="552" type="line"/>
      <point x="368" y="297"/>
      <point x="345" y="188"/>
      <point x="254" y="114" type="curve"/>
      <point x="227" y="92"/>
      <point x="257" y="-10"/>
      <point x="317" y="-10" type="curve"/>
      <point x="357" y="-10" type="line"/>
      <point x="458" y="75"/>
      <point x="527" y="265"/>
      <point x="547" y="478" type="curve"/>
      <point x="551" y="521"/>
      <point x="482" y="552"/>
    </contour>
    <contour>
      <point x="72" y="552" type="curve" smooth="yes"/>
      <point x="48" y="552" type="line"/>
      <point x="72" y="296"/>
      <point x="120" y="129"/>
      <point x="212" y="37" type="curve"/>
      <point x="254" y="-5"/>
      <point x="285" y="-10"/>
      <point x="314" y="-10" type="curve" smooth="yes"/>
      <point x="325" y="-10" type="line" smooth="yes"/>
      <point x="363" y="-10"/>
      <point x="391" y="23"/>
      <point x="407" y="72" type="curve"/>
      <point x="400" y="72"/>
      <point x="397" y="72"/>
      <point x="390" y="72" type="curve" smooth="yes"/>
      <point x="382" y="72"/>
      <point x="372" y="75"/>
      <point x="358" y="86" type="curve"/>
      <point x="279" y="149"/>
      <point x="238" y="266"/>
      <point x="212" y="502" type="curve"/>
      <point x="209" y="530"/>
      <point x="137" y="552"/>
    </contour>
  </outline>
</glyph>
<glyph name="w" format="1">
  <advance width="800"/>
  <unicode hex="0077"/>
  <outline>
    <contour>
      <point x="45" y="545" type="curve"/>
      <point x="61" y="210"/>
      <point x="95" y="101"/>
      <point x="167" y="29" type="curve"/>
      <point x="199" y="-3"/>
      <point x="220" y="-10"/>
      <point x="247" y="-10" type="curve"/>
      <point x="269" y="-10" type="line" smooth="yes"/>
      <point x="285" y="-10"/>
      <point x="312" y="28"/>
      <point x="312" y="70" type="curve"/>
      <point x="253" y="105"/>
      <point x="222" y="195"/>
      <point x="209" y="493" type="curve"/>
      <point x="208" y="507"/>
      <point x="203" y="516"/>
      <point x="195" y="524" type="curve" smooth="yes"/>
      <point x="178" y="541"/>
      <point x="135" y="550"/>
      <point x="87" y="550" type="curve"/>
      <point x="73" y="550"/>
      <point x="56" y="548"/>
    </contour>
    <contour>
      <point x="330" y="540" type="curve"/>
      <point x="320" y="262"/>
      <point x="276" y="146"/>
      <point x="228" y="98" type="curve"/>
      <point x="209" y="79"/>
      <point x="245" y="-10"/>
      <point x="263" y="-10" type="curve"/>
      <point x="289" y="-10" type="line"/>
      <point x="356" y="56"/>
      <point x="419" y="251"/>
      <point x="438" y="456" type="curve"/>
      <point x="442" y="494"/>
      <point x="408" y="545"/>
      <point x="371" y="545" type="curve" smooth="yes"/>
      <point x="358" y="545"/>
      <point x="343" y="544"/>
    </contour>
    <contour>
      <point x="349" y="539" type="curve"/>
      <point x="368" y="322"/>
      <point x="423" y="95"/>
      <point x="497" y="21" type="curve"/>
      <point x="523" y="-5"/>
      <point x="550" y="-10"/>
      <point x="571" y="-10" type="curve"/>
      <point x="594" y="-10" type="line" smooth="yes"/>
      <point x="602" y="-10"/>
      <point x="604" y="29"/>
      <point x="604" y="70" type="curve"/>
      <point x="522" y="118"/>
      <point x="493" y="263"/>
      <point x="484" y="495" type="curve"/>
      <point x="482" y="535"/>
      <point x="425" y="545"/>
      <point x="371" y="545" type="curve" smooth="yes"/>
      <point x="360" y="545"/>
      <point x="353" y="544"/>
    </contour>
    <contour>
      <point x="610" y="544" type="curve"/>
      <point x="589" y="215"/>
      <point x="567" y="154"/>
      <point x="518" y="114" type="curve"/>
      <point x="490" y="91"/>
      <point x="541" y="-10"/>
      <point x="584" y="-10" type="curve"/>
      <point x="601" y="-10" type="line"/>
      <point x="703" y="76"/>
      <point x="741" y="236"/>
      <point x="763" y="468" type="curve"/>
      <point x="765" y="486"/>
      <point x="762" y="501"/>
      <point x="750" y="513" type="curve" smooth="yes"/>
      <point x="728" y="535"/>
      <point x="700" y="550"/>
      <point x="652" y="550" type="curve"/>
      <point x="638" y="550"/>
      <point x="622" y="548"/>
    </contour>
    <contour>
      <point x="404" y="551" type="move" name="top"/>
    </contour>
  </outline>
</glyph>
<glyph name="x" format="1">
  <advance width="600"/>
  <unicode hex="0078"/>
  <outline>
    <contour>
      <point x="490" y="-10" type="curve" smooth="yes"/>
      <point x="538" y="-10"/>
      <point x="562" y="-3"/>
      <point x="587" y="18" type="curve"/>
      <point x="512" y="86"/>
      <point x="440" y="168"/>
      <point x="378" y="258" type="curve" smooth="yes"/>
      <point x="364" y="280"/>
      <point x="350" y="302"/>
      <point x="336" y="324" type="curve" smooth="yes"/>
      <point x="302" y="379"/>
      <point x="273" y="439"/>
      <point x="246" y="498" type="curve" smooth="yes"/>
      <point x="227" y="538"/>
      <point x="172" y="550"/>
      <point x="103" y="550" type="curve" smooth="yes"/>
      <point x="78" y="550"/>
      <point x="52" y="547"/>
      <point x="34" y="542" type="curve"/>
      <point x="93" y="422"/>
      <point x="161" y="309"/>
      <point x="238" y="203" type="curve" smooth="yes"/>
      <point x="253" y="183"/>
      <point x="268" y="163"/>
      <point x="284" y="143" type="curve" smooth="yes"/>
      <point x="312" y="109"/>
      <point x="342" y="74"/>
      <point x="371" y="41" type="curve" smooth="yes"/>
      <point x="403" y="4"/>
      <point x="434" y="-10"/>
    </contour>
    <contour>
      <point x="435" y="552" type="curve" smooth="yes"/>
      <point x="411" y="552" type="line"/>
      <point x="379" y="464"/>
      <point x="338" y="391"/>
      <point x="291" y="323" type="curve" smooth="yes"/>
      <point x="276" y="303"/>
      <point x="261" y="283"/>
      <point x="244" y="263" type="curve" smooth="yes"/>
      <point x="194" y="205"/>
      <point x="137" y="147"/>
      <point x="59" y="91" type="curve" smooth="yes"/>
      <point x="34" y="73"/>
      <point x="31" y="64"/>
      <point x="31" y="49" type="curve" smooth="yes"/>
      <point x="31" y="14"/>
      <point x="94" y="-10"/>
      <point x="174" y="-10" type="curve" smooth="yes"/>
      <point x="187" y="-10" type="line"/>
      <point x="244" y="42"/>
      <point x="289" y="94"/>
      <point x="331" y="140" type="curve" smooth="yes"/>
      <point x="348" y="159"/>
      <point x="364" y="178"/>
      <point x="379" y="196" type="curve" smooth="yes"/>
      <point x="457" y="293"/>
      <point x="509" y="375"/>
      <point x="547" y="461" type="curve" smooth="yes"/>
      <point x="552" y="473"/>
      <point x="554" y="483"/>
      <point x="554" y="492" type="curve" smooth="yes"/>
      <point x="554" y="535"/>
      <point x="502" y="552"/>
    </contour>
  </outline>
</glyph>
<glyph name="braceleft" format="1">
  <advance width="500"/>
  <unicode hex="007B"/>
  <outline>
    <contour>
      <point x="388" y="620" type="curve" smooth="yes"/>
      <point x="418" y="620"/>
      <point x="445" y="617"/>
      <point x="461" y="612" type="curve"/>
      <point x="465" y="612" type="line"/>
      <point x="469" y="628"/>
      <point x="471" y="641"/>
      <point x="471" y="664" type="curve"/>
      <point x="471" y="721"/>
      <point x="435" y="770"/>
      <point x="396" y="770" type="curve" smooth="yes"/>
      <point x="392" y="770" type="line" smooth="yes"/>
      <point x="270" y="770"/>
      <point x="179" y="720"/>
      <point x="179" y="648" type="curve" smooth="yes"/>
      <point x="179" y="645" type="line" smooth="yes"/>
      <point x="179" y="608"/>
      <point x="216" y="575"/>
      <point x="258" y="571" type="curve"/>
      <point x="293" y="608"/>
      <point x="336" y="620"/>
    </contour>
    <contour>
      <point x="351" y="424" type="curve" smooth="yes"/>
      <point x="351" y="534"/>
      <point x="286" y="587"/>
      <point x="286" y="628" type="curve" smooth="yes"/>
      <point x="286" y="648"/>
      <point x="290" y="664"/>
      <point x="301" y="683" type="curve"/>
      <point x="239" y="700"/>
      <point x="179" y="690"/>
      <point x="179" y="645" type="curve" smooth="yes"/>
      <point x="179" y="640" type="line" smooth="yes"/>
      <point x="179" y="594"/>
      <point x="210" y="536"/>
      <point x="210" y="458" type="curve" smooth="yes"/>
      <point x="210" y="394"/>
      <point x="167" y="368"/>
      <point x="63" y="368" type="curve" smooth="yes"/>
      <point x="56" y="368" type="line"/>
      <point x="56" y="357" type="line" smooth="yes"/>
      <point x="56" y="322"/>
      <point x="65" y="284"/>
      <point x="109" y="284" type="curve" smooth="yes"/>
      <point x="133" y="284" type="line" smooth="yes"/>
      <point x="251" y="284"/>
      <point x="351" y="342"/>
    </contour>
    <contour>
      <point x="351" y="175" type="curve" smooth="yes"/>
      <point x="351" y="267"/>
      <point x="258" y="313"/>
      <point x="137" y="313" type="curve" smooth="yes"/>
      <point x="86" y="313"/>
      <point x="71" y="340"/>
      <point x="56" y="362" type="curve"/>
      <point x="56" y="354" type="line" smooth="yes"/>
      <point x="56" y="287"/>
      <point x="81" y="231"/>
      <point x="118" y="231" type="curve" smooth="yes"/>
      <point x="121" y="231" type="line" smooth="yes"/>
      <point x="169" y="231"/>
      <point x="210" y="204"/>
      <point x="210" y="141" type="curve" smooth="yes"/>
      <point x="210" y="63"/>
      <point x="179" y="1"/>
      <point x="179" y="-45" type="curve" smooth="yes"/>
      <point x="179" y="-50" type="line" smooth="yes"/>
      <point x="179" y="-95"/>
      <point x="239" y="-105"/>
      <point x="301" y="-88" type="curve"/>
      <point x="290" y="-69"/>
      <point x="286" y="-53"/>
      <point x="286" y="-33" type="curve" smooth="yes"/>
      <point x="286" y="8"/>
      <point x="351" y="71"/>
    </contour>
    <contour>
      <point x="366" y="-21" type="curve" smooth="yes"/>
      <point x="327" y="-21"/>
      <point x="285" y="-10"/>
      <point x="258" y="17" type="curve"/>
      <point x="211" y="10"/>
      <point x="179" y="-24"/>
      <point x="179" y="-47" type="curve" smooth="yes"/>
      <point x="179" y="-52" type="line" smooth="yes"/>
      <point x="179" y="-123"/>
      <point x="236" y="-172"/>
      <point x="383" y="-172" type="curve" smooth="yes"/>
      <point x="388" y="-172" type="line" smooth="yes"/>
      <point x="437" y="-172"/>
      <point x="468" y="-111"/>
      <point x="468" y="-16" type="curve"/>
      <point x="468" y="-8" type="line"/>
      <point x="464" y="-8" type="line"/>
      <point x="429" y="-17"/>
      <point x="406" y="-21"/>
    </contour>
  </outline>
</glyph>
<glyph name="bar" format="1">
  <advance width="300"/>
  <unicode hex="007C"/>
  <outline>
    <contour>
      <point x="64" y="758" type="curve"/>
      <point x="72" y="722"/>
      <point x="76" y="685"/>
      <point x="76" y="645" type="curve" smooth="yes"/>
      <point x="76" y="-97" type="line" smooth="yes"/>
      <point x="76" y="-142"/>
      <point x="118" y="-164"/>
      <point x="200" y="-164" type="curve" smooth="yes"/>
      <point x="216" y="-164"/>
      <point x="228" y="-163"/>
      <point x="236" y="-161" type="curve"/>
      <point x="236" y="695" type="line" smooth="yes"/>
      <point x="236" y="720"/>
      <point x="232" y="732"/>
      <point x="222" y="743" type="curve" smooth="yes"/>
      <point x="206" y="759"/>
      <point x="180" y="765"/>
      <point x="130" y="765" type="curve" smooth="yes"/>
      <point x="106" y="765"/>
      <point x="86" y="763"/>
    </contour>
  </outline>
</glyph>
<glyph name="braceright" format="1">
  <advance width="500"/>
  <unicode hex="007D"/>
  <outline>
    <contour>
      <point x="112" y="-22" type="curve" smooth="yes"/>
      <point x="82" y="-22"/>
      <point x="55" y="-19"/>
      <point x="39" y="-14" type="curve"/>
      <point x="35" y="-14" type="line"/>
      <point x="31" y="-30"/>
      <point x="29" y="-43"/>
      <point x="29" y="-66" type="curve"/>
      <point x="29" y="-123"/>
      <point x="65" y="-172"/>
      <point x="104" y="-172" type="curve" smooth="yes"/>
      <point x="108" y="-172" type="line" smooth="yes"/>
      <point x="230" y="-172"/>
      <point x="321" y="-122"/>
      <point x="321" y="-50" type="curve" smooth="yes"/>
      <point x="321" y="-47" type="line" smooth="yes"/>
      <point x="321" y="-10"/>
      <point x="284" y="23"/>
      <point x="242" y="27" type="curve"/>
      <point x="207" y="-10"/>
      <point x="164" y="-22"/>
    </contour>
    <contour>
      <point x="149" y="174" type="curve" smooth="yes"/>
      <point x="149" y="64"/>
      <point x="214" y="11"/>
      <point x="214" y="-30" type="curve" smooth="yes"/>
      <point x="214" y="-50"/>
      <point x="210" y="-66"/>
      <point x="199" y="-85" type="curve"/>
      <point x="261" y="-102"/>
      <point x="321" y="-92"/>
      <point x="321" y="-47" type="curve" smooth="yes"/>
      <point x="321" y="-42" type="line" smooth="yes"/>
      <point x="321" y="4"/>
      <point x="290" y="62"/>
      <point x="290" y="140" type="curve" smooth="yes"/>
      <point x="290" y="204"/>
      <point x="333" y="230"/>
      <point x="437" y="230" type="curve" smooth="yes"/>
      <point x="444" y="230" type="line"/>
      <point x="444" y="241" type="line" smooth="yes"/>
      <point x="444" y="276"/>
      <point x="435" y="314"/>
      <point x="391" y="314" type="curve" smooth="yes"/>
      <point x="367" y="314" type="line" smooth="yes"/>
      <point x="249" y="314"/>
      <point x="149" y="256"/>
    </contour>
    <contour>
      <point x="149" y="423" type="curve" smooth="yes"/>
      <point x="149" y="331"/>
      <point x="242" y="285"/>
      <point x="363" y="285" type="curve" smooth="yes"/>
      <point x="414" y="285"/>
      <point x="429" y="258"/>
      <point x="444" y="236" type="curve"/>
      <point x="444" y="244" type="line" smooth="yes"/>
      <point x="444" y="311"/>
      <point x="419" y="367"/>
      <point x="382" y="367" type="curve" smooth="yes"/>
      <point x="379" y="367" type="line" smooth="yes"/>
      <point x="331" y="367"/>
      <point x="290" y="394"/>
      <point x="290" y="457" type="curve" smooth="yes"/>
      <point x="290" y="535"/>
      <point x="321" y="597"/>
      <point x="321" y="643" type="curve" smooth="yes"/>
      <point x="321" y="648" type="line" smooth="yes"/>
      <point x="321" y="693"/>
      <point x="261" y="703"/>
      <point x="199" y="686" type="curve"/>
      <point x="210" y="667"/>
      <point x="214" y="651"/>
      <point x="214" y="631" type="curve" smooth="yes"/>
      <point x="214" y="590"/>
      <point x="149" y="527"/>
    </contour>
    <contour>
      <point x="134" y="619" type="curve" smooth="yes"/>
      <point x="173" y="619"/>
      <point x="215" y="608"/>
      <point x="242" y="581" type="curve"/>
      <point x="289" y="588"/>
      <point x="321" y="622"/>
      <point x="321" y="645" type="curve" smooth="yes"/>
      <point x="321" y="650" type="line" smooth="yes"/>
      <point x="321" y="721"/>
      <point x="264" y="770"/>
      <point x="117" y="770" type="curve" smooth="yes"/>
      <point x="112" y="770" type="line" smooth="yes"/>
      <point x="63" y="770"/>
      <point x="32" y="709"/>
      <point x="32" y="614" type="curve"/>
      <point x="32" y="606" type="line"/>
      <point x="36" y="606" type="line"/>
      <point x="71" y="615"/>
      <point x="94" y="619"/>
    </contour>
  </outline>
</glyph>
<glyph name="exclamdown" format="1">
  <advance width="350"/>
  <unicode hex="00A1"/>
  <outline>
    <contour>
      <point x="115" y="245" type="line"/>
      <point x="99" y="180"/>
      <point x="85" y="72"/>
      <point x="85" y="6" type="curve"/>
      <point x="85" y="-106" type="line" smooth="yes"/>
      <point x="85" y="-154"/>
      <point x="141" y="-175"/>
      <point x="211" y="-175" type="curve" smooth="yes"/>
      <point x="236" y="-175"/>
      <point x="255" y="-174"/>
      <point x="278" y="-168" type="curve"/>
      <point x="269" y="-132"/>
      <point x="265" y="-95"/>
      <point x="265" y="-55" type="curve" smooth="yes"/>
      <point x="265" y="0" type="line"/>
      <point x="265" y="79"/>
      <point x="252" y="192"/>
      <point x="230" y="214" type="curve" smooth="yes"/>
      <point x="211" y="233"/>
      <point x="178" y="245"/>
      <point x="130" y="245" type="curve"/>
    </contour>
    <contour>
      <point x="71" y="540" type="curve"/>
      <point x="71" y="401" type="line" smooth="yes"/>
      <point x="71" y="338"/>
      <point x="140" y="329"/>
      <point x="201" y="329" type="curve" smooth="yes"/>
      <point x="224" y="329"/>
      <point x="254" y="331"/>
      <point x="279" y="335" type="curve"/>
      <point x="279" y="474" type="line" smooth="yes"/>
      <point x="279" y="537"/>
      <point x="210" y="546"/>
      <point x="149" y="546" type="curve" smooth="yes"/>
      <point x="126" y="546"/>
      <point x="96" y="544"/>
    </contour>
  </outline>
</glyph>
<glyph name="brokenbar" format="1">
  <advance width="300"/>
  <unicode hex="00A6"/>
  <outline>
    <contour>
      <point x="57" y="758" type="curve"/>
      <point x="66" y="722"/>
      <point x="70" y="685"/>
      <point x="70" y="645" type="curve" smooth="yes"/>
      <point x="70" y="433" type="line" smooth="yes"/>
      <point x="70" y="388"/>
      <point x="111" y="366"/>
      <point x="193" y="366" type="curve" smooth="yes"/>
      <point x="210" y="366"/>
      <point x="222" y="367"/>
      <point x="230" y="369" type="curve"/>
      <point x="230" y="695" type="line" smooth="yes"/>
      <point x="230" y="720"/>
      <point x="226" y="732"/>
      <point x="215" y="743" type="curve" smooth="yes"/>
      <point x="199" y="759"/>
      <point x="174" y="765"/>
      <point x="124" y="765" type="curve" smooth="yes"/>
      <point x="99" y="765"/>
      <point x="80" y="763"/>
    </contour>
    <contour>
      <point x="70" y="228" type="curve"/>
      <point x="70" y="-97" type="line"/>
      <point x="70" y="-142"/>
      <point x="111" y="-164"/>
      <point x="193" y="-164" type="curve" smooth="yes"/>
      <point x="210" y="-164"/>
      <point x="222" y="-163"/>
      <point x="230" y="-161" type="curve"/>
      <point x="230" y="165" type="line" smooth="yes"/>
      <point x="230" y="217"/>
      <point x="200" y="235"/>
      <point x="129" y="235" type="curve" smooth="yes"/>
      <point x="107" y="235"/>
      <point x="86" y="233"/>
    </contour>
  </outline>
</glyph>
<glyph name="guillemotleft" format="1">
  <advance width="600"/>
  <unicode hex="00AB"/>
  <outline>
    <contour>
      <point x="335" y="509" type="line"/>
      <point x="305" y="518"/>
      <point x="288" y="522"/>
      <point x="254" y="522" type="curve" smooth="yes"/>
      <point x="215" y="522"/>
      <point x="196" y="517"/>
      <point x="176" y="503" type="curve" smooth="yes"/>
      <point x="112" y="455"/>
      <point x="70" y="404"/>
      <point x="24" y="325" type="curve"/>
      <point x="24" y="305" type="line"/>
      <point x="24" y="285"/>
      <point x="39" y="257"/>
      <point x="116" y="257" type="curve"/>
      <point x="166" y="357"/>
      <point x="220" y="420"/>
      <point x="335" y="505" type="curve"/>
    </contour>
    <contour>
      <point x="335" y="95" type="line"/>
      <point x="220" y="184"/>
      <point x="155" y="253"/>
      <point x="120" y="341" type="curve"/>
      <point x="37" y="327"/>
      <point x="24" y="320"/>
      <point x="24" y="309" type="curve"/>
      <point x="24" y="301" type="line" smooth="yes"/>
      <point x="24" y="276"/>
      <point x="30" y="256"/>
      <point x="53" y="221" type="curve" smooth="yes"/>
      <point x="101" y="151"/>
      <point x="139" y="116"/>
      <point x="170" y="98" type="curve"/>
      <point x="194" y="83"/>
      <point x="213" y="78"/>
      <point x="256" y="78" type="curve" smooth="yes"/>
      <point x="293" y="78"/>
      <point x="308" y="82"/>
      <point x="335" y="91" type="curve"/>
    </contour>
    <contour>
      <point x="565" y="509" type="line"/>
      <point x="535" y="518"/>
      <point x="518" y="522"/>
      <point x="484" y="522" type="curve" smooth="yes"/>
      <point x="445" y="522"/>
      <point x="426" y="517"/>
      <point x="406" y="503" type="curve" smooth="yes"/>
      <point x="342" y="455"/>
      <point x="300" y="404"/>
      <point x="254" y="325" type="curve"/>
      <point x="254" y="305" type="line"/>
      <point x="254" y="285"/>
      <point x="269" y="257"/>
      <point x="346" y="257" type="curve"/>
      <point x="396" y="357"/>
      <point x="450" y="420"/>
      <point x="565" y="505" type="curve"/>
    </contour>
    <contour>
      <point x="565" y="95" type="line"/>
      <point x="450" y="184"/>
      <point x="385" y="253"/>
      <point x="350" y="341" type="curve"/>
      <point x="267" y="327"/>
      <point x="254" y="320"/>
      <point x="254" y="309" type="curve"/>
      <point x="254" y="301" type="line" smooth="yes"/>
      <point x="254" y="276"/>
      <point x="260" y="256"/>
      <point x="283" y="221" type="curve" smooth="yes"/>
      <point x="331" y="151"/>
      <point x="369" y="116"/>
      <point x="400" y="98" type="curve"/>
      <point x="424" y="83"/>
      <point x="443" y="78"/>
      <point x="486" y="78" type="curve" smooth="yes"/>
      <point x="523" y="78"/>
      <point x="538" y="82"/>
      <point x="565" y="91" type="curve"/>
    </contour>
  </outline>
</glyph>
<glyph name="uni00B5" format="1">
  <advance width="600"/>
  <unicode hex="00B5"/>
  <outline>
    <contour>
      <point x="56" y="541" type="curve"/>
      <point x="72" y="482"/>
      <point x="77" y="446"/>
      <point x="77" y="382" type="curve" smooth="yes"/>
      <point x="77" y="157" type="line"/>
      <point x="77" y="130"/>
      <point x="106" y="114"/>
      <point x="202" y="117" type="curve"/>
      <point x="224" y="222"/>
      <point x="243" y="324"/>
      <point x="243" y="407" type="curve" smooth="yes"/>
      <point x="243" y="412" type="line" smooth="yes"/>
      <point x="243" y="519"/>
      <point x="199" y="547"/>
      <point x="114" y="547" type="curve" smooth="yes"/>
      <point x="93" y="547"/>
      <point x="76" y="545"/>
    </contour>
    <contour>
      <point x="256" y="-11" type="curve" smooth="yes"/>
      <point x="327" y="-11"/>
      <point x="377" y="86"/>
      <point x="389" y="203" type="curve" smooth="yes"/>
      <point x="398" y="292"/>
      <point x="402" y="372"/>
      <point x="391" y="435" type="curve"/>
      <point x="354" y="205"/>
      <point x="299" y="156"/>
      <point x="243" y="156" type="curve" smooth="yes"/>
      <point x="218" y="156"/>
      <point x="194" y="178"/>
      <point x="176" y="223" type="curve"/>
      <point x="118" y="223"/>
      <point x="77" y="192"/>
      <point x="77" y="157" type="curve" smooth="yes"/>
      <point x="77" y="80"/>
      <point x="171" y="-11"/>
    </contour>
    <contour>
      <point x="537" y="542" type="line"/>
      <point x="522" y="546"/>
      <point x="500" y="548"/>
      <point x="477" y="548" type="curve" smooth="yes"/>
      <point x="420" y="548"/>
      <point x="382" y="540"/>
      <point x="382" y="486" type="curve" smooth="yes"/>
      <point x="382" y="158" type="line" smooth="yes"/>
      <point x="382" y="83"/>
      <point x="471" y="52"/>
      <point x="557" y="73" type="curve"/>
      <point x="542" y="109"/>
      <point x="537" y="143"/>
      <point x="537" y="186" type="curve"/>
    </contour>
    <contour>
      <point x="577" y="139" type="line"/>
      <point x="574" y="139" type="line"/>
      <point x="573" y="139"/>
      <point x="571" y="139"/>
      <point x="570" y="139" type="curve" smooth="yes"/>
      <point x="539" y="139"/>
      <point x="505" y="153"/>
      <point x="480" y="197" type="curve"/>
      <point x="403" y="197"/>
      <point x="382" y="188"/>
      <point x="382" y="158" type="curve" smooth="yes"/>
      <point x="382" y="72"/>
      <point x="437" y="-10"/>
      <point x="519" y="-10" type="curve" smooth="yes"/>
      <point x="522" y="-10" type="line" smooth="yes"/>
      <point x="561" y="-10"/>
      <point x="577" y="73"/>
      <point x="577" y="123" type="curve"/>
    </contour>
    <contour>
      <point x="113" y="157" type="line"/>
      <point x="83" y="61"/>
      <point x="66" y="-24"/>
      <point x="66" y="-116" type="curve" smooth="yes"/>
      <point x="66" y="-178"/>
      <point x="114" y="-204"/>
      <point x="166" y="-204" type="curve" smooth="yes"/>
      <point x="192" y="-204"/>
      <point x="207" y="-200"/>
      <point x="223" y="-193" type="curve"/>
      <point x="223" y="-173"/>
      <point x="223" y="-164"/>
      <point x="223" y="-135" type="curve" smooth="yes"/>
      <point x="223" y="-62"/>
      <point x="164" y="157"/>
      <point x="119" y="157" type="curve" smooth="yes"/>
    </contour>
  </outline>
</glyph>
<glyph name="cedilla" format="1">
  <advance width="600"/>
  <unicode hex="00B8"/>
  <outline>
    <contour>
      <point x="417" y="-106" type="curve" smooth="yes"/>
      <point x="417" y="-36"/>
      <point x="372" y="-4"/>
      <point x="330" y="0" type="curve"/>
      <point x="330" y="18"/>
      <point x="331" y="31"/>
      <point x="334" y="44" type="curve"/>
      <point x="279" y="44"/>
      <point x="266" y="38"/>
      <point x="260" y="29" type="curve" smooth="yes"/>
      <point x="246" y="9"/>
      <point x="241" y="-15"/>
      <point x="241" y="-29" type="curve" smooth="yes"/>
      <point x="241" y="-36"/>
      <point x="244" y="-38"/>
      <point x="251" y="-38" type="curve" smooth="yes"/>
      <point x="282" y="-38"/>
      <point x="296" y="-51"/>
      <point x="296" y="-76" type="curve" smooth="yes"/>
      <point x="296" y="-102"/>
      <point x="278" y="-117"/>
      <point x="246" y="-117" type="curve" smooth="yes"/>
      <point x="215" y="-117"/>
      <point x="197" y="-111"/>
      <point x="177" y="-97" type="curve"/>
      <point x="173" y="-97" type="line"/>
      <point x="166" y="-116"/>
      <point x="164" y="-136"/>
      <point x="164" y="-156" type="curve" smooth="yes"/>
      <point x="164" y="-207"/>
      <point x="188" y="-247"/>
      <point x="259" y="-247" type="curve" smooth="yes"/>
      <point x="373" y="-247"/>
      <point x="417" y="-177"/>
    </contour>
  </outline>
</glyph>
<glyph name="Atilde" format="1">
  <advance width="600"/>
  <unicode hex="00C3"/>
  <outline>
    <contour>
      <point x="212" y="-7" type="curve"/>
      <point x="232" y="400"/>
      <point x="250" y="504"/>
      <point x="339" y="594" type="curve"/>
      <point x="369" y="624"/>
      <point x="348" y="710"/>
      <point x="269" y="710" type="curve"/>
      <point x="239" y="710" type="line"/>
      <point x="126" y="615"/>
      <point x="52" y="338"/>
      <point x="52" y="57" type="curve"/>
      <point x="52" y="8"/>
      <point x="101" y="-10"/>
      <point x="175" y="-10" type="curve" smooth="yes"/>
      <point x="193" y="-10"/>
      <point x="201" y="-9"/>
    </contour>
    <contour>
      <point x="550" y="-6" type="curve"/>
      <point x="540" y="247"/>
      <point x="516" y="435"/>
      <point x="462" y="563" type="curve"/>
      <point x="441" y="612"/>
      <point x="415" y="652"/>
      <point x="384" y="683" type="curve" smooth="yes"/>
      <point x="370" y="697"/>
      <point x="324" y="710"/>
      <point x="269" y="710" type="curve"/>
      <point x="238" y="710"/>
      <point x="200" y="650"/>
      <point x="200" y="611" type="curve"/>
      <point x="211" y="611"/>
      <point x="219" y="611"/>
      <point x="228" y="611" type="curve" smooth="yes"/>
      <point x="255" y="611"/>
      <point x="265" y="607"/>
      <point x="274" y="595" type="curve"/>
      <point x="348" y="504"/>
      <point x="366" y="412"/>
      <point x="384" y="58" type="curve"/>
      <point x="385" y="40"/>
      <point x="387" y="32"/>
      <point x="397" y="22" type="curve" smooth="yes"/>
      <point x="418" y="1"/>
      <point x="464" y="-10"/>
      <point x="508" y="-10" type="curve" smooth="yes"/>
      <point x="526" y="-10"/>
      <point x="538" y="-9"/>
    </contour>
    <contour>
      <point x="25" y="290" type="line"/>
      <point x="25" y="265" type="line" smooth="yes"/>
      <point x="25" y="221"/>
      <point x="32" y="180"/>
      <point x="54" y="158" type="curve" smooth="yes"/>
      <point x="60" y="152"/>
      <point x="63" y="150"/>
      <point x="71" y="150" type="curve"/>
      <point x="425" y="150" type="line"/>
      <point x="425" y="240"/>
      <point x="375" y="290"/>
      <point x="270" y="290" type="curve" smooth="yes"/>
    </contour>
    <contour>
      <point x="396" y="902" type="curve" smooth="yes"/>
      <point x="326" y="902"/>
      <point x="261" y="974"/>
      <point x="190" y="974" type="curve" smooth="yes"/>
      <point x="147" y="974"/>
      <point x="122" y="951"/>
      <point x="108" y="915" type="curve" smooth="yes"/>
      <point x="102" y="901"/>
      <point x="95" y="874"/>
      <point x="95" y="836" type="curve" smooth="yes"/>
      <point x="95" y="821"/>
      <point x="97" y="799"/>
      <point x="102" y="784" type="curve"/>
      <point x="106" y="784" type="line"/>
      <point x="140" y="819"/>
      <point x="164" y="832"/>
      <point x="204" y="832" type="curve" smooth="yes"/>
      <point x="274" y="832"/>
      <point x="339" y="760"/>
      <point x="410" y="760" type="curve" smooth="yes"/>
      <point x="453" y="760"/>
      <point x="478" y="783"/>
      <point x="492" y="819" type="curve" smooth="yes"/>
      <point x="498" y="833"/>
      <point x="505" y="860"/>
      <point x="505" y="898" type="curve" smooth="yes"/>
      <point x="505" y="913"/>
      <point x="503" y="935"/>
      <point x="498" y="950" type="curve"/>
      <point x="494" y="950" type="line"/>
      <point x="460" y="915"/>
      <point x="436" y="902"/>
    </contour>
  </outline>
</glyph>
<glyph name="Eacute" format="1">
  <advance width="550"/>
  <unicode hex="00C9"/>
  <outline>
    <contour>
      <point x="25" y="700" type="line"/>
      <point x="25" y="692"/>
      <point x="25" y="683"/>
      <point x="25" y="675" type="curve" smooth="yes"/>
      <point x="25" y="627"/>
      <point x="31" y="575"/>
      <point x="48" y="558" type="curve" smooth="yes"/>
      <point x="54" y="552"/>
      <point x="57" y="550"/>
      <point x="65" y="550" type="curve" smooth="yes"/>
      <point x="503" y="550" type="line"/>
      <point x="508" y="564"/>
      <point x="510" y="583"/>
      <point x="510" y="604" type="curve" smooth="yes"/>
      <point x="510" y="625"/>
      <point x="505" y="669"/>
      <point x="486" y="688" type="curve" smooth="yes"/>
      <point x="476" y="698"/>
      <point x="469" y="700"/>
      <point x="452" y="700" type="curve" smooth="yes"/>
    </contour>
    <contour>
      <point x="235" y="85" type="curve"/>
      <point x="235" y="477" type="line" smooth="yes"/>
      <point x="235" y="558"/>
      <point x="195" y="584"/>
      <point x="75" y="584" type="curve"/>
      <point x="75" y="140" type="line"/>
      <point x="75" y="97"/>
      <point x="151" y="85"/>
    </contour>
    <contour>
      <point x="75" y="150" type="line"/>
      <point x="75" y="132" type="line" smooth="yes"/>
      <point x="75" y="73"/>
      <point x="135" y="0"/>
      <point x="183" y="0" type="curve" smooth="yes"/>
      <point x="505" y="0" type="line"/>
      <point x="509" y="15"/>
      <point x="511" y="35"/>
      <point x="511" y="58" type="curve" smooth="yes"/>
      <point x="511" y="124"/>
      <point x="493" y="150"/>
      <point x="449" y="150" type="curve" smooth="yes"/>
    </contour>
    <contour>
      <point x="145" y="400" type="line"/>
      <point x="145" y="310"/>
      <point x="157" y="270"/>
      <point x="200" y="270" type="curve" smooth="yes"/>
      <point x="460" y="270" type="line"/>
      <point x="460" y="278"/>
      <point x="460" y="287"/>
      <point x="460" y="295" type="curve" smooth="yes"/>
      <point x="460" y="320"/>
      <point x="447" y="358"/>
      <point x="420" y="385" type="curve" smooth="yes"/>
      <point x="406" y="399"/>
      <point x="403" y="400"/>
      <point x="384" y="400" type="curve" smooth="yes"/>
    </contour>
    <contour>
      <point x="276" y="757" type="curve" smooth="yes"/>
      <point x="313" y="757"/>
      <point x="332" y="762"/>
      <point x="347" y="770" type="curve" smooth="yes"/>
      <point x="398" y="798"/>
      <point x="424" y="826"/>
      <point x="446" y="879" type="curve" smooth="yes"/>
      <point x="452" y="893"/>
      <point x="447" y="908"/>
      <point x="432" y="914" type="curve" smooth="yes"/>
      <point x="392" y="928"/>
      <point x="361" y="933"/>
      <point x="307" y="933" type="curve"/>
      <point x="286" y="866"/>
      <point x="247" y="822"/>
      <point x="186" y="770" type="curve"/>
      <point x="222" y="760"/>
      <point x="243" y="757"/>
    </contour>
  </outline>
</glyph>
<glyph name="Ecircumflex" format="1">
  <advance width="550"/>
  <unicode hex="00CA"/>
  <outline>
    <contour>
      <point x="25" y="700" type="line"/>
      <point x="25" y="692"/>
      <point x="25" y="683"/>
      <point x="25" y="675" type="curve" smooth="yes"/>
      <point x="25" y="627"/>
      <point x="31" y="575"/>
      <point x="48" y="558" type="curve" smooth="yes"/>
      <point x="54" y="552"/>
      <point x="57" y="550"/>
      <point x="65" y="550" type="curve" smooth="yes"/>
      <point x="503" y="550" type="line"/>
      <point x="508" y="564"/>
      <point x="510" y="583"/>
      <point x="510" y="604" type="curve" smooth="yes"/>
      <point x="510" y="625"/>
      <point x="505" y="669"/>
      <point x="486" y="688" type="curve" smooth="yes"/>
      <point x="476" y="698"/>
      <point x="469" y="700"/>
      <point x="452" y="700" type="curve" smooth="yes"/>
    </contour>
    <contour>
      <point x="235" y="85" type="curve"/>
      <point x="235" y="477" type="line" smooth="yes"/>
      <point x="235" y="558"/>
      <point x="195" y="584"/>
      <point x="75" y="584" type="curve"/>
      <point x="75" y="140" type="line"/>
      <point x="75" y="97"/>
      <point x="151" y="85"/>
    </contour>
    <contour>
      <point x="75" y="150" type="line"/>
      <point x="75" y="132" type="line" smooth="yes"/>
      <point x="75" y="73"/>
      <point x="135" y="0"/>
      <point x="183" y="0" type="curve" smooth="yes"/>
      <point x="505" y="0" type="line"/>
      <point x="509" y="15"/>
      <point x="511" y="35"/>
      <point x="511" y="58" type="curve" smooth="yes"/>
      <point x="511" y="124"/>
      <point x="493" y="150"/>
      <point x="449" y="150" type="curve" smooth="yes"/>
    </contour>
    <contour>
      <point x="145" y="400" type="line"/>
      <point x="145" y="310"/>
      <point x="157" y="270"/>
      <point x="200" y="270" type="curve" smooth="yes"/>
      <point x="460" y="270" type="line"/>
      <point x="460" y="278"/>
      <point x="460" y="287"/>
      <point x="460" y="295" type="curve" smooth="yes"/>
      <point x="460" y="320"/>
      <point x="447" y="358"/>
      <point x="420" y="385" type="curve" smooth="yes"/>
      <point x="406" y="399"/>
      <point x="403" y="400"/>
      <point x="384" y="400" type="curve" smooth="yes"/>
    </contour>
    <contour>
      <point x="170" y="769" type="line"/>
      <point x="201" y="815"/>
      <point x="260" y="857"/>
      <point x="331" y="875" type="curve"/>
      <point x="331" y="925"/>
      <point x="300" y="943"/>
      <point x="251" y="943" type="curve"/>
      <point x="205" y="943" type="line"/>
      <point x="156" y="925"/>
      <point x="105" y="884"/>
      <point x="73" y="847" type="curve" smooth="yes"/>
      <point x="55" y="826"/>
      <point x="48" y="809"/>
      <point x="48" y="803" type="curve" smooth="yes"/>
      <point x="48" y="783"/>
      <point x="109" y="769"/>
      <point x="164" y="769" type="curve"/>
    </contour>
    <contour>
      <point x="502" y="783" type="curve"/>
      <point x="468" y="842"/>
      <point x="435" y="883"/>
      <point x="382" y="915" type="curve" smooth="yes"/>
      <point x="335" y="942"/>
      <point x="302" y="943"/>
      <point x="269" y="943" type="curve" smooth="yes"/>
      <point x="248" y="943" type="line"/>
      <point x="227" y="943"/>
      <point x="211" y="927"/>
      <point x="198" y="873" type="curve"/>
      <point x="279" y="853"/>
      <point x="311" y="832"/>
      <point x="346" y="794" type="curve" smooth="yes"/>
      <point x="360" y="779"/>
      <point x="377" y="769"/>
      <point x="413" y="769" type="curve" smooth="yes"/>
      <point x="450" y="769"/>
      <point x="475" y="773"/>
    </contour>
  </outline>
</glyph>
<glyph name="Edieresis" format="1">
  <advance width="550"/>
  <unicode hex="00CB"/>
  <outline>
    <contour>
      <point x="25" y="700" type="line"/>
      <point x="25" y="692"/>
      <point x="25" y="683"/>
      <point x="25" y="675" type="curve" smooth="yes"/>
      <point x="25" y="627"/>
      <point x="31" y="575"/>
      <point x="48" y="558" type="curve" smooth="yes"/>
      <point x="54" y="552"/>
      <point x="57" y="550"/>
      <point x="65" y="550" type="curve" smooth="yes"/>
      <point x="503" y="550" type="line"/>
      <point x="508" y="564"/>
      <point x="510" y="583"/>
      <point x="510" y="604" type="curve" smooth="yes"/>
      <point x="510" y="625"/>
      <point x="505" y="669"/>
      <point x="486" y="688" type="curve" smooth="yes"/>
      <point x="476" y="698"/>
      <point x="469" y="700"/>
      <point x="452" y="700" type="curve" smooth="yes"/>
    </contour>
    <contour>
      <point x="235" y="85" type="curve"/>
      <point x="235" y="477" type="line" smooth="yes"/>
      <point x="235" y="558"/>
      <point x="195" y="584"/>
      <point x="75" y="584" type="curve"/>
      <point x="75" y="140" type="line"/>
      <point x="75" y="97"/>
      <point x="151" y="85"/>
    </contour>
    <contour>
      <point x="75" y="150" type="line"/>
      <point x="75" y="132" type="line" smooth="yes"/>
      <point x="75" y="73"/>
      <point x="135" y="0"/>
      <point x="183" y="0" type="curve" smooth="yes"/>
      <point x="505" y="0" type="line"/>
      <point x="509" y="15"/>
      <point x="511" y="35"/>
      <point x="511" y="58" type="curve" smooth="yes"/>
      <point x="511" y="124"/>
      <point x="493" y="150"/>
      <point x="449" y="150" type="curve" smooth="yes"/>
    </contour>
    <contour>
      <point x="145" y="400" type="line"/>
      <point x="145" y="310"/>
      <point x="157" y="270"/>
      <point x="200" y="270" type="curve" smooth="yes"/>
      <point x="460" y="270" type="line"/>
      <point x="460" y="278"/>
      <point x="460" y="287"/>
      <point x="460" y="295" type="curve" smooth="yes"/>
      <point x="460" y="320"/>
      <point x="447" y="358"/>
      <point x="420" y="385" type="curve" smooth="yes"/>
      <point x="406" y="399"/>
      <point x="403" y="400"/>
      <point x="384" y="400" type="curve" smooth="yes"/>
    </contour>
    <contour>
      <point x="236" y="789" type="curve"/>
      <point x="236" y="887" type="line" smooth="yes"/>
      <point x="236" y="931"/>
      <point x="187" y="936"/>
      <point x="144" y="936" type="curve" smooth="yes"/>
      <point x="126" y="936"/>
      <point x="101" y="935"/>
      <point x="80" y="933" type="curve"/>
      <point x="80" y="836" type="line" smooth="yes"/>
      <point x="80" y="792"/>
      <point x="129" y="785"/>
      <point x="171" y="785" type="curve" smooth="yes"/>
      <point x="190" y="785"/>
      <point x="215" y="785"/>
    </contour>
    <contour>
      <point x="456" y="789" type="curve"/>
      <point x="456" y="887" type="line" smooth="yes"/>
      <point x="456" y="931"/>
      <point x="407" y="936"/>
      <point x="364" y="936" type="curve" smooth="yes"/>
      <point x="346" y="936"/>
      <point x="321" y="935"/>
      <point x="300" y="933" type="curve"/>
      <point x="300" y="836" type="line" smooth="yes"/>
      <point x="300" y="792"/>
      <point x="349" y="785"/>
      <point x="391" y="785" type="curve" smooth="yes"/>
      <point x="410" y="785"/>
      <point x="435" y="785"/>
    </contour>
  </outline>
</glyph>
<glyph name="Iacute" format="1">
  <advance width="500"/>
  <unicode hex="00CD"/>
  <outline>
    <contour>
      <point x="330" y="86" type="curve"/>
      <point x="330" y="477" type="line" smooth="yes"/>
      <point x="330" y="558"/>
      <point x="292" y="584"/>
      <point x="170" y="584" type="curve"/>
      <point x="170" y="228" type="line" smooth="yes"/>
      <point x="170" y="130"/>
      <point x="208" y="86"/>
    </contour>
    <contour>
      <point x="46" y="700" type="line"/>
      <point x="43" y="691"/>
      <point x="41" y="679"/>
      <point x="41" y="664" type="curve"/>
      <point x="41" y="626"/>
      <point x="50" y="597"/>
      <point x="70" y="577" type="curve" smooth="yes"/>
      <point x="92" y="555"/>
      <point x="122" y="550"/>
      <point x="195" y="550" type="curve" smooth="yes"/>
      <point x="454" y="550" type="line"/>
      <point x="459" y="570"/>
      <point x="461" y="590"/>
      <point x="461" y="608" type="curve" smooth="yes"/>
      <point x="461" y="659"/>
      <point x="453" y="700"/>
      <point x="399" y="700" type="curve" smooth="yes"/>
    </contour>
    <contour>
      <point x="48" y="150" type="line"/>
      <point x="43" y="134"/>
      <point x="41" y="116"/>
      <point x="41" y="97" type="curve"/>
      <point x="41" y="67"/>
      <point x="45" y="36"/>
      <point x="63" y="18" type="curve" smooth="yes"/>
      <point x="77" y="4"/>
      <point x="89" y="0"/>
      <point x="129" y="0" type="curve" smooth="yes"/>
      <point x="454" y="0" type="line"/>
      <point x="458" y="15"/>
      <point x="461" y="35"/>
      <point x="461" y="58" type="curve" smooth="yes"/>
      <point x="461" y="109"/>
      <point x="453" y="150"/>
      <point x="399" y="150" type="curve" smooth="yes"/>
    </contour>
    <contour>
      <point x="259" y="757" type="curve" smooth="yes"/>
      <point x="296" y="757"/>
      <point x="315" y="762"/>
      <point x="330" y="770" type="curve" smooth="yes"/>
      <point x="381" y="798"/>
      <point x="407" y="826"/>
      <point x="429" y="879" type="curve" smooth="yes"/>
      <point x="435" y="893"/>
      <point x="430" y="908"/>
      <point x="415" y="914" type="curve" smooth="yes"/>
      <point x="375" y="928"/>
      <point x="344" y="933"/>
      <point x="290" y="933" type="curve"/>
      <point x="269" y="866"/>
      <point x="230" y="822"/>
      <point x="169" y="770" type="curve"/>
      <point x="205" y="760"/>
      <point x="226" y="757"/>
    </contour>
  </outline>
</glyph>
<glyph name="Icircumflex" format="1">
  <advance width="500"/>
  <unicode hex="00CE"/>
  <outline>
    <contour>
      <point x="330" y="86" type="curve"/>
      <point x="330" y="477" type="line" smooth="yes"/>
      <point x="330" y="558"/>
      <point x="292" y="584"/>
      <point x="170" y="584" type="curve"/>
      <point x="170" y="228" type="line" smooth="yes"/>
      <point x="170" y="130"/>
      <point x="208" y="86"/>
    </contour>
    <contour>
      <point x="46" y="700" type="line"/>
      <point x="43" y="691"/>
      <point x="41" y="679"/>
      <point x="41" y="664" type="curve"/>
      <point x="41" y="626"/>
      <point x="50" y="597"/>
      <point x="70" y="577" type="curve" smooth="yes"/>
      <point x="92" y="555"/>
      <point x="122" y="550"/>
      <point x="195" y="550" type="curve" smooth="yes"/>
      <point x="454" y="550" type="line"/>
      <point x="459" y="570"/>
      <point x="461" y="590"/>
      <point x="461" y="608" type="curve" smooth="yes"/>
      <point x="461" y="659"/>
      <point x="453" y="700"/>
      <point x="399" y="700" type="curve" smooth="yes"/>
    </contour>
    <contour>
      <point x="48" y="150" type="line"/>
      <point x="43" y="134"/>
      <point x="41" y="116"/>
      <point x="41" y="97" type="curve"/>
      <point x="41" y="67"/>
      <point x="45" y="36"/>
      <point x="63" y="18" type="curve" smooth="yes"/>
      <point x="77" y="4"/>
      <point x="89" y="0"/>
      <point x="129" y="0" type="curve" smooth="yes"/>
      <point x="454" y="0" type="line"/>
      <point x="458" y="15"/>
      <point x="461" y="35"/>
      <point x="461" y="58" type="curve" smooth="yes"/>
      <point x="461" y="109"/>
      <point x="453" y="150"/>
      <point x="399" y="150" type="curve" smooth="yes"/>
    </contour>
    <contour>
      <point x="153" y="769" type="line"/>
      <point x="184" y="815"/>
      <point x="243" y="857"/>
      <point x="314" y="875" type="curve"/>
      <point x="314" y="925"/>
      <point x="283" y="943"/>
      <point x="234" y="943" type="curve"/>
      <point x="188" y="943" type="line"/>
      <point x="139" y="925"/>
      <point x="88" y="884"/>
      <point x="56" y="847" type="curve" smooth="yes"/>
      <point x="38" y="826"/>
      <point x="31" y="809"/>
      <point x="31" y="803" type="curve" smooth="yes"/>
      <point x="31" y="783"/>
      <point x="92" y="769"/>
      <point x="147" y="769" type="curve"/>
    </contour>
    <contour>
      <point x="485" y="783" type="curve"/>
      <point x="451" y="842"/>
      <point x="418" y="883"/>
      <point x="365" y="915" type="curve" smooth="yes"/>
      <point x="318" y="942"/>
      <point x="285" y="943"/>
      <point x="252" y="943" type="curve" smooth="yes"/>
      <point x="231" y="943" type="line"/>
      <point x="210" y="943"/>
      <point x="194" y="927"/>
      <point x="181" y="873" type="curve"/>
      <point x="262" y="853"/>
      <point x="294" y="832"/>
      <point x="329" y="794" type="curve" smooth="yes"/>
      <point x="343" y="779"/>
      <point x="360" y="769"/>
      <point x="396" y="769" type="curve" smooth="yes"/>
      <point x="433" y="769"/>
      <point x="458" y="773"/>
    </contour>
  </outline>
</glyph>
<glyph name="Idieresis" format="1">
  <advance width="500"/>
  <unicode hex="00CF"/>
  <outline>
    <contour>
      <point x="330" y="86" type="curve"/>
      <point x="330" y="477" type="line" smooth="yes"/>
      <point x="330" y="558"/>
      <point x="292" y="584"/>
      <point x="170" y="584" type="curve"/>
      <point x="170" y="228" type="line" smooth="yes"/>
      <point x="170" y="130"/>
      <point x="208" y="86"/>
    </contour>
    <contour>
      <point x="46" y="700" type="line"/>
      <point x="43" y="691"/>
      <point x="41" y="679"/>
      <point x="41" y="664" type="curve"/>
      <point x="41" y="626"/>
      <point x="50" y="597"/>
      <point x="70" y="577" type="curve" smooth="yes"/>
      <point x="92" y="555"/>
      <point x="122" y="550"/>
      <point x="195" y="550" type="curve" smooth="yes"/>
      <point x="454" y="550" type="line"/>
      <point x="459" y="570"/>
      <point x="461" y="590"/>
      <point x="461" y="608" type="curve" smooth="yes"/>
      <point x="461" y="659"/>
      <point x="453" y="700"/>
      <point x="399" y="700" type="curve" smooth="yes"/>
    </contour>
    <contour>
      <point x="48" y="150" type="line"/>
      <point x="43" y="134"/>
      <point x="41" y="116"/>
      <point x="41" y="97" type="curve"/>
      <point x="41" y="67"/>
      <point x="45" y="36"/>
      <point x="63" y="18" type="curve" smooth="yes"/>
      <point x="77" y="4"/>
      <point x="89" y="0"/>
      <point x="129" y="0" type="curve" smooth="yes"/>
      <point x="454" y="0" type="line"/>
      <point x="458" y="15"/>
      <point x="461" y="35"/>
      <point x="461" y="58" type="curve" smooth="yes"/>
      <point x="461" y="109"/>
      <point x="453" y="150"/>
      <point x="399" y="150" type="curve" smooth="yes"/>
    </contour>
    <contour>
      <point x="219" y="789" type="curve"/>
      <point x="219" y="887" type="line" smooth="yes"/>
      <point x="219" y="931"/>
      <point x="170" y="936"/>
      <point x="127" y="936" type="curve" smooth="yes"/>
      <point x="109" y="936"/>
      <point x="84" y="935"/>
      <point x="63" y="933" type="curve"/>
      <point x="63" y="836" type="line" smooth="yes"/>
      <point x="63" y="792"/>
      <point x="112" y="785"/>
      <point x="154" y="785" type="curve" smooth="yes"/>
      <point x="173" y="785"/>
      <point x="198" y="785"/>
    </contour>
    <contour>
      <point x="439" y="789" type="curve"/>
      <point x="439" y="887" type="line" smooth="yes"/>
      <point x="439" y="931"/>
      <point x="390" y="936"/>
      <point x="347" y="936" type="curve" smooth="yes"/>
      <point x="329" y="936"/>
      <point x="304" y="935"/>
      <point x="283" y="933" type="curve"/>
      <point x="283" y="836" type="line" smooth="yes"/>
      <point x="283" y="792"/>
      <point x="332" y="785"/>
      <point x="374" y="785" type="curve" smooth="yes"/>
      <point x="393" y="785"/>
      <point x="418" y="785"/>
    </contour>
  </outline>
</glyph>
<glyph name="Ntilde" format="1">
  <advance width="700"/>
  <unicode hex="00D1"/>
  <outline>
    <contour>
      <point x="225" y="-4" type="curve"/>
      <point x="225" y="101" type="line"/>
      <point x="225" y="443"/>
      <point x="199" y="655"/>
      <point x="161" y="693" type="curve" smooth="yes"/>
      <point x="153" y="701"/>
      <point x="138" y="710"/>
      <point x="130" y="710" type="curve"/>
      <point x="105" y="710"/>
      <point x="88" y="708"/>
      <point x="62" y="701" type="curve"/>
      <point x="71" y="665"/>
      <point x="75" y="630"/>
      <point x="75" y="590" type="curve" smooth="yes"/>
      <point x="75" y="57" type="line"/>
      <point x="75" y="8"/>
      <point x="135" y="-9"/>
      <point x="178" y="-9" type="curve"/>
      <point x="198" y="-9"/>
      <point x="210" y="-9"/>
    </contour>
    <contour>
      <point x="635" y="-10" type="line"/>
      <point x="635" y="651" type="line"/>
      <point x="635" y="691"/>
      <point x="580" y="710"/>
      <point x="510" y="710" type="curve"/>
      <point x="485" y="710" type="line"/>
      <point x="485" y="470" type="line"/>
      <point x="485" y="225"/>
      <point x="509" y="54"/>
      <point x="543" y="20" type="curve" smooth="yes"/>
      <point x="564" y="-1"/>
      <point x="592" y="-10"/>
      <point x="610" y="-10" type="curve"/>
    </contour>
    <contour>
      <point x="130" y="710" type="line"/>
      <point x="157" y="683"/>
      <point x="167" y="627"/>
      <point x="176" y="579" type="curve"/>
      <point x="222" y="323"/>
      <point x="390" y="121"/>
      <point x="476" y="35" type="curve"/>
      <point x="506" y="5"/>
      <point x="557" y="-10"/>
      <point x="610" y="-10" type="curve" smooth="yes"/>
      <point x="614" y="-10"/>
      <point x="615" y="-10"/>
      <point x="619" y="-10" type="curve"/>
      <point x="624" y="-10"/>
      <point x="626" y="29"/>
      <point x="626" y="87" type="curve"/>
      <point x="444" y="254"/>
      <point x="336" y="442"/>
      <point x="270" y="667" type="curve"/>
      <point x="262" y="695"/>
      <point x="188" y="710"/>
      <point x="132" y="710" type="curve"/>
    </contour>
    <contour>
      <point x="444" y="902" type="curve" smooth="yes"/>
      <point x="374" y="902"/>
      <point x="309" y="974"/>
      <point x="238" y="974" type="curve" smooth="yes"/>
      <point x="195" y="974"/>
      <point x="170" y="951"/>
      <point x="156" y="915" type="curve" smooth="yes"/>
      <point x="150" y="901"/>
      <point x="143" y="874"/>
      <point x="143" y="836" type="curve" smooth="yes"/>
      <point x="143" y="821"/>
      <point x="145" y="799"/>
      <point x="150" y="784" type="curve"/>
      <point x="154" y="784" type="line"/>
      <point x="188" y="819"/>
      <point x="212" y="832"/>
      <point x="252" y="832" type="curve" smooth="yes"/>
      <point x="322" y="832"/>
      <point x="387" y="760"/>
      <point x="458" y="760" type="curve" smooth="yes"/>
      <point x="501" y="760"/>
      <point x="526" y="783"/>
      <point x="540" y="819" type="curve" smooth="yes"/>
      <point x="546" y="833"/>
      <point x="553" y="860"/>
      <point x="553" y="898" type="curve" smooth="yes"/>
      <point x="553" y="913"/>
      <point x="551" y="935"/>
      <point x="546" y="950" type="curve"/>
      <point x="542" y="950" type="line"/>
      <point x="508" y="915"/>
      <point x="484" y="902"/>
    </contour>
  </outline>
</glyph>
<glyph name="Oacute" format="1">
  <advance width="650"/>
  <unicode hex="00D3"/>
  <outline>
    <contour>
      <point x="320" y="720" type="curve" smooth="yes"/>
      <point x="149" y="720"/>
      <point x="50" y="583"/>
      <point x="50" y="342" type="curve" smooth="yes"/>
      <point x="50" y="326" type="line" smooth="yes"/>
      <point x="50" y="103"/>
      <point x="148" y="-20"/>
      <point x="329" y="-20" type="curve" smooth="yes"/>
      <point x="374" y="-20"/>
      <point x="404" y="28"/>
      <point x="404" y="98" type="curve"/>
      <point x="252" y="98"/>
      <point x="200" y="171"/>
      <point x="200" y="309" type="curve" smooth="yes"/>
      <point x="200" y="322" type="line" smooth="yes"/>
      <point x="200" y="502"/>
      <point x="238" y="571"/>
      <point x="323" y="571" type="curve" smooth="yes"/>
      <point x="380" y="571"/>
      <point x="409" y="560"/>
      <point x="447" y="535" type="curve"/>
      <point x="499" y="583"/>
      <point x="405" y="720"/>
    </contour>
    <contour>
      <point x="329" y="-20" type="curve" smooth="yes"/>
      <point x="500" y="-20"/>
      <point x="600" y="117"/>
      <point x="600" y="358" type="curve" smooth="yes"/>
      <point x="600" y="374" type="line" smooth="yes"/>
      <point x="600" y="597"/>
      <point x="501" y="720"/>
      <point x="320" y="720" type="curve" smooth="yes"/>
      <point x="275" y="720"/>
      <point x="245" y="672"/>
      <point x="245" y="602" type="curve"/>
      <point x="398" y="602"/>
      <point x="450" y="529"/>
      <point x="450" y="391" type="curve" smooth="yes"/>
      <point x="450" y="378" type="line" smooth="yes"/>
      <point x="450" y="198"/>
      <point x="411" y="129"/>
      <point x="326" y="129" type="curve" smooth="yes"/>
      <point x="269" y="129"/>
      <point x="240" y="140"/>
      <point x="202" y="165" type="curve"/>
      <point x="150" y="117"/>
      <point x="244" y="-20"/>
    </contour>
    <contour>
      <point x="333" y="757" type="curve" smooth="yes"/>
      <point x="370" y="757"/>
      <point x="389" y="762"/>
      <point x="404" y="770" type="curve" smooth="yes"/>
      <point x="455" y="798"/>
      <point x="481" y="826"/>
      <point x="503" y="879" type="curve" smooth="yes"/>
      <point x="509" y="893"/>
      <point x="504" y="908"/>
      <point x="489" y="914" type="curve" smooth="yes"/>
      <point x="449" y="928"/>
      <point x="418" y="933"/>
      <point x="364" y="933" type="curve"/>
      <point x="343" y="866"/>
      <point x="304" y="822"/>
      <point x="243" y="770" type="curve"/>
      <point x="279" y="760"/>
      <point x="300" y="757"/>
    </contour>
  </outline>
</glyph>
<glyph name="Ocircumflex" format="1">
  <advance width="650"/>
  <unicode hex="00D4"/>
  <outline>
    <contour>
      <point x="320" y="720" type="curve" smooth="yes"/>
      <point x="149" y="720"/>
      <point x="50" y="583"/>
      <point x="50" y="342" type="curve" smooth="yes"/>
      <point x="50" y="326" type="line" smooth="yes"/>
      <point x="50" y="103"/>
      <point x="148" y="-20"/>
      <point x="329" y="-20" type="curve" smooth="yes"/>
      <point x="374" y="-20"/>
      <point x="404" y="28"/>
      <point x="404" y="98" type="curve"/>
      <point x="252" y="98"/>
      <point x="200" y="171"/>
      <point x="200" y="309" type="curve" smooth="yes"/>
      <point x="200" y="322" type="line" smooth="yes"/>
      <point x="200" y="502"/>
      <point x="238" y="571"/>
      <point x="323" y="571" type="curve" smooth="yes"/>
      <point x="380" y="571"/>
      <point x="409" y="560"/>
      <point x="447" y="535" type="curve"/>
      <point x="499" y="583"/>
      <point x="405" y="720"/>
    </contour>
    <contour>
      <point x="329" y="-20" type="curve" smooth="yes"/>
      <point x="500" y="-20"/>
      <point x="600" y="117"/>
      <point x="600" y="358" type="curve" smooth="yes"/>
      <point x="600" y="374" type="line" smooth="yes"/>
      <point x="600" y="597"/>
      <point x="501" y="720"/>
      <point x="320" y="720" type="curve" smooth="yes"/>
      <point x="275" y="720"/>
      <point x="245" y="672"/>
      <point x="245" y="602" type="curve"/>
      <point x="398" y="602"/>
      <point x="450" y="529"/>
      <point x="450" y="391" type="curve" smooth="yes"/>
      <point x="450" y="378" type="line" smooth="yes"/>
      <point x="450" y="198"/>
      <point x="411" y="129"/>
      <point x="326" y="129" type="curve" smooth="yes"/>
      <point x="269" y="129"/>
      <point x="240" y="140"/>
      <point x="202" y="165" type="curve"/>
      <point x="150" y="117"/>
      <point x="244" y="-20"/>
    </contour>
    <contour>
      <point x="227" y="769" type="line"/>
      <point x="258" y="815"/>
      <point x="317" y="857"/>
      <point x="388" y="875" type="curve"/>
      <point x="388" y="925"/>
      <point x="357" y="943"/>
      <point x="308" y="943" type="curve"/>
      <point x="262" y="943" type="line"/>
      <point x="213" y="925"/>
      <point x="162" y="884"/>
      <point x="130" y="847" type="curve" smooth="yes"/>
      <point x="112" y="826"/>
      <point x="105" y="809"/>
      <point x="105" y="803" type="curve" smooth="yes"/>
      <point x="105" y="783"/>
      <point x="166" y="769"/>
      <point x="221" y="769" type="curve"/>
    </contour>
    <contour>
      <point x="559" y="783" type="curve"/>
      <point x="525" y="842"/>
      <point x="492" y="883"/>
      <point x="439" y="915" type="curve" smooth="yes"/>
      <point x="392" y="942"/>
      <point x="359" y="943"/>
      <point x="326" y="943" type="curve" smooth="yes"/>
      <point x="305" y="943" type="line"/>
      <point x="284" y="943"/>
      <point x="268" y="927"/>
      <point x="255" y="873" type="curve"/>
      <point x="336" y="853"/>
      <point x="368" y="832"/>
      <point x="403" y="794" type="curve" smooth="yes"/>
      <point x="417" y="779"/>
      <point x="434" y="769"/>
      <point x="470" y="769" type="curve" smooth="yes"/>
      <point x="507" y="769"/>
      <point x="532" y="773"/>
    </contour>
  </outline>
</glyph>
<glyph name="Otilde" format="1">
  <advance width="650"/>
  <unicode hex="00D5"/>
  <outline>
    <contour>
      <point x="320" y="720" type="curve" smooth="yes"/>
      <point x="149" y="720"/>
      <point x="50" y="583"/>
      <point x="50" y="342" type="curve" smooth="yes"/>
      <point x="50" y="326" type="line" smooth="yes"/>
      <point x="50" y="103"/>
      <point x="148" y="-20"/>
      <point x="329" y="-20" type="curve" smooth="yes"/>
      <point x="374" y="-20"/>
      <point x="404" y="28"/>
      <point x="404" y="98" type="curve"/>
      <point x="252" y="98"/>
      <point x="200" y="171"/>
      <point x="200" y="309" type="curve" smooth="yes"/>
      <point x="200" y="322" type="line" smooth="yes"/>
      <point x="200" y="502"/>
      <point x="238" y="571"/>
      <point x="323" y="571" type="curve" smooth="yes"/>
      <point x="380" y="571"/>
      <point x="409" y="560"/>
      <point x="447" y="535" type="curve"/>
      <point x="499" y="583"/>
      <point x="405" y="720"/>
    </contour>
    <contour>
      <point x="329" y="-20" type="curve" smooth="yes"/>
      <point x="500" y="-20"/>
      <point x="600" y="117"/>
      <point x="600" y="358" type="curve" smooth="yes"/>
      <point x="600" y="374" type="line" smooth="yes"/>
      <point x="600" y="597"/>
      <point x="501" y="720"/>
      <point x="320" y="720" type="curve" smooth="yes"/>
      <point x="275" y="720"/>
      <point x="245" y="672"/>
      <point x="245" y="602" type="curve"/>
      <point x="398" y="602"/>
      <point x="450" y="529"/>
      <point x="450" y="391" type="curve" smooth="yes"/>
      <point x="450" y="378" type="line" smooth="yes"/>
      <point x="450" y="198"/>
      <point x="411" y="129"/>
      <point x="326" y="129" type="curve" smooth="yes"/>
      <point x="269" y="129"/>
      <point x="240" y="140"/>
      <point x="202" y="165" type="curve"/>
      <point x="150" y="117"/>
      <point x="244" y="-20"/>
    </contour>
    <contour>
      <point x="421" y="902" type="curve" smooth="yes"/>
      <point x="351" y="902"/>
      <point x="286" y="974"/>
      <point x="215" y="974" type="curve" smooth="yes"/>
      <point x="172" y="974"/>
      <point x="147" y="951"/>
      <point x="133" y="915" type="curve" smooth="yes"/>
      <point x="127" y="901"/>
      <point x="120" y="874"/>
      <point x="120" y="836" type="curve" smooth="yes"/>
      <point x="120" y="821"/>
      <point x="122" y="799"/>
      <point x="127" y="784" type="curve"/>
      <point x="131" y="784" type="line"/>
      <point x="165" y="819"/>
      <point x="189" y="832"/>
      <point x="229" y="832" type="curve" smooth="yes"/>
      <point x="299" y="832"/>
      <point x="364" y="760"/>
      <point x="435" y="760" type="curve" smooth="yes"/>
      <point x="478" y="760"/>
      <point x="503" y="783"/>
      <point x="517" y="819" type="curve" smooth="yes"/>
      <point x="523" y="833"/>
      <point x="530" y="860"/>
      <point x="530" y="898" type="curve" smooth="yes"/>
      <point x="530" y="913"/>
      <point x="528" y="935"/>
      <point x="523" y="950" type="curve"/>
      <point x="519" y="950" type="line"/>
      <point x="485" y="915"/>
      <point x="461" y="902"/>
    </contour>
  </outline>
</glyph>
<glyph name="Ucircumflex" format="1">
  <advance width="650"/>
  <unicode hex="00DB"/>
  <outline>
    <contour>
      <point x="52" y="702" type="curve"/>
      <point x="61" y="667"/>
      <point x="65" y="630"/>
      <point x="65" y="589" type="curve" smooth="yes"/>
      <point x="65" y="138" type="line"/>
      <point x="65" y="96"/>
      <point x="114" y="83"/>
      <point x="191" y="83" type="curve"/>
      <point x="223" y="295"/>
      <point x="244" y="412"/>
      <point x="244" y="549" type="curve"/>
      <point x="244" y="559" type="line"/>
      <point x="244" y="675"/>
      <point x="198" y="709"/>
      <point x="116" y="709" type="curve"/>
      <point x="92" y="709"/>
      <point x="74" y="707"/>
    </contour>
    <contour>
      <point x="206" y="-10" type="curve" smooth="yes"/>
      <point x="271" y="-10"/>
      <point x="378" y="38"/>
      <point x="430" y="130" type="curve" smooth="yes"/>
      <point x="466" y="197"/>
      <point x="483" y="212"/>
      <point x="429" y="291" type="curve"/>
      <point x="379" y="192"/>
      <point x="302" y="160"/>
      <point x="231" y="160" type="curve" smooth="yes"/>
      <point x="200" y="160"/>
      <point x="181" y="172"/>
      <point x="171" y="202" type="curve"/>
      <point x="141" y="202"/>
      <point x="65" y="173"/>
      <point x="65" y="138" type="curve" smooth="yes"/>
      <point x="65" y="72"/>
      <point x="142" y="-10"/>
    </contour>
    <contour>
      <point x="593" y="-7" type="curve"/>
      <point x="586" y="28"/>
      <point x="585" y="64"/>
      <point x="585" y="101" type="curve" smooth="yes"/>
      <point x="585" y="650" type="line" smooth="yes"/>
      <point x="585" y="691"/>
      <point x="547" y="709"/>
      <point x="470" y="709" type="curve" smooth="yes"/>
      <point x="454" y="709"/>
      <point x="439" y="707"/>
      <point x="425" y="703" type="curve"/>
      <point x="425" y="87" type="line" smooth="yes"/>
      <point x="425" y="55"/>
      <point x="432" y="37"/>
      <point x="451" y="18" type="curve" smooth="yes"/>
      <point x="469" y="0"/>
      <point x="509" y="-10"/>
      <point x="549" y="-10" type="curve" smooth="yes"/>
      <point x="567" y="-10"/>
      <point x="578" y="-9"/>
    </contour>
    <contour>
      <point x="224" y="769" type="line"/>
      <point x="255" y="815"/>
      <point x="314" y="857"/>
      <point x="385" y="875" type="curve"/>
      <point x="385" y="925"/>
      <point x="354" y="943"/>
      <point x="305" y="943" type="curve"/>
      <point x="259" y="943" type="line"/>
      <point x="210" y="925"/>
      <point x="159" y="884"/>
      <point x="127" y="847" type="curve" smooth="yes"/>
      <point x="109" y="826"/>
      <point x="102" y="809"/>
      <point x="102" y="803" type="curve" smooth="yes"/>
      <point x="102" y="783"/>
      <point x="163" y="769"/>
      <point x="218" y="769" type="curve"/>
    </contour>
    <contour>
      <point x="556" y="783" type="curve"/>
      <point x="522" y="842"/>
      <point x="489" y="883"/>
      <point x="436" y="915" type="curve" smooth="yes"/>
      <point x="389" y="942"/>
      <point x="356" y="943"/>
      <point x="323" y="943" type="curve" smooth="yes"/>
      <point x="302" y="943" type="line"/>
      <point x="281" y="943"/>
      <point x="265" y="927"/>
      <point x="252" y="873" type="curve"/>
      <point x="333" y="853"/>
      <point x="365" y="832"/>
      <point x="400" y="794" type="curve" smooth="yes"/>
      <point x="414" y="779"/>
      <point x="431" y="769"/>
      <point x="467" y="769" type="curve" smooth="yes"/>
      <point x="504" y="769"/>
      <point x="529" y="773"/>
    </contour>
  </outline>
</glyph>
<glyph name="Udieresis" format="1">
  <advance width="650"/>
  <unicode hex="00DC"/>
  <outline>
    <contour>
      <point x="52" y="702" type="curve"/>
      <point x="61" y="667"/>
      <point x="65" y="630"/>
      <point x="65" y="589" type="curve" smooth="yes"/>
      <point x="65" y="138" type="line"/>
      <point x="65" y="96"/>
      <point x="114" y="83"/>
      <point x="191" y="83" type="curve"/>
      <point x="223" y="295"/>
      <point x="244" y="412"/>
      <point x="244" y="549" type="curve"/>
      <point x="244" y="559" type="line"/>
      <point x="244" y="675"/>
      <point x="198" y="709"/>
      <point x="116" y="709" type="curve"/>
      <point x="92" y="709"/>
      <point x="74" y="707"/>
    </contour>
    <contour>
      <point x="206" y="-10" type="curve" smooth="yes"/>
      <point x="271" y="-10"/>
      <point x="378" y="38"/>
      <point x="430" y="130" type="curve" smooth="yes"/>
      <point x="466" y="197"/>
      <point x="483" y="212"/>
      <point x="429" y="291" type="curve"/>
      <point x="379" y="192"/>
      <point x="302" y="160"/>
      <point x="231" y="160" type="curve" smooth="yes"/>
      <point x="200" y="160"/>
      <point x="181" y="172"/>
      <point x="171" y="202" type="curve"/>
      <point x="141" y="202"/>
      <point x="65" y="173"/>
      <point x="65" y="138" type="curve" smooth="yes"/>
      <point x="65" y="72"/>
      <point x="142" y="-10"/>
    </contour>
    <contour>
      <point x="593" y="-7" type="curve"/>
      <point x="586" y="28"/>
      <point x="585" y="64"/>
      <point x="585" y="101" type="curve" smooth="yes"/>
      <point x="585" y="650" type="line" smooth="yes"/>
      <point x="585" y="691"/>
      <point x="547" y="709"/>
      <point x="470" y="709" type="curve" smooth="yes"/>
      <point x="454" y="709"/>
      <point x="439" y="707"/>
      <point x="425" y="703" type="curve"/>
      <point x="425" y="87" type="line" smooth="yes"/>
      <point x="425" y="55"/>
      <point x="432" y="37"/>
      <point x="451" y="18" type="curve" smooth="yes"/>
      <point x="469" y="0"/>
      <point x="509" y="-10"/>
      <point x="549" y="-10" type="curve" smooth="yes"/>
      <point x="567" y="-10"/>
      <point x="578" y="-9"/>
    </contour>
    <contour>
      <point x="290" y="789" type="curve"/>
      <point x="290" y="887" type="line" smooth="yes"/>
      <point x="290" y="931"/>
      <point x="241" y="936"/>
      <point x="198" y="936" type="curve" smooth="yes"/>
      <point x="180" y="936"/>
      <point x="155" y="935"/>
      <point x="134" y="933" type="curve"/>
      <point x="134" y="836" type="line" smooth="yes"/>
      <point x="134" y="792"/>
      <point x="183" y="785"/>
      <point x="225" y="785" type="curve" smooth="yes"/>
      <point x="244" y="785"/>
      <point x="269" y="785"/>
    </contour>
    <contour>
      <point x="510" y="789" type="curve"/>
      <point x="510" y="887" type="line" smooth="yes"/>
      <point x="510" y="931"/>
      <point x="461" y="936"/>
      <point x="418" y="936" type="curve" smooth="yes"/>
      <point x="400" y="936"/>
      <point x="375" y="935"/>
      <point x="354" y="933" type="curve"/>
      <point x="354" y="836" type="line" smooth="yes"/>
      <point x="354" y="792"/>
      <point x="403" y="785"/>
      <point x="445" y="785" type="curve" smooth="yes"/>
      <point x="464" y="785"/>
      <point x="489" y="785"/>
    </contour>
  </outline>
</glyph>
<glyph name="Yacute" format="1">
  <advance width="600"/>
  <unicode hex="00DD"/>
  <outline>
    <contour>
      <point x="48" y="710" type="line"/>
      <point x="70" y="475"/>
      <point x="116" y="326"/>
      <point x="205" y="237" type="curve"/>
      <point x="247" y="195"/>
      <point x="281" y="190"/>
      <point x="310" y="190" type="curve"/>
      <point x="358" y="190"/>
      <point x="385" y="204"/>
      <point x="385" y="281" type="curve"/>
      <point x="280" y="341"/>
      <point x="239" y="432"/>
      <point x="214" y="660" type="curve"/>
      <point x="211" y="688"/>
      <point x="138" y="710"/>
      <point x="72" y="710" type="curve" smooth="yes"/>
    </contour>
    <contour>
      <point x="396" y="710" type="line"/>
      <point x="373" y="472"/>
      <point x="346" y="383"/>
      <point x="247" y="302" type="curve"/>
      <point x="221" y="281"/>
      <point x="250" y="190"/>
      <point x="310" y="190" type="curve"/>
      <point x="350" y="190" type="line"/>
      <point x="448" y="273"/>
      <point x="529" y="442"/>
      <point x="547" y="636" type="curve"/>
      <point x="551" y="679"/>
      <point x="484" y="710"/>
      <point x="420" y="710" type="curve"/>
    </contour>
    <contour>
      <point x="393" y="-3" type="curve"/>
      <point x="384" y="33"/>
      <point x="380" y="70"/>
      <point x="380" y="110" type="curve" smooth="yes"/>
      <point x="380" y="253" type="line" smooth="yes"/>
      <point x="380" y="291"/>
      <point x="312" y="320"/>
      <point x="220" y="320" type="curve"/>
      <point x="220" y="60" type="line" smooth="yes"/>
      <point x="220" y="35"/>
      <point x="224" y="23"/>
      <point x="235" y="12" type="curve" smooth="yes"/>
      <point x="251" y="-4"/>
      <point x="276" y="-10"/>
      <point x="326" y="-10" type="curve" smooth="yes"/>
      <point x="351" y="-10"/>
      <point x="370" y="-8"/>
    </contour>
    <contour>
      <point x="308" y="758" type="curve" smooth="yes"/>
      <point x="345" y="758"/>
      <point x="364" y="763"/>
      <point x="379" y="771" type="curve" smooth="yes"/>
      <point x="430" y="799"/>
      <point x="456" y="827"/>
      <point x="478" y="880" type="curve" smooth="yes"/>
      <point x="484" y="894"/>
      <point x="479" y="909"/>
      <point x="464" y="915" type="curve" smooth="yes"/>
      <point x="424" y="929"/>
      <point x="393" y="934"/>
      <point x="339" y="934" type="curve"/>
      <point x="318" y="867"/>
      <point x="279" y="823"/>
      <point x="218" y="771" type="curve"/>
      <point x="254" y="761"/>
      <point x="275" y="758"/>
    </contour>
  </outline>
</glyph>
<glyph name="ae" format="1">
  <advance width="850"/>
  <unicode hex="00E6"/>
  <outline>
    <contour>
      <point x="247" y="550" type="curve" smooth="yes"/>
      <point x="148" y="550"/>
      <point x="105" y="541"/>
      <point x="84" y="520" type="curve" smooth="yes"/>
      <point x="66" y="502"/>
      <point x="60" y="469"/>
      <point x="60" y="442" type="curve" smooth="yes"/>
      <point x="60" y="414"/>
      <point x="60" y="390"/>
      <point x="65" y="373" type="curve"/>
      <point x="69" y="373" type="line"/>
      <point x="131" y="397"/>
      <point x="171" y="405"/>
      <point x="237" y="405" type="curve" smooth="yes"/>
      <point x="325" y="405"/>
      <point x="352" y="382"/>
      <point x="352" y="332" type="curve" smooth="yes"/>
      <point x="352" y="120" type="line"/>
      <point x="407" y="120"/>
      <point x="492" y="151"/>
      <point x="492" y="277" type="curve"/>
      <point x="492" y="322" type="line" smooth="yes"/>
      <point x="492" y="434"/>
      <point x="382" y="550"/>
    </contour>
    <contour>
      <point x="193" y="179" type="curve" smooth="yes"/>
      <point x="193" y="187" type="line" smooth="yes"/>
      <point x="193" y="216"/>
      <point x="204" y="228"/>
      <point x="214" y="253" type="curve"/>
      <point x="165" y="275"/>
      <point x="43" y="211"/>
      <point x="43" y="158" type="curve" smooth="yes"/>
      <point x="43" y="142" type="line" smooth="yes"/>
      <point x="43" y="43"/>
      <point x="103" y="-10"/>
      <point x="213" y="-10" type="curve" smooth="yes"/>
      <point x="339" y="-10"/>
      <point x="431" y="81"/>
      <point x="431" y="146" type="curve" smooth="yes"/>
      <point x="431" y="179"/>
      <point x="418" y="193"/>
      <point x="374" y="190" type="curve"/>
      <point x="349" y="146"/>
      <point x="301" y="125"/>
      <point x="238" y="125" type="curve" smooth="yes"/>
      <point x="235" y="125" type="line" smooth="yes"/>
      <point x="207" y="125"/>
      <point x="193" y="139"/>
    </contour>
    <contour>
      <point x="403" y="277" type="curve" smooth="yes"/>
      <point x="361" y="296"/>
      <point x="310" y="318"/>
      <point x="221" y="318" type="curve" smooth="yes"/>
      <point x="138" y="318"/>
      <point x="43" y="229"/>
      <point x="43" y="158" type="curve" smooth="yes"/>
      <point x="43" y="121"/>
      <point x="61" y="96"/>
      <point x="92" y="96" type="curve"/>
      <point x="138" y="182"/>
      <point x="187" y="217"/>
      <point x="263" y="217" type="curve" smooth="yes"/>
      <point x="311" y="217"/>
      <point x="355" y="213"/>
      <point x="422" y="197" type="curve"/>
      <point x="422" y="241"/>
      <point x="419" y="270"/>
    </contour>
    <contour>
      <point x="596" y="209" type="line" smooth="yes"/>
      <point x="729" y="209"/>
      <point x="808" y="255"/>
      <point x="808" y="356" type="curve" smooth="yes"/>
      <point x="808" y="372" type="line" smooth="yes"/>
      <point x="808" y="479"/>
      <point x="726" y="552"/>
      <point x="629" y="552" type="curve" smooth="yes"/>
      <point x="580" y="552"/>
      <point x="563" y="532"/>
      <point x="563" y="457" type="curve"/>
      <point x="627" y="457"/>
      <point x="655" y="420"/>
      <point x="655" y="369" type="curve" smooth="yes"/>
      <point x="655" y="357" type="line" smooth="yes"/>
      <point x="655" y="319"/>
      <point x="623" y="304"/>
      <point x="554" y="304" type="curve" smooth="yes"/>
      <point x="514" y="304"/>
      <point x="490" y="305"/>
      <point x="451" y="317" type="curve"/>
      <point x="445" y="275"/>
      <point x="451" y="250"/>
      <point x="466" y="235" type="curve" smooth="yes"/>
      <point x="485" y="216"/>
      <point x="533" y="209"/>
      <point x="586" y="209" type="curve" smooth="yes"/>
    </contour>
    <contour>
      <point x="612" y="412" type="curve" smooth="yes"/>
      <point x="647" y="412"/>
      <point x="667" y="404"/>
      <point x="690" y="387" type="curve"/>
      <point x="758" y="489"/>
      <point x="696" y="552"/>
      <point x="629" y="552" type="curve"/>
      <point x="464" y="552"/>
      <point x="362" y="439"/>
      <point x="362" y="246" type="curve" smooth="yes"/>
      <point x="362" y="228" type="line" smooth="yes"/>
      <point x="362" y="88"/>
      <point x="450" y="-12"/>
      <point x="628" y="-12" type="curve" smooth="yes"/>
      <point x="636" y="-12"/>
      <point x="655" y="6"/>
      <point x="655" y="78" type="curve"/>
      <point x="562" y="79"/>
      <point x="502" y="129"/>
      <point x="502" y="203" type="curve" smooth="yes"/>
      <point x="502" y="267" type="line" smooth="yes"/>
      <point x="502" y="377"/>
      <point x="533" y="412"/>
    </contour>
    <contour>
      <point x="762" y="23" type="curve" smooth="yes"/>
      <point x="784" y="45"/>
      <point x="794" y="73"/>
      <point x="794" y="102" type="curve" smooth="yes"/>
      <point x="794" y="132"/>
      <point x="791" y="151"/>
      <point x="787" y="167" type="curve"/>
      <point x="783" y="167" type="line"/>
      <point x="736" y="136"/>
      <point x="688" y="120"/>
      <point x="624" y="120" type="curve" smooth="yes"/>
      <point x="560" y="120"/>
      <point x="520" y="136"/>
      <point x="481" y="167" type="curve"/>
      <point x="457" y="90"/>
      <point x="499" y="-12"/>
      <point x="628" y="-12" type="curve" smooth="yes"/>
      <point x="683" y="-12"/>
      <point x="739" y="0"/>
    </contour>
    <contour>
      <point x="425" y="551" type="move" name="top"/>
    </contour>
  </outline>
</glyph>
<glyph name="ccedilla" format="1">
  <advance width="500"/>
  <unicode hex="00E7"/>
  <outline>
    <contour>
      <point x="332" y="552" type="curve" smooth="yes"/>
      <point x="165" y="552"/>
      <point x="51" y="433"/>
      <point x="51" y="259" type="curve" smooth="yes"/>
      <point x="51" y="245" type="line" smooth="yes"/>
      <point x="51" y="61"/>
      <point x="164" y="-12"/>
      <point x="303" y="-12" type="curve" smooth="yes"/>
      <point x="337" y="-12"/>
      <point x="335" y="13"/>
      <point x="335" y="51" type="curve"/>
      <point x="239" y="71"/>
      <point x="201" y="143"/>
      <point x="201" y="232" type="curve" smooth="yes"/>
      <point x="201" y="243" type="line" smooth="yes"/>
      <point x="201" y="332"/>
      <point x="244" y="398"/>
      <point x="322" y="398" type="curve" smooth="yes"/>
      <point x="372" y="398"/>
      <point x="401" y="390"/>
      <point x="439" y="363" type="curve"/>
      <point x="443" y="363" type="line"/>
      <point x="455" y="389"/>
      <point x="460" y="416"/>
      <point x="460" y="451" type="curve"/>
      <point x="460" y="491"/>
      <point x="452" y="509"/>
      <point x="436" y="525" type="curve" smooth="yes"/>
      <point x="419" y="542"/>
      <point x="383" y="552"/>
    </contour>
    <contour>
      <point x="303" y="-12" type="curve" smooth="yes"/>
      <point x="368" y="-12"/>
      <point x="415" y="-1"/>
      <point x="435" y="19" type="curve" smooth="yes"/>
      <point x="457" y="41"/>
      <point x="467" y="79"/>
      <point x="467" y="130" type="curve"/>
      <point x="467" y="152"/>
      <point x="466" y="165"/>
      <point x="463" y="180" type="curve"/>
      <point x="459" y="180" type="line"/>
      <point x="412" y="145"/>
      <point x="370" y="133"/>
      <point x="312" y="133" type="curve" smooth="yes"/>
      <point x="248" y="133"/>
      <point x="198" y="153"/>
      <point x="156" y="206" type="curve"/>
      <point x="84" y="110"/>
      <point x="163" y="-12"/>
    </contour>
    <contour>
      <point x="411" y="-107" type="curve" smooth="yes"/>
      <point x="411" y="-37"/>
      <point x="366" y="-5"/>
      <point x="324" y="-1" type="curve"/>
      <point x="324" y="17"/>
      <point x="325" y="30"/>
      <point x="328" y="43" type="curve"/>
      <point x="273" y="43"/>
      <point x="260" y="37"/>
      <point x="254" y="28" type="curve" smooth="yes"/>
      <point x="240" y="8"/>
      <point x="235" y="-16"/>
      <point x="235" y="-30" type="curve" smooth="yes"/>
      <point x="235" y="-37"/>
      <point x="238" y="-39"/>
      <point x="245" y="-39" type="curve" smooth="yes"/>
      <point x="276" y="-39"/>
      <point x="290" y="-52"/>
      <point x="290" y="-77" type="curve" smooth="yes"/>
      <point x="290" y="-103"/>
      <point x="272" y="-118"/>
      <point x="240" y="-118" type="curve" smooth="yes"/>
      <point x="209" y="-118"/>
      <point x="191" y="-112"/>
      <point x="171" y="-98" type="curve"/>
      <point x="167" y="-98" type="line"/>
      <point x="160" y="-117"/>
      <point x="158" y="-137"/>
      <point x="158" y="-157" type="curve" smooth="yes"/>
      <point x="158" y="-208"/>
      <point x="182" y="-248"/>
      <point x="253" y="-248" type="curve" smooth="yes"/>
      <point x="367" y="-248"/>
      <point x="411" y="-178"/>
    </contour>
  </outline>
</glyph>
<glyph name="ecircumflex" format="1">
  <advance width="600"/>
  <unicode hex="00EA"/>
  <outline>
    <contour>
      <point x="345" y="415" type="curve" smooth="yes"/>
      <point x="365" y="415"/>
      <point x="381" y="411"/>
      <point x="402" y="403" type="curve"/>
      <point x="426" y="421"/>
      <point x="437" y="449"/>
      <point x="437" y="474" type="curve"/>
      <point x="437" y="531"/>
      <point x="387" y="552"/>
      <point x="339" y="552" type="curve"/>
      <point x="163" y="552"/>
      <point x="50" y="426"/>
      <point x="50" y="262" type="curve" smooth="yes"/>
      <point x="50" y="259" type="line" smooth="yes"/>
      <point x="50" y="86"/>
      <point x="163" y="-20"/>
      <point x="332" y="-20" type="curve" smooth="yes"/>
      <point x="382" y="-20"/>
      <point x="393" y="20"/>
      <point x="394" y="69" type="curve"/>
      <point x="217" y="69"/>
      <point x="200" y="172"/>
      <point x="200" y="227" type="curve" smooth="yes"/>
      <point x="200" y="230" type="line" smooth="yes"/>
      <point x="200" y="355"/>
      <point x="258" y="415"/>
    </contour>
    <contour>
      <point x="498" y="21" type="curve" smooth="yes"/>
      <point x="516" y="39"/>
      <point x="530" y="83"/>
      <point x="530" y="132" type="curve" smooth="yes"/>
      <point x="530" y="144"/>
      <point x="529" y="157"/>
      <point x="526" y="170" type="curve"/>
      <point x="522" y="170" type="line"/>
      <point x="459" y="134"/>
      <point x="394" y="120"/>
      <point x="314" y="120" type="curve" smooth="yes"/>
      <point x="225" y="120"/>
      <point x="188" y="140"/>
      <point x="116" y="205" type="curve"/>
      <point x="63" y="77"/>
      <point x="213" y="-20"/>
      <point x="332" y="-20" type="curve" smooth="yes"/>
      <point x="404" y="-20"/>
      <point x="474" y="-3"/>
    </contour>
    <contour>
      <point x="330" y="209" type="line" smooth="yes"/>
      <point x="487" y="209"/>
      <point x="550" y="259"/>
      <point x="550" y="358" type="curve" smooth="yes"/>
      <point x="550" y="361" type="line" smooth="yes"/>
      <point x="550" y="464"/>
      <point x="468" y="552"/>
      <point x="339" y="552" type="curve" smooth="yes"/>
      <point x="316" y="552"/>
      <point x="299" y="513"/>
      <point x="299" y="458" type="curve"/>
      <point x="363" y="458"/>
      <point x="392" y="428"/>
      <point x="392" y="365" type="curve" smooth="yes"/>
      <point x="392" y="362" type="line" smooth="yes"/>
      <point x="392" y="324"/>
      <point x="363" y="304"/>
      <point x="295" y="304" type="curve" smooth="yes"/>
      <point x="223" y="304"/>
      <point x="190" y="310"/>
      <point x="172" y="317" type="curve"/>
      <point x="163" y="288"/>
      <point x="164" y="267"/>
      <point x="186" y="245" type="curve" smooth="yes"/>
      <point x="206" y="225"/>
      <point x="246" y="209"/>
      <point x="326" y="209" type="curve" smooth="yes"/>
    </contour>
    <contour>
      <point x="231" y="610" type="line"/>
      <point x="259" y="663"/>
      <point x="313" y="712"/>
      <point x="378" y="733" type="curve"/>
      <point x="378" y="791"/>
      <point x="350" y="812"/>
      <point x="305" y="812" type="curve"/>
      <point x="281" y="812" type="line"/>
      <point x="236" y="791"/>
      <point x="171" y="744"/>
      <point x="142" y="700" type="curve" smooth="yes"/>
      <point x="126" y="675"/>
      <point x="119" y="657"/>
      <point x="119" y="649" type="curve" smooth="yes"/>
      <point x="119" y="626"/>
      <point x="175" y="610"/>
      <point x="225" y="610" type="curve"/>
    </contour>
    <contour>
      <point x="535" y="626" type="curve"/>
      <point x="504" y="695"/>
      <point x="462" y="742"/>
      <point x="413" y="779" type="curve" smooth="yes"/>
      <point x="370" y="811"/>
      <point x="340" y="812"/>
      <point x="310" y="812" type="curve" smooth="yes"/>
      <point x="302" y="812" type="line"/>
      <point x="283" y="812"/>
      <point x="268" y="793"/>
      <point x="256" y="731" type="curve"/>
      <point x="331" y="707"/>
      <point x="360" y="683"/>
      <point x="392" y="639" type="curve" smooth="yes"/>
      <point x="403" y="620"/>
      <point x="420" y="610"/>
      <point x="453" y="610" type="curve" smooth="yes"/>
      <point x="487" y="610"/>
      <point x="510" y="615"/>
    </contour>
  </outline>
</glyph>
<glyph name="igrave" format="1">
  <advance width="347"/>
  <unicode hex="00EC"/>
  <outline>
    <contour>
      <point x="26" y="546" type="curve"/>
      <point x="22" y="531"/>
      <point x="20" y="511"/>
      <point x="20" y="488" type="curve" smooth="yes"/>
      <point x="20" y="421"/>
      <point x="40" y="396"/>
      <point x="63" y="396" type="curve" smooth="yes"/>
      <point x="86" y="396"/>
      <point x="104" y="408"/>
      <point x="158" y="408" type="curve"/>
      <point x="158" y="483"/>
      <point x="164" y="550"/>
      <point x="115" y="550" type="curve" smooth="yes"/>
      <point x="85" y="550"/>
      <point x="55" y="550"/>
    </contour>
    <contour>
      <point x="275" y="-6" type="curve"/>
      <point x="268" y="27"/>
      <point x="265" y="61"/>
      <point x="265" y="96" type="curve" smooth="yes"/>
      <point x="265" y="495" type="line" smooth="yes"/>
      <point x="265" y="538"/>
      <point x="220" y="550"/>
      <point x="125" y="550" type="curve" smooth="yes"/>
      <point x="115" y="550" type="line"/>
      <point x="115" y="56" type="line" smooth="yes"/>
      <point x="115" y="11"/>
      <point x="148" y="-6"/>
      <point x="258" y="-6" type="curve" smooth="yes"/>
      <point x="264" y="-6"/>
      <point x="269" y="-6"/>
    </contour>
    <contour>
      <point x="243" y="629" type="curve"/>
      <point x="182" y="694"/>
      <point x="152" y="732"/>
      <point x="131" y="816" type="curve"/>
      <point x="85" y="816"/>
      <point x="53" y="810"/>
      <point x="16" y="792" type="curve" smooth="yes"/>
      <point x="-1" y="784"/>
      <point x="-5" y="765"/>
      <point x="1" y="749" type="curve"/>
      <point x="24" y="685"/>
      <point x="44" y="657"/>
      <point x="93" y="629" type="curve" smooth="yes"/>
      <point x="108" y="620"/>
      <point x="131" y="613"/>
      <point x="163" y="613" type="curve" smooth="yes"/>
      <point x="192" y="613"/>
      <point x="211" y="616"/>
    </contour>
  </outline>
</glyph>
<glyph name="iacute" format="1">
  <advance width="347"/>
  <unicode hex="00ED"/>
  <outline>
    <contour>
      <point x="26" y="546" type="curve"/>
      <point x="22" y="531"/>
      <point x="20" y="511"/>
      <point x="20" y="488" type="curve" smooth="yes"/>
      <point x="20" y="421"/>
      <point x="40" y="396"/>
      <point x="63" y="396" type="curve" smooth="yes"/>
      <point x="86" y="396"/>
      <point x="104" y="408"/>
      <point x="158" y="408" type="curve"/>
      <point x="158" y="483"/>
      <point x="164" y="550"/>
      <point x="115" y="550" type="curve" smooth="yes"/>
      <point x="85" y="550"/>
      <point x="55" y="550"/>
    </contour>
    <contour>
      <point x="275" y="-6" type="curve"/>
      <point x="268" y="27"/>
      <point x="265" y="61"/>
      <point x="265" y="96" type="curve" smooth="yes"/>
      <point x="265" y="495" type="line" smooth="yes"/>
      <point x="265" y="538"/>
      <point x="220" y="550"/>
      <point x="125" y="550" type="curve" smooth="yes"/>
      <point x="115" y="550" type="line"/>
      <point x="115" y="56" type="line" smooth="yes"/>
      <point x="115" y="11"/>
      <point x="148" y="-6"/>
      <point x="258" y="-6" type="curve" smooth="yes"/>
      <point x="264" y="-6"/>
      <point x="269" y="-6"/>
    </contour>
    <contour>
      <point x="181" y="613" type="curve" smooth="yes"/>
      <point x="213" y="613"/>
      <point x="236" y="620"/>
      <point x="251" y="629" type="curve" smooth="yes"/>
      <point x="300" y="657"/>
      <point x="320" y="685"/>
      <point x="343" y="749" type="curve"/>
      <point x="349" y="765"/>
      <point x="345" y="784"/>
      <point x="328" y="792" type="curve" smooth="yes"/>
      <point x="291" y="810"/>
      <point x="259" y="816"/>
      <point x="213" y="816" type="curve"/>
      <point x="192" y="732"/>
      <point x="162" y="694"/>
      <point x="101" y="629" type="curve"/>
      <point x="133" y="616"/>
      <point x="152" y="613"/>
    </contour>
  </outline>
</glyph>
<glyph name="icircumflex" format="1">
  <advance width="347"/>
  <unicode hex="00EE"/>
  <outline>
    <contour>
      <point x="26" y="546" type="curve"/>
      <point x="22" y="531"/>
      <point x="20" y="511"/>
      <point x="20" y="488" type="curve" smooth="yes"/>
      <point x="20" y="421"/>
      <point x="40" y="396"/>
      <point x="63" y="396" type="curve" smooth="yes"/>
      <point x="86" y="396"/>
      <point x="104" y="408"/>
      <point x="158" y="408" type="curve"/>
      <point x="158" y="483"/>
      <point x="164" y="550"/>
      <point x="115" y="550" type="curve" smooth="yes"/>
      <point x="85" y="550"/>
      <point x="55" y="550"/>
    </contour>
    <contour>
      <point x="275" y="-6" type="curve"/>
      <point x="268" y="27"/>
      <point x="265" y="61"/>
      <point x="265" y="96" type="curve" smooth="yes"/>
      <point x="265" y="495" type="line" smooth="yes"/>
      <point x="265" y="538"/>
      <point x="220" y="550"/>
      <point x="125" y="550" type="curve" smooth="yes"/>
      <point x="115" y="550" type="line"/>
      <point x="115" y="56" type="line" smooth="yes"/>
      <point x="115" y="11"/>
      <point x="148" y="-6"/>
      <point x="258" y="-6" type="curve" smooth="yes"/>
      <point x="264" y="-6"/>
      <point x="269" y="-6"/>
    </contour>
    <contour>
      <point x="83" y="610" type="line"/>
      <point x="111" y="663"/>
      <point x="165" y="712"/>
      <point x="230" y="733" type="curve"/>
      <point x="230" y="791"/>
      <point x="202" y="812"/>
      <point x="157" y="812" type="curve"/>
      <point x="133" y="812" type="line"/>
      <point x="88" y="791"/>
      <point x="23" y="744"/>
      <point x="-6" y="700" type="curve" smooth="yes"/>
      <point x="-22" y="675"/>
      <point x="-29" y="657"/>
      <point x="-29" y="649" type="curve" smooth="yes"/>
      <point x="-29" y="626"/>
      <point x="27" y="610"/>
      <point x="77" y="610" type="curve"/>
    </contour>
    <contour>
      <point x="387" y="626" type="curve"/>
      <point x="356" y="695"/>
      <point x="314" y="742"/>
      <point x="265" y="779" type="curve" smooth="yes"/>
      <point x="222" y="811"/>
      <point x="192" y="812"/>
      <point x="162" y="812" type="curve" smooth="yes"/>
      <point x="154" y="812" type="line"/>
      <point x="135" y="812"/>
      <point x="120" y="793"/>
      <point x="108" y="731" type="curve"/>
      <point x="183" y="707"/>
      <point x="212" y="683"/>
      <point x="244" y="639" type="curve" smooth="yes"/>
      <point x="255" y="620"/>
      <point x="272" y="610"/>
      <point x="305" y="610" type="curve" smooth="yes"/>
      <point x="339" y="610"/>
      <point x="362" y="615"/>
    </contour>
  </outline>
</glyph>
<glyph name="idieresis" format="1">
  <advance width="347"/>
  <unicode hex="00EF"/>
  <outline>
    <contour>
      <point x="26" y="546" type="curve"/>
      <point x="22" y="531"/>
      <point x="20" y="511"/>
      <point x="20" y="488" type="curve" smooth="yes"/>
      <point x="20" y="421"/>
      <point x="40" y="396"/>
      <point x="63" y="396" type="curve" smooth="yes"/>
      <point x="86" y="396"/>
      <point x="104" y="408"/>
      <point x="158" y="408" type="curve"/>
      <point x="158" y="483"/>
      <point x="164" y="550"/>
      <point x="115" y="550" type="curve" smooth="yes"/>
      <point x="85" y="550"/>
      <point x="55" y="550"/>
    </contour>
    <contour>
      <point x="275" y="-6" type="curve"/>
      <point x="268" y="27"/>
      <point x="265" y="61"/>
      <point x="265" y="96" type="curve" smooth="yes"/>
      <point x="265" y="495" type="line" smooth="yes"/>
      <point x="265" y="538"/>
      <point x="220" y="550"/>
      <point x="125" y="550" type="curve" smooth="yes"/>
      <point x="115" y="550" type="line"/>
      <point x="115" y="56" type="line" smooth="yes"/>
      <point x="115" y="11"/>
      <point x="148" y="-6"/>
      <point x="258" y="-6" type="curve" smooth="yes"/>
      <point x="264" y="-6"/>
      <point x="269" y="-6"/>
    </contour>
    <contour>
      <point x="140" y="615" type="curve"/>
      <point x="140" y="723" type="line" smooth="yes"/>
      <point x="140" y="767"/>
      <point x="91" y="772"/>
      <point x="48" y="772" type="curve" smooth="yes"/>
      <point x="30" y="772"/>
      <point x="5" y="771"/>
      <point x="-16" y="769" type="curve"/>
      <point x="-16" y="662" type="line" smooth="yes"/>
      <point x="-16" y="618"/>
      <point x="33" y="611"/>
      <point x="75" y="611" type="curve" smooth="yes"/>
      <point x="94" y="611"/>
      <point x="119" y="611"/>
    </contour>
    <contour>
      <point x="360" y="615" type="curve"/>
      <point x="360" y="723" type="line" smooth="yes"/>
      <point x="360" y="767"/>
      <point x="311" y="772"/>
      <point x="268" y="772" type="curve" smooth="yes"/>
      <point x="250" y="772"/>
      <point x="225" y="771"/>
      <point x="204" y="769" type="curve"/>
      <point x="204" y="662" type="line" smooth="yes"/>
      <point x="204" y="618"/>
      <point x="253" y="611"/>
      <point x="295" y="611" type="curve" smooth="yes"/>
      <point x="314" y="611"/>
      <point x="339" y="611"/>
    </contour>
  </outline>
</glyph>
<glyph name="ntilde" format="1">
  <advance width="600"/>
  <unicode hex="00F1"/>
  <outline>
    <contour>
      <point x="218" y="0" type="curve"/>
      <point x="218" y="362" type="line" smooth="yes"/>
      <point x="218" y="442"/>
      <point x="202" y="484"/>
      <point x="172" y="514" type="curve" smooth="yes"/>
      <point x="148" y="538"/>
      <point x="122" y="546"/>
      <point x="89" y="546" type="curve" smooth="yes"/>
      <point x="76" y="546"/>
      <point x="64" y="545"/>
      <point x="51" y="542" type="curve"/>
      <point x="60" y="506"/>
      <point x="64" y="475"/>
      <point x="64" y="436" type="curve" smooth="yes"/>
      <point x="64" y="56" type="line" smooth="yes"/>
      <point x="64" y="2"/>
      <point x="104" y="-6"/>
      <point x="160" y="-6" type="curve" smooth="yes"/>
      <point x="183" y="-6"/>
      <point x="203" y="-4"/>
    </contour>
    <contour>
      <point x="420" y="552" type="curve" smooth="yes"/>
      <point x="323" y="552"/>
      <point x="228" y="457"/>
      <point x="203" y="343" type="curve" smooth="yes"/>
      <point x="183" y="252"/>
      <point x="187" y="179"/>
      <point x="209" y="114" type="curve"/>
      <point x="245" y="333"/>
      <point x="305" y="385"/>
      <point x="363" y="385" type="curve" smooth="yes"/>
      <point x="388" y="385"/>
      <point x="412" y="363"/>
      <point x="430" y="318" type="curve"/>
      <point x="488" y="318"/>
      <point x="529" y="349"/>
      <point x="529" y="384" type="curve" smooth="yes"/>
      <point x="529" y="461"/>
      <point x="478" y="552"/>
    </contour>
    <contour>
      <point x="550" y="0" type="curve"/>
      <point x="534" y="59"/>
      <point x="529" y="95"/>
      <point x="529" y="159" type="curve" smooth="yes"/>
      <point x="529" y="384" type="line"/>
      <point x="529" y="411"/>
      <point x="500" y="427"/>
      <point x="404" y="424" type="curve"/>
      <point x="382" y="319"/>
      <point x="363" y="217"/>
      <point x="363" y="134" type="curve" smooth="yes"/>
      <point x="363" y="129" type="line" smooth="yes"/>
      <point x="363" y="22"/>
      <point x="407" y="-6"/>
      <point x="492" y="-6" type="curve" smooth="yes"/>
      <point x="513" y="-6"/>
      <point x="530" y="-4"/>
    </contour>
    <contour>
      <point x="396" y="765" type="curve" smooth="yes"/>
      <point x="326" y="765"/>
      <point x="277" y="814"/>
      <point x="196" y="814" type="curve" smooth="yes"/>
      <point x="147" y="814"/>
      <point x="122" y="791"/>
      <point x="108" y="755" type="curve" smooth="yes"/>
      <point x="102" y="741"/>
      <point x="95" y="714"/>
      <point x="95" y="676" type="curve"/>
      <point x="95" y="661"/>
      <point x="97" y="639"/>
      <point x="102" y="624" type="curve"/>
      <point x="106" y="624" type="line"/>
      <point x="140" y="659"/>
      <point x="164" y="672"/>
      <point x="204" y="672" type="curve" smooth="yes"/>
      <point x="274" y="672"/>
      <point x="323" y="623"/>
      <point x="404" y="623" type="curve" smooth="yes"/>
      <point x="453" y="623"/>
      <point x="478" y="646"/>
      <point x="492" y="682" type="curve" smooth="yes"/>
      <point x="498" y="696"/>
      <point x="505" y="723"/>
      <point x="505" y="761" type="curve"/>
      <point x="505" y="776"/>
      <point x="503" y="798"/>
      <point x="498" y="813" type="curve"/>
      <point x="494" y="813" type="line"/>
      <point x="460" y="778"/>
      <point x="436" y="765"/>
    </contour>
  </outline>
</glyph>
<glyph name="ocircumflex" format="1">
  <advance width="600"/>
  <unicode hex="00F4"/>
  <outline>
    <contour>
      <point x="304" y="552" type="curve" smooth="yes"/>
      <point x="153" y="552"/>
      <point x="50" y="433"/>
      <point x="50" y="258" type="curve" smooth="yes"/>
      <point x="50" y="244" type="line" smooth="yes"/>
      <point x="50" y="68"/>
      <point x="163" y="-12"/>
      <point x="295" y="-12" type="curve" smooth="yes"/>
      <point x="329" y="-12"/>
      <point x="351" y="14"/>
      <point x="351" y="52" type="curve"/>
      <point x="249" y="52"/>
      <point x="195" y="106"/>
      <point x="195" y="239" type="curve" smooth="yes"/>
      <point x="195" y="246" type="line" smooth="yes"/>
      <point x="195" y="365"/>
      <point x="237" y="412"/>
      <point x="323" y="412" type="curve" smooth="yes"/>
      <point x="377" y="412"/>
      <point x="397" y="401"/>
      <point x="435" y="371" type="curve"/>
      <point x="531" y="424"/>
      <point x="413" y="552"/>
    </contour>
    <contour>
      <point x="295" y="-12" type="curve" smooth="yes"/>
      <point x="446" y="-12"/>
      <point x="550" y="91"/>
      <point x="550" y="242" type="curve" smooth="yes"/>
      <point x="550" y="256" type="line" smooth="yes"/>
      <point x="550" y="460"/>
      <point x="434" y="552"/>
      <point x="304" y="552" type="curve" smooth="yes"/>
      <point x="276" y="552"/>
      <point x="258" y="526"/>
      <point x="258" y="488" type="curve"/>
      <point x="354" y="488"/>
      <point x="405" y="422"/>
      <point x="405" y="261" type="curve" smooth="yes"/>
      <point x="405" y="254" type="line" smooth="yes"/>
      <point x="405" y="163"/>
      <point x="363" y="128"/>
      <point x="272" y="128" type="curve" smooth="yes"/>
      <point x="219" y="128"/>
      <point x="195" y="141"/>
      <point x="155" y="169" type="curve"/>
      <point x="96" y="110"/>
      <point x="180" y="-12"/>
    </contour>
    <contour>
      <point x="211" y="610" type="line"/>
      <point x="239" y="663"/>
      <point x="293" y="712"/>
      <point x="358" y="733" type="curve"/>
      <point x="358" y="791"/>
      <point x="330" y="812"/>
      <point x="285" y="812" type="curve"/>
      <point x="261" y="812" type="line"/>
      <point x="216" y="791"/>
      <point x="151" y="744"/>
      <point x="122" y="700" type="curve" smooth="yes"/>
      <point x="106" y="675"/>
      <point x="99" y="657"/>
      <point x="99" y="649" type="curve" smooth="yes"/>
      <point x="99" y="626"/>
      <point x="155" y="610"/>
      <point x="205" y="610" type="curve"/>
    </contour>
    <contour>
      <point x="515" y="626" type="curve"/>
      <point x="484" y="695"/>
      <point x="442" y="742"/>
      <point x="393" y="779" type="curve" smooth="yes"/>
      <point x="350" y="811"/>
      <point x="320" y="812"/>
      <point x="290" y="812" type="curve" smooth="yes"/>
      <point x="282" y="812" type="line"/>
      <point x="263" y="812"/>
      <point x="248" y="793"/>
      <point x="236" y="731" type="curve"/>
      <point x="311" y="707"/>
      <point x="340" y="683"/>
      <point x="372" y="639" type="curve" smooth="yes"/>
      <point x="383" y="620"/>
      <point x="400" y="610"/>
      <point x="433" y="610" type="curve" smooth="yes"/>
      <point x="467" y="610"/>
      <point x="490" y="615"/>
    </contour>
  </outline>
</glyph>
<glyph name="otilde" format="1">
  <advance width="600"/>
  <unicode hex="00F5"/>
  <outline>
    <contour>
      <point x="304" y="552" type="curve" smooth="yes"/>
      <point x="153" y="552"/>
      <point x="50" y="433"/>
      <point x="50" y="258" type="curve" smooth="yes"/>
      <point x="50" y="244" type="line" smooth="yes"/>
      <point x="50" y="68"/>
      <point x="163" y="-12"/>
      <point x="295" y="-12" type="curve" smooth="yes"/>
      <point x="329" y="-12"/>
      <point x="351" y="14"/>
      <point x="351" y="52" type="curve"/>
      <point x="249" y="52"/>
      <point x="195" y="106"/>
      <point x="195" y="239" type="curve" smooth="yes"/>
      <point x="195" y="246" type="line" smooth="yes"/>
      <point x="195" y="365"/>
      <point x="237" y="412"/>
      <point x="323" y="412" type="curve" smooth="yes"/>
      <point x="377" y="412"/>
      <point x="397" y="401"/>
      <point x="435" y="371" type="curve"/>
      <point x="531" y="424"/>
      <point x="413" y="552"/>
    </contour>
    <contour>
      <point x="295" y="-12" type="curve" smooth="yes"/>
      <point x="446" y="-12"/>
      <point x="550" y="91"/>
      <point x="550" y="242" type="curve" smooth="yes"/>
      <point x="550" y="256" type="line" smooth="yes"/>
      <point x="550" y="460"/>
      <point x="434" y="552"/>
      <point x="304" y="552" type="curve" smooth="yes"/>
      <point x="276" y="552"/>
      <point x="258" y="526"/>
      <point x="258" y="488" type="curve"/>
      <point x="354" y="488"/>
      <point x="405" y="422"/>
      <point x="405" y="261" type="curve" smooth="yes"/>
      <point x="405" y="254" type="line" smooth="yes"/>
      <point x="405" y="163"/>
      <point x="363" y="128"/>
      <point x="272" y="128" type="curve" smooth="yes"/>
      <point x="219" y="128"/>
      <point x="195" y="141"/>
      <point x="155" y="169" type="curve"/>
      <point x="96" y="110"/>
      <point x="180" y="-12"/>
    </contour>
    <contour>
      <point x="396" y="765" type="curve" smooth="yes"/>
      <point x="326" y="765"/>
      <point x="277" y="814"/>
      <point x="196" y="814" type="curve" smooth="yes"/>
      <point x="147" y="814"/>
      <point x="122" y="791"/>
      <point x="108" y="755" type="curve" smooth="yes"/>
      <point x="102" y="741"/>
      <point x="95" y="714"/>
      <point x="95" y="676" type="curve"/>
      <point x="95" y="661"/>
      <point x="97" y="639"/>
      <point x="102" y="624" type="curve"/>
      <point x="106" y="624" type="line"/>
      <point x="140" y="659"/>
      <point x="164" y="672"/>
      <point x="204" y="672" type="curve" smooth="yes"/>
      <point x="274" y="672"/>
      <point x="323" y="623"/>
      <point x="404" y="623" type="curve" smooth="yes"/>
      <point x="453" y="623"/>
      <point x="478" y="646"/>
      <point x="492" y="682" type="curve" smooth="yes"/>
      <point x="498" y="696"/>
      <point x="505" y="723"/>
      <point x="505" y="761" type="curve"/>
      <point x="505" y="776"/>
      <point x="503" y="798"/>
      <point x="498" y="813" type="curve"/>
      <point x="494" y="813" type="line"/>
      <point x="460" y="778"/>
      <point x="436" y="765"/>
    </contour>
  </outline>
</glyph>
<glyph name="oslash" format="1">
  <advance width="600"/>
  <unicode hex="00F8"/>
  <outline>
    <contour>
      <point x="481" y="592" type="curve"/>
      <point x="462" y="601"/>
      <point x="446" y="605"/>
      <point x="419" y="605" type="curve" smooth="yes"/>
      <point x="373" y="605"/>
      <point x="344" y="588"/>
      <point x="339" y="557" type="curve" smooth="yes"/>
      <point x="294" y="321"/>
      <point x="252" y="217"/>
      <point x="173" y="92" type="curve"/>
      <point x="185" y="85"/>
      <point x="196" y="83"/>
      <point x="209" y="83" type="curve" smooth="yes"/>
      <point x="233" y="83"/>
      <point x="250" y="93"/>
      <point x="266" y="115" type="curve" smooth="yes"/>
      <point x="332" y="208"/>
      <point x="431" y="364"/>
    </contour>
    <contour>
      <point x="137" y="62" type="curve"/>
      <point x="124" y="41"/>
      <point x="104" y="15"/>
      <point x="62" y="-17" type="curve"/>
      <point x="84" y="-37"/>
      <point x="106" y="-45"/>
      <point x="134" y="-45" type="curve" smooth="yes"/>
      <point x="159" y="-45"/>
      <point x="176" y="-36"/>
      <point x="183" y="-30" type="curve"/>
      <point x="211" y="-5"/>
      <point x="219" y="5"/>
      <point x="234" y="35" type="curve"/>
      <point x="206" y="62"/>
      <point x="146" y="77"/>
    </contour>
    <contour>
      <point x="304" y="552" type="curve" smooth="yes"/>
      <point x="153" y="552"/>
      <point x="50" y="433"/>
      <point x="50" y="258" type="curve" smooth="yes"/>
      <point x="50" y="244" type="line" smooth="yes"/>
      <point x="50" y="68"/>
      <point x="163" y="-12"/>
      <point x="295" y="-12" type="curve" smooth="yes"/>
      <point x="329" y="-12"/>
      <point x="351" y="14"/>
      <point x="351" y="52" type="curve"/>
      <point x="249" y="52"/>
      <point x="195" y="106"/>
      <point x="195" y="239" type="curve" smooth="yes"/>
      <point x="195" y="246" type="line" smooth="yes"/>
      <point x="195" y="365"/>
      <point x="237" y="412"/>
      <point x="323" y="412" type="curve" smooth="yes"/>
      <point x="377" y="412"/>
      <point x="397" y="401"/>
      <point x="435" y="371" type="curve"/>
      <point x="531" y="424"/>
      <point x="413" y="552"/>
    </contour>
    <contour>
      <point x="295" y="-12" type="curve" smooth="yes"/>
      <point x="446" y="-12"/>
      <point x="550" y="91"/>
      <point x="550" y="242" type="curve" smooth="yes"/>
      <point x="550" y="256" type="line" smooth="yes"/>
      <point x="550" y="460"/>
      <point x="434" y="552"/>
      <point x="304" y="552" type="curve" smooth="yes"/>
      <point x="276" y="552"/>
      <point x="258" y="526"/>
      <point x="258" y="488" type="curve"/>
      <point x="354" y="488"/>
      <point x="405" y="422"/>
      <point x="405" y="261" type="curve" smooth="yes"/>
      <point x="405" y="254" type="line" smooth="yes"/>
      <point x="405" y="163"/>
      <point x="363" y="128"/>
      <point x="272" y="128" type="curve" smooth="yes"/>
      <point x="219" y="128"/>
      <point x="195" y="141"/>
      <point x="155" y="169" type="curve"/>
      <point x="96" y="110"/>
      <point x="180" y="-12"/>
    </contour>
    <contour>
      <point x="300" y="566" type="move" name="top"/>
    </contour>
  </outline>
</glyph>
<glyph name="cacute" format="1">
  <advance width="500"/>
  <unicode hex="0107"/>
  <outline>
    <contour>
      <point x="332" y="552" type="curve" smooth="yes"/>
      <point x="165" y="552"/>
      <point x="51" y="433"/>
      <point x="51" y="259" type="curve" smooth="yes"/>
      <point x="51" y="245" type="line" smooth="yes"/>
      <point x="51" y="61"/>
      <point x="164" y="-12"/>
      <point x="303" y="-12" type="curve" smooth="yes"/>
      <point x="337" y="-12"/>
      <point x="335" y="13"/>
      <point x="335" y="51" type="curve"/>
      <point x="239" y="71"/>
      <point x="201" y="143"/>
      <point x="201" y="232" type="curve" smooth="yes"/>
      <point x="201" y="243" type="line" smooth="yes"/>
      <point x="201" y="332"/>
      <point x="244" y="398"/>
      <point x="322" y="398" type="curve" smooth="yes"/>
      <point x="372" y="398"/>
      <point x="401" y="390"/>
      <point x="439" y="363" type="curve"/>
      <point x="443" y="363" type="line"/>
      <point x="455" y="389"/>
      <point x="460" y="416"/>
      <point x="460" y="451" type="curve"/>
      <point x="460" y="491"/>
      <point x="452" y="509"/>
      <point x="436" y="525" type="curve" smooth="yes"/>
      <point x="419" y="542"/>
      <point x="383" y="552"/>
    </contour>
    <contour>
      <point x="303" y="-12" type="curve" smooth="yes"/>
      <point x="368" y="-12"/>
      <point x="415" y="-1"/>
      <point x="435" y="19" type="curve" smooth="yes"/>
      <point x="457" y="41"/>
      <point x="467" y="79"/>
      <point x="467" y="130" type="curve"/>
      <point x="467" y="152"/>
      <point x="466" y="165"/>
      <point x="463" y="180" type="curve"/>
      <point x="459" y="180" type="line"/>
      <point x="412" y="145"/>
      <point x="370" y="133"/>
      <point x="312" y="133" type="curve" smooth="yes"/>
      <point x="248" y="133"/>
      <point x="198" y="153"/>
      <point x="156" y="206" type="curve"/>
      <point x="84" y="110"/>
      <point x="163" y="-12"/>
    </contour>
    <contour>
      <point x="298" y="613" type="curve" smooth="yes"/>
      <point x="330" y="613"/>
      <point x="353" y="620"/>
      <point x="368" y="629" type="curve" smooth="yes"/>
      <point x="417" y="657"/>
      <point x="437" y="685"/>
      <point x="460" y="749" type="curve"/>
      <point x="466" y="765"/>
      <point x="462" y="784"/>
      <point x="445" y="792" type="curve" smooth="yes"/>
      <point x="408" y="810"/>
      <point x="376" y="816"/>
      <point x="330" y="816" type="curve"/>
      <point x="309" y="732"/>
      <point x="279" y="694"/>
      <point x="218" y="629" type="curve"/>
      <point x="250" y="616"/>
      <point x="269" y="613"/>
    </contour>
  </outline>
</glyph>
<glyph name="ccircumflex" format="1">
  <advance width="500"/>
  <unicode hex="0109"/>
  <outline>
    <contour>
      <point x="332" y="552" type="curve" smooth="yes"/>
      <point x="165" y="552"/>
      <point x="51" y="433"/>
      <point x="51" y="259" type="curve" smooth="yes"/>
      <point x="51" y="245" type="line" smooth="yes"/>
      <point x="51" y="61"/>
      <point x="164" y="-12"/>
      <point x="303" y="-12" type="curve" smooth="yes"/>
      <point x="337" y="-12"/>
      <point x="335" y="13"/>
      <point x="335" y="51" type="curve"/>
      <point x="239" y="71"/>
      <point x="201" y="143"/>
      <point x="201" y="232" type="curve" smooth="yes"/>
      <point x="201" y="243" type="line" smooth="yes"/>
      <point x="201" y="332"/>
      <point x="244" y="398"/>
      <point x="322" y="398" type="curve" smooth="yes"/>
      <point x="372" y="398"/>
      <point x="401" y="390"/>
      <point x="439" y="363" type="curve"/>
      <point x="443" y="363" type="line"/>
      <point x="455" y="389"/>
      <point x="460" y="416"/>
      <point x="460" y="451" type="curve"/>
      <point x="460" y="491"/>
      <point x="452" y="509"/>
      <point x="436" y="525" type="curve" smooth="yes"/>
      <point x="419" y="542"/>
      <point x="383" y="552"/>
    </contour>
    <contour>
      <point x="303" y="-12" type="curve" smooth="yes"/>
      <point x="368" y="-12"/>
      <point x="415" y="-1"/>
      <point x="435" y="19" type="curve" smooth="yes"/>
      <point x="457" y="41"/>
      <point x="467" y="79"/>
      <point x="467" y="130" type="curve"/>
      <point x="467" y="152"/>
      <point x="466" y="165"/>
      <point x="463" y="180" type="curve"/>
      <point x="459" y="180" type="line"/>
      <point x="412" y="145"/>
      <point x="370" y="133"/>
      <point x="312" y="133" type="curve" smooth="yes"/>
      <point x="248" y="133"/>
      <point x="198" y="153"/>
      <point x="156" y="206" type="curve"/>
      <point x="84" y="110"/>
      <point x="163" y="-12"/>
    </contour>
    <contour>
      <point x="200" y="610" type="line"/>
      <point x="228" y="663"/>
      <point x="282" y="712"/>
      <point x="347" y="733" type="curve"/>
      <point x="347" y="791"/>
      <point x="319" y="812"/>
      <point x="274" y="812" type="curve"/>
      <point x="250" y="812" type="line"/>
      <point x="205" y="791"/>
      <point x="140" y="744"/>
      <point x="111" y="700" type="curve" smooth="yes"/>
      <point x="95" y="675"/>
      <point x="88" y="657"/>
      <point x="88" y="649" type="curve" smooth="yes"/>
      <point x="88" y="626"/>
      <point x="144" y="610"/>
      <point x="194" y="610" type="curve"/>
    </contour>
    <contour>
      <point x="504" y="626" type="curve"/>
      <point x="473" y="695"/>
      <point x="431" y="742"/>
      <point x="382" y="779" type="curve" smooth="yes"/>
      <point x="339" y="811"/>
      <point x="309" y="812"/>
      <point x="279" y="812" type="curve" smooth="yes"/>
      <point x="271" y="812" type="line"/>
      <point x="252" y="812"/>
      <point x="237" y="793"/>
      <point x="225" y="731" type="curve"/>
      <point x="300" y="707"/>
      <point x="329" y="683"/>
      <point x="361" y="639" type="curve" smooth="yes"/>
      <point x="372" y="620"/>
      <point x="389" y="610"/>
      <point x="422" y="610" type="curve" smooth="yes"/>
      <point x="456" y="610"/>
      <point x="479" y="615"/>
    </contour>
  </outline>
</glyph>
<glyph name="cdotaccent" format="1">
  <advance width="500"/>
  <unicode hex="010B"/>
  <outline>
    <contour>
      <point x="332" y="552" type="curve" smooth="yes"/>
      <point x="165" y="552"/>
      <point x="51" y="433"/>
      <point x="51" y="259" type="curve" smooth="yes"/>
      <point x="51" y="245" type="line" smooth="yes"/>
      <point x="51" y="61"/>
      <point x="164" y="-12"/>
      <point x="303" y="-12" type="curve" smooth="yes"/>
      <point x="337" y="-12"/>
      <point x="335" y="13"/>
      <point x="335" y="51" type="curve"/>
      <point x="239" y="71"/>
      <point x="201" y="143"/>
      <point x="201" y="232" type="curve" smooth="yes"/>
      <point x="201" y="243" type="line" smooth="yes"/>
      <point x="201" y="332"/>
      <point x="244" y="398"/>
      <point x="322" y="398" type="curve" smooth="yes"/>
      <point x="372" y="398"/>
      <point x="401" y="390"/>
      <point x="439" y="363" type="curve"/>
      <point x="443" y="363" type="line"/>
      <point x="455" y="389"/>
      <point x="460" y="416"/>
      <point x="460" y="451" type="curve"/>
      <point x="460" y="491"/>
      <point x="452" y="509"/>
      <point x="436" y="525" type="curve" smooth="yes"/>
      <point x="419" y="542"/>
      <point x="383" y="552"/>
    </contour>
    <contour>
      <point x="303" y="-12" type="curve" smooth="yes"/>
      <point x="368" y="-12"/>
      <point x="415" y="-1"/>
      <point x="435" y="19" type="curve" smooth="yes"/>
      <point x="457" y="41"/>
      <point x="467" y="79"/>
      <point x="467" y="130" type="curve"/>
      <point x="467" y="152"/>
      <point x="466" y="165"/>
      <point x="463" y="180" type="curve"/>
      <point x="459" y="180" type="line"/>
      <point x="412" y="145"/>
      <point x="370" y="133"/>
      <point x="312" y="133" type="curve" smooth="yes"/>
      <point x="248" y="133"/>
      <point x="198" y="153"/>
      <point x="156" y="206" type="curve"/>
      <point x="84" y="110"/>
      <point x="163" y="-12"/>
    </contour>
    <contour>
      <point x="383" y="627" type="curve"/>
      <point x="383" y="710" type="line" smooth="yes"/>
      <point x="383" y="764"/>
      <point x="334" y="772"/>
      <point x="273" y="772" type="curve" smooth="yes"/>
      <point x="250" y="772"/>
      <point x="220" y="770"/>
      <point x="195" y="766" type="curve"/>
      <point x="195" y="683" type="line" smooth="yes"/>
      <point x="195" y="629"/>
      <point x="244" y="621"/>
      <point x="305" y="621" type="curve" smooth="yes"/>
      <point x="328" y="621"/>
      <point x="358" y="623"/>
    </contour>
  </outline>
</glyph>
<glyph name="ccaron" format="1">
  <advance width="500"/>
  <unicode hex="010D"/>
  <outline>
    <contour>
      <point x="332" y="552" type="curve" smooth="yes"/>
      <point x="165" y="552"/>
      <point x="51" y="433"/>
      <point x="51" y="259" type="curve" smooth="yes"/>
      <point x="51" y="245" type="line" smooth="yes"/>
      <point x="51" y="61"/>
      <point x="164" y="-12"/>
      <point x="303" y="-12" type="curve" smooth="yes"/>
      <point x="337" y="-12"/>
      <point x="335" y="13"/>
      <point x="335" y="51" type="curve"/>
      <point x="239" y="71"/>
      <point x="201" y="143"/>
      <point x="201" y="232" type="curve" smooth="yes"/>
      <point x="201" y="243" type="line" smooth="yes"/>
      <point x="201" y="332"/>
      <point x="244" y="398"/>
      <point x="322" y="398" type="curve" smooth="yes"/>
      <point x="372" y="398"/>
      <point x="401" y="390"/>
      <point x="439" y="363" type="curve"/>
      <point x="443" y="363" type="line"/>
      <point x="455" y="389"/>
      <point x="460" y="416"/>
      <point x="460" y="451" type="curve"/>
      <point x="460" y="491"/>
      <point x="452" y="509"/>
      <point x="436" y="525" type="curve" smooth="yes"/>
      <point x="419" y="542"/>
      <point x="383" y="552"/>
    </contour>
    <contour>
      <point x="303" y="-12" type="curve" smooth="yes"/>
      <point x="368" y="-12"/>
      <point x="415" y="-1"/>
      <point x="435" y="19" type="curve" smooth="yes"/>
      <point x="457" y="41"/>
      <point x="467" y="79"/>
      <point x="467" y="130" type="curve"/>
      <point x="467" y="152"/>
      <point x="466" y="165"/>
      <point x="463" y="180" type="curve"/>
      <point x="459" y="180" type="line"/>
      <point x="412" y="145"/>
      <point x="370" y="133"/>
      <point x="312" y="133" type="curve" smooth="yes"/>
      <point x="248" y="133"/>
      <point x="198" y="153"/>
      <point x="156" y="206" type="curve"/>
      <point x="84" y="110"/>
      <point x="163" y="-12"/>
    </contour>
    <contour>
      <point x="377" y="833" type="line"/>
      <point x="349" y="780"/>
      <point x="295" y="731"/>
      <point x="230" y="710" type="curve"/>
      <point x="230" y="652"/>
      <point x="258" y="631"/>
      <point x="303" y="631" type="curve"/>
      <point x="327" y="631" type="line"/>
      <point x="372" y="652"/>
      <point x="437" y="699"/>
      <point x="466" y="743" type="curve" smooth="yes"/>
      <point x="482" y="768"/>
      <point x="489" y="786"/>
      <point x="489" y="794" type="curve" smooth="yes"/>
      <point x="489" y="817"/>
      <point x="433" y="833"/>
      <point x="383" y="833" type="curve"/>
    </contour>
    <contour>
      <point x="73" y="817" type="curve"/>
      <point x="104" y="748"/>
      <point x="146" y="701"/>
      <point x="195" y="664" type="curve" smooth="yes"/>
      <point x="238" y="632"/>
      <point x="268" y="631"/>
      <point x="298" y="631" type="curve" smooth="yes"/>
      <point x="306" y="631" type="line"/>
      <point x="325" y="631"/>
      <point x="340" y="650"/>
      <point x="352" y="712" type="curve"/>
      <point x="277" y="736"/>
      <point x="248" y="760"/>
      <point x="216" y="804" type="curve" smooth="yes"/>
      <point x="205" y="823"/>
      <point x="188" y="833"/>
      <point x="155" y="833" type="curve" smooth="yes"/>
      <point x="121" y="833"/>
      <point x="98" y="828"/>
    </contour>
  </outline>
</glyph>
<glyph name="Dcaron" format="1">
  <advance width="650"/>
  <unicode hex="010E"/>
  <outline>
    <contour>
      <point x="235" y="40" type="curve"/>
      <point x="235" y="495" type="line" smooth="yes"/>
      <point x="235" y="576"/>
      <point x="183" y="609"/>
      <point x="75" y="609" type="curve"/>
      <point x="75" y="95" type="line" smooth="yes"/>
      <point x="75" y="64"/>
      <point x="146" y="40"/>
    </contour>
    <contour>
      <point x="26" y="700" type="curve"/>
      <point x="22" y="683"/>
      <point x="20" y="666"/>
      <point x="20" y="643" type="curve"/>
      <point x="20" y="600"/>
      <point x="27" y="574"/>
      <point x="41" y="559" type="curve" smooth="yes"/>
      <point x="48" y="552"/>
      <point x="54" y="550"/>
      <point x="64" y="550" type="curve" smooth="yes"/>
      <point x="74" y="550"/>
      <point x="91" y="554"/>
      <point x="129" y="559" type="curve" smooth="yes"/>
      <point x="171" y="565"/>
      <point x="216" y="570"/>
      <point x="282" y="570" type="curve"/>
      <point x="381" y="570"/>
      <point x="424" y="551"/>
      <point x="484" y="492" type="curve"/>
      <point x="584" y="623"/>
      <point x="459" y="720"/>
      <point x="298" y="720" type="curve" smooth="yes"/>
      <point x="207" y="720"/>
      <point x="112" y="714"/>
    </contour>
    <contour>
      <point x="600" y="403" type="curve" smooth="yes"/>
      <point x="600" y="408" type="line" smooth="yes"/>
      <point x="600" y="609"/>
      <point x="488" y="720"/>
      <point x="298" y="720" type="curve" smooth="yes"/>
      <point x="272" y="720"/>
      <point x="224" y="702"/>
      <point x="224" y="645" type="curve"/>
      <point x="399" y="626"/>
      <point x="442" y="570"/>
      <point x="442" y="403" type="curve" smooth="yes"/>
      <point x="442" y="393" type="line" smooth="yes"/>
      <point x="442" y="234"/>
      <point x="354" y="145"/>
      <point x="246" y="145" type="curve" smooth="yes"/>
      <point x="176" y="145"/>
      <point x="158" y="148"/>
      <point x="103" y="173" type="curve"/>
      <point x="83" y="157"/>
      <point x="75" y="135"/>
      <point x="75" y="95" type="curve" smooth="yes"/>
      <point x="75" y="50"/>
      <point x="175" y="-10"/>
      <point x="248" y="-10" type="curve" smooth="yes"/>
      <point x="252" y="-10" type="line" smooth="yes"/>
      <point x="450" y="-10"/>
      <point x="600" y="147"/>
    </contour>
    <contour>
      <point x="409" y="949" type="line"/>
      <point x="378" y="903"/>
      <point x="319" y="861"/>
      <point x="248" y="843" type="curve"/>
      <point x="248" y="793"/>
      <point x="279" y="775"/>
      <point x="328" y="775" type="curve"/>
      <point x="374" y="775" type="line"/>
      <point x="423" y="793"/>
      <point x="474" y="834"/>
      <point x="506" y="871" type="curve" smooth="yes"/>
      <point x="524" y="892"/>
      <point x="531" y="909"/>
      <point x="531" y="915" type="curve" smooth="yes"/>
      <point x="531" y="935"/>
      <point x="470" y="949"/>
      <point x="415" y="949" type="curve"/>
    </contour>
    <contour>
      <point x="77" y="935" type="curve"/>
      <point x="111" y="876"/>
      <point x="144" y="835"/>
      <point x="197" y="803" type="curve" smooth="yes"/>
      <point x="244" y="776"/>
      <point x="277" y="775"/>
      <point x="310" y="775" type="curve" smooth="yes"/>
      <point x="331" y="775" type="line"/>
      <point x="352" y="775"/>
      <point x="368" y="791"/>
      <point x="381" y="845" type="curve"/>
      <point x="300" y="865"/>
      <point x="268" y="886"/>
      <point x="233" y="924" type="curve" smooth="yes"/>
      <point x="219" y="939"/>
      <point x="202" y="949"/>
      <point x="166" y="949" type="curve" smooth="yes"/>
      <point x="129" y="949"/>
      <point x="104" y="945"/>
    </contour>
  </outline>
</glyph>
